<svg xmlns="http://www.w3.org/2000/svg" width="103" height="68" fill="none"><g clip-path="url(#a)"><path fill="#B5D9F1" stroke="#264887" stroke-linecap="round" stroke-linejoin="round" stroke-width="2.094" d="M37.35 6.384c0-.75.609-1.36 1.36-1.36h42.827c.751 0 1.36.61 1.36 1.36v40.228c0 .75-.609 1.36-1.36 1.36H38.71a1.36 1.36 0 0 1-1.359-1.36z"/><path fill="#B5D9F1" stroke="#264887" stroke-linecap="round" stroke-linejoin="round" stroke-width="2.094" d="M32.325 11.41c0-.752.609-1.36 1.36-1.36h42.828c.75 0 1.359.608 1.359 1.36v40.227a1.36 1.36 0 0 1-1.36 1.359H33.686a1.36 1.36 0 0 1-1.36-1.36z"/><path fill="#B5D9F1" stroke="#264887" stroke-linecap="round" stroke-linejoin="round" stroke-width="2.094" d="M27.3 16.435c0-.751.609-1.36 1.36-1.36h42.828c.75 0 1.36.609 1.36 1.36v40.227c0 .75-.61 1.36-1.36 1.36H28.66a1.36 1.36 0 0 1-1.36-1.36z"/><path fill="#fff" stroke="#264887" stroke-linecap="round" stroke-linejoin="round" stroke-width="2.094" d="M22.365 21.32c0-.75.608-1.36 1.36-1.36h42.827c.75 0 1.36.61 1.36 1.36v40.228c0 .75-.61 1.36-1.36 1.36H23.724a1.36 1.36 0 0 1-1.36-1.36z"/><path stroke="#264887" stroke-linecap="round" stroke-linejoin="round" stroke-width="2.094" d="M22.364 29.872h45.547"/><path fill="#E78C89" stroke="#E78C89" stroke-linecap="round" stroke-linejoin="round" stroke-width="2.974" d="M28.87 36.479h13.014v13.214H28.871z"/><path stroke="#90C6EB" stroke-linecap="round" stroke-linejoin="round" stroke-width="2.974" d="M28.78 56.158H61.5M48.486 43.32H61.5m-13.014 6.798H61.5M48.486 36.526H61.5"/><path stroke="#E78C89" stroke-linecap="round" stroke-linejoin="round" stroke-width="1.675" d="M11.33 3.712 7.814 5.983l2.317 3.564 3.518-2.272zm9.933.413-.855 4.1 4.152.906.855-4.099z"/><path fill="#E78C89" d="m5.786 18.31 5.54 1.227Z"/><path stroke="#E78C89" stroke-linecap="round" stroke-width="1.675" d="m5.786 18.31 5.54 1.227"/><path fill="#E78C89" d="m9.007 16.23-1.14 5.54Z"/><path stroke="#E78C89" stroke-linecap="round" stroke-width="1.675" d="m9.007 16.23-1.14 5.54"/><path stroke="#E78C89" stroke-linecap="round" stroke-linejoin="round" stroke-width="1.675" d="m98.264 23.008-3.11-2.805-2.792 3.097 3.109 2.805z"/></g><defs><clipPath id="a"><path fill="#fff" d="M.5 0h102v68H.5z"/></clipPath></defs></svg>