<svg xmlns="http://www.w3.org/2000/svg" width="60" height="40" fill="none"><path fill="#fff" stroke="#D7DBE0" stroke-linecap="round" stroke-linejoin="round" stroke-width="1.25" d="M22 3.812c0-.449.363-.812.812-.812H48.38c.448 0 .811.363.811.812v24.016a.81.81 0 0 1-.811.812H22.81a.81.81 0 0 1-.811-.812z"/><path fill="#fff" stroke="#D7DBE0" stroke-linecap="round" stroke-linejoin="round" stroke-width="1.25" d="M19 6.812c0-.449.363-.812.812-.812H45.38c.448 0 .811.363.811.812v24.016a.81.81 0 0 1-.811.812H19.81a.81.81 0 0 1-.811-.812z"/><path fill="#fff" stroke="#D7DBE0" stroke-linecap="round" stroke-linejoin="round" stroke-width="1.25" d="M16 9.812c0-.449.363-.812.812-.812H42.38c.448 0 .811.363.811.812v24.016a.81.81 0 0 1-.811.811H16.81a.81.81 0 0 1-.811-.811z"/><path fill="#fff" stroke="#D7DBE0" stroke-linecap="round" stroke-linejoin="round" stroke-width="1.25" d="M13.054 12.73a.81.81 0 0 1 .811-.812h25.569c.448 0 .812.363.812.811v24.016a.81.81 0 0 1-.812.812H13.865a.81.81 0 0 1-.812-.812z"/><path stroke="#D7DBE0" stroke-linecap="round" stroke-linejoin="round" stroke-width="1.25" d="M13.053 17.834h27.192"/><path fill="#D7DBE0" stroke="#D7DBE0" stroke-linecap="round" stroke-linejoin="round" stroke-width="1.775" d="M16.938 21.779h7.769v7.889h-7.77z"/><path stroke="#D7DBE0" stroke-linecap="round" stroke-linejoin="round" stroke-width="1.775" d="M16.884 33.528h19.533m-7.769-7.664h7.77m-7.77 4.057h7.77m-7.77-8.114h7.77"/><path stroke="#D7DBE0" stroke-linecap="round" stroke-linejoin="round" d="m5.57 1.918-2.1 1.356L4.855 5.4l2.1-1.356zm5.93.246-.51 2.448 2.479.542.51-2.448z"/><path fill="#D7DBE0" d="m2.26 10.634 3.308.732z"/><path stroke="#D7DBE0" stroke-linecap="round" d="m2.26 10.634 3.308.732"/><path fill="#D7DBE0" d="M4.184 9.392 3.503 12.7z"/><path stroke="#D7DBE0" stroke-linecap="round" d="M4.184 9.392 3.503 12.7"/><path stroke="#D7DBE0" stroke-linecap="round" stroke-linejoin="round" d="m57.471 13.439-1.856-1.675-1.668 1.849 1.856 1.675z"/></svg>