<svg xmlns="http://www.w3.org/2000/svg" width="60" height="40" fill="none"><path stroke="#CACCEE" d="M3.25 28.5a1.25 1.25 0 1 0 0-2.5 1.25 1.25 0 0 0 0 2.5Z" clip-rule="evenodd"/><path stroke="#CACCEE" stroke-linecap="round" d="M53.104 3.104 55.48 5.48m-.084-2.376L53.02 5.48"/><path stroke="#CACCEE" stroke-linecap="round" stroke-linejoin="round" d="M54 32h2.5v2.5H54zM4 17.003l1.768-1.767 1.768 1.767-1.768 1.768z"/><rect width="36" height="36" fill="#fff" stroke="#264887" stroke-dasharray="194.82 5.93 0.85 3.39" stroke-linecap="round" stroke-width="1.25" rx="3.388" transform="matrix(1 0 0 -1 12 38)"/><g filter="url(#a)"><path fill="#EBF5FB" fill-rule="evenodd" d="M36.4 36.615v-7.459a2.54 2.54 0 0 1 2.541-2.54H46.4z" clip-rule="evenodd"/></g><path stroke="#264887" stroke-width="1.25" d="M36.4 36.615v-7.459a2.54 2.54 0 0 1 2.541-2.54H46.4z" clip-rule="evenodd"/><path fill="#86C1E9" fill-rule="evenodd" stroke="#264887" stroke-width="1.25" d="M47.654 26.454v8.658a2.54 2.54 0 0 1-2.541 2.542h-8.66z" clip-rule="evenodd"/><rect width="18" height=".8" x="26.4" y="11.6" fill="#D22D27" stroke="#D22D27" stroke-width="1.694" rx=".4"/><rect width="6.4" height=".8" x="16" y="11.6" fill="#D22D27" stroke="#D22D27" stroke-width="1.694" rx=".4"/><path fill="#E3E3E3" fill-rule="evenodd" stroke="#86C1E9" stroke-width="1.694" d="M16 20.8a.4.4 0 0 1 .4-.4H44a.4.4 0 0 1 0 .8H16.4a.4.4 0 0 1-.4-.4Z" clip-rule="evenodd"/><rect width="18.4" height=".8" x="16" y="16" fill="#E3E3E3" stroke="#86C1E9" stroke-width="1.694" rx=".4"/><rect width="18.4" height=".8" x="16" y="24.8" fill="#E3E3E3" stroke="#86C1E9" stroke-width="1.694" rx=".4"/><rect width="6" height=".8" x="38.4" y="16" fill="#E3E3E3" stroke="#86C1E9" stroke-width="1.694" rx=".4"/><defs><filter id="a" width="12.134" height="12.134" x="35.775" y="25.99" color-interpolation-filters="sRGB" filterUnits="userSpaceOnUse"><feFlood flood-opacity="0" result="BackgroundImageFix"/><feBlend in="SourceGraphic" in2="BackgroundImageFix" result="shape"/><feColorMatrix in="SourceAlpha" result="hardAlpha" values="0 0 0 0 0 0 0 0 0 0 0 0 0 0 0 0 0 0 127 0"/><feOffset dy="5.082"/><feComposite in2="hardAlpha" k2="-1" k3="1" operator="arithmetic"/><feColorMatrix values="0 0 0 0 0.760784 0 0 0 0 0.878431 0 0 0 0 0.956863 0 0 0 1 0"/><feBlend in2="shape" result="effect1_innerShadow"/></filter></defs></svg>