<svg xmlns="http://www.w3.org/2000/svg" width="60" height="40" fill="none"><path fill="#fff" d="M48.916 6H12.084A2.084 2.084 0 0 0 10 8.084V31.42c0 1.15.933 2.084 2.084 2.084h36.832A2.084 2.084 0 0 0 51 31.42V8.084A2.084 2.084 0 0 0 48.916 6"/><path stroke="#D7DBE0" stroke-linecap="round" stroke-linejoin="round" stroke-width="1.25" d="M48.916 6H12.084A2.084 2.084 0 0 0 10 8.084V31.42c0 1.15.933 2.084 2.084 2.084h36.832A2.084 2.084 0 0 0 51 31.42V8.084A2.084 2.084 0 0 0 48.916 6"/><path fill="#D7DBE0" stroke="#D7DBE0" stroke-width=".806" d="M16.042 15.11h3.297c.353 0 .639.286.639.639v2.917a.64.64 0 0 1-.639.638h-3.297a.64.64 0 0 1-.639-.638v-2.918c0-.352.286-.638.639-.638Z"/><path fill="#D7DBE0" stroke="#D7DBE0" stroke-linecap="round" stroke-linejoin="round" stroke-width=".806" d="M19.34 14.707h-3.298c-.575 0-1.042.466-1.042 1.041v2.918c0 .575.467 1.041 1.042 1.041h3.297c.575 0 1.042-.466 1.042-1.041v-2.918c0-.575-.467-1.041-1.042-1.041m28.418 12.066h-6.008a.75.75 0 0 0-.751.75v2.922a.75.75 0 0 0 .75.751h6.009a.75.75 0 0 0 .75-.75v-2.923a.75.75 0 0 0-.75-.75"/><path stroke="#D7DBE0" stroke-linecap="round" stroke-linejoin="round" stroke-width=".806" d="M14.979 29.64h5.88m2.337 0h3.722m17.366-17.791a1.05 1.05 0 0 1 0 1.484m1.266-2.75a2.84 2.84 0 0 1 0 4.016m1.294-5.311a4.67 4.67 0 0 1 0 6.608m-32.809 6.268v2.5m1.984-2.5v2.5m1.983-2.5v2.5m1.983-2.5v2.5m3.043-2.5v2.5m1.984-2.5v2.5m1.983-2.5v2.5m1.983-2.5v2.5m3.044-2.5v2.5m1.983-2.5v2.5m3.967-2.5v2.5m-1.984-2.5v2.5m5.027-2.5v2.5m1.983-2.5v2.5m1.983-2.5v2.5m1.984-2.5v2.5"/><path stroke="#D7DBE0" stroke-linecap="round" stroke-linejoin="round" d="M55 3h2.462v2.462H55z"/><path stroke="#D7DBE0" stroke-linecap="round" stroke-linejoin="round" stroke-width=".812" d="m2.083 13.545 1.9 1.9m-.066-1.9-1.9 1.9"/><path stroke="#D7DBE0" stroke-linecap="round" stroke-linejoin="round" d="m54.103 34.103 2.338 2.338m-.082-2.338L54.02 36.44M4 2.74 5.741 1l1.741 1.74-1.74 1.742z"/></svg>