<svg xmlns="http://www.w3.org/2000/svg" width="418" height="202" fill="none"><g filter="url(#a)"><rect width="400" height="184" x="9" y="6" fill="#F7F9FC" rx="4"/><rect width="399" height="183" x="9.5" y="6.5" stroke="#D5D9DE" rx="3.5"/></g><path fill="#fff" stroke="#C0C6CE" d="M25.5 66a3.5 3.5 0 0 1 3.5-3.5h360a3.5 3.5 0 0 1 3.5 3.5v52a3.5 3.5 0 0 1-3.5 3.5H29a3.5 3.5 0 0 1-3.5-3.5z"/><path fill="#213044" d="M88.22 89h1.73v-9.864h-1.744l-2.577 1.811v1.62l2.55-1.75h.04zm10.452.17c2.406 0 3.855-1.168 3.855-3.007v-.007c0-1.538-.895-2.372-2.946-2.796l-1.066-.218c-1.19-.246-1.73-.657-1.73-1.354v-.007c0-.786.718-1.326 1.873-1.333 1.108 0 1.866.513 1.983 1.374l.013.082h1.689l-.007-.116c-.103-1.688-1.511-2.823-3.664-2.823-2.126 0-3.65 1.176-3.657 2.912v.007c0 1.47.957 2.372 2.898 2.775l1.06.219c1.271.266 1.784.663 1.784 1.401v.007c0 .848-.78 1.401-2.024 1.401-1.237 0-2.105-.526-2.235-1.373l-.014-.083h-1.688l.007.103c.116 1.77 1.606 2.837 3.869 2.837m7.472-.026c1.093 0 1.838-.506 2.214-1.279h.035V89h1.702v-7.246h-1.702v4.197c0 1.053-.622 1.757-1.6 1.757-.971 0-1.449-.581-1.449-1.606v-4.348h-1.702v4.682c0 1.682.909 2.708 2.502 2.708m5.352-.144h1.702v-4.436c0-.882.574-1.525 1.395-1.525.793 0 1.285.506 1.285 1.32V89h1.654v-4.478c0-.875.561-1.483 1.381-1.483.834 0 1.299.513 1.299 1.408V89h1.702v-4.977c0-1.449-.936-2.42-2.365-2.42-1.046 0-1.907.561-2.256 1.463h-.041c-.267-.93-.998-1.463-2.01-1.463-.957 0-1.702.52-2.01 1.313h-.034v-1.162h-1.702zm11.785 0h1.702v-4.436c0-.882.575-1.525 1.395-1.525.793 0 1.285.506 1.285 1.32V89h1.654v-4.478c0-.875.561-1.483 1.381-1.483.834 0 1.299.513 1.299 1.408V89h1.702v-4.977c0-1.449-.936-2.42-2.365-2.42-1.046 0-1.907.561-2.256 1.463h-.041c-.266-.93-.998-1.463-2.01-1.463-.957 0-1.702.52-2.009 1.313h-.035v-1.162h-1.702zm14.971.144c1.894 0 2.96-1.122 3.186-2.236l.02-.075h-1.593l-.013.048c-.164.485-.718.936-1.566.936-1.107 0-1.805-.752-1.832-2.023h5.072v-.547c0-2.187-1.285-3.644-3.356-3.644s-3.404 1.504-3.404 3.788v.006c0 2.304 1.312 3.747 3.486 3.747m-.062-6.208c.903 0 1.559.575 1.682 1.723h-3.397c.136-1.114.813-1.723 1.715-1.723M142.627 89h1.702v-4.204c0-1.073.581-1.682 1.545-1.682.287 0 .547.041.69.096v-1.538a2.2 2.2 0 0 0-.54-.069c-.834 0-1.435.527-1.661 1.402h-.034v-1.251h-1.702zm11.252.17c2.406 0 3.855-1.168 3.855-3.007v-.007c0-1.538-.895-2.372-2.946-2.796l-1.066-.218c-1.19-.246-1.73-.657-1.73-1.354v-.007c0-.786.718-1.326 1.873-1.333 1.108 0 1.866.513 1.983 1.374l.013.082h1.689l-.007-.116c-.103-1.688-1.511-2.823-3.664-2.823-2.126 0-3.65 1.176-3.657 2.912v.007c0 1.47.957 2.372 2.898 2.775l1.06.219c1.271.266 1.784.663 1.784 1.401v.007c0 .848-.779 1.401-2.024 1.401-1.237 0-2.105-.526-2.235-1.373l-.014-.083h-1.688l.007.103c.116 1.77 1.606 2.837 3.869 2.837m7.697-.026c.342 0 .643-.035.841-.062v-1.278c-.116.007-.246.027-.41.027-.622 0-.937-.225-.937-.937v-3.828h1.347v-1.312h-1.347v-1.839h-1.729v1.839h-1.026v1.312h1.026v3.972c0 1.49.718 2.106 2.235 2.106m2.01-.144h1.702v-4.204c0-1.073.581-1.682 1.545-1.682.287 0 .547.041.69.096v-1.538a2.2 2.2 0 0 0-.54-.069c-.834 0-1.435.527-1.661 1.402h-.034v-1.251h-1.702zm7.725.144c1.893 0 2.96-1.122 3.185-2.236l.021-.075h-1.593l-.014.048c-.164.485-.718.936-1.565.936-1.108 0-1.805-.752-1.832-2.023h5.072v-.547c0-2.187-1.285-3.644-3.356-3.644-2.072 0-3.405 1.504-3.405 3.788v.006c0 2.304 1.313 3.747 3.487 3.747m-.062-6.208c.902 0 1.559.575 1.682 1.723h-3.398c.137-1.114.814-1.723 1.716-1.723m7.622 6.208c1.894 0 2.96-1.122 3.186-2.236l.02-.075h-1.593l-.013.048c-.164.485-.718.936-1.566.936-1.107 0-1.804-.752-1.832-2.023h5.073v-.547c0-2.187-1.286-3.644-3.357-3.644s-3.404 1.504-3.404 3.788v.006c0 2.304 1.312 3.747 3.486 3.747m-.061-6.208c.902 0 1.558.575 1.681 1.723h-3.397c.136-1.114.813-1.723 1.716-1.723m7.129 6.208c.342 0 .643-.035.841-.062v-1.278c-.116.007-.246.027-.41.027-.622 0-.936-.225-.936-.937v-3.828h1.346v-1.312h-1.346v-1.839h-1.73v1.839h-1.025v1.312h1.025v3.972c0 1.49.718 2.106 2.235 2.106m1.586 1.873h1.19l.998-3.623h-1.648zM193.384 89h4.136c2.105 0 3.383-1.066 3.383-2.79v-.013c0-1.299-.943-2.27-2.331-2.392v-.035c1.06-.143 1.86-1.093 1.86-2.153v-.014c0-1.497-1.156-2.467-2.953-2.467h-4.095zm3.65-8.49c1.046 0 1.654.478 1.654 1.333v.013c0 .93-.683 1.45-1.955 1.45h-1.586V80.51zm-.02 4.074c1.381 0 2.091.52 2.091 1.51v.014c0 .992-.697 1.518-1.989 1.518h-1.969v-3.042zm8.182 4.56c2.126 0 3.507-1.416 3.507-3.767v-.014c0-2.338-1.401-3.76-3.514-3.76-2.105 0-3.5 1.436-3.5 3.76v.014c0 2.345 1.374 3.767 3.507 3.767m.007-1.375c-1.087 0-1.777-.868-1.777-2.392v-.014c0-1.504.704-2.379 1.763-2.379 1.081 0 1.778.869 1.778 2.38v.013c0 1.517-.691 2.392-1.764 2.392m7.424 1.375c1.777 0 3.042-.916 3.042-2.284v-.007c0-1.052-.581-1.64-2.078-1.975l-1.21-.267c-.752-.17-1.032-.444-1.032-.861v-.007c0-.533.471-.882 1.223-.882.793 0 1.258.424 1.333 1.005l.007.055h1.586l-.007-.075c-.061-1.251-1.114-2.243-2.919-2.243-1.75 0-2.905.896-2.905 2.222v.007c0 1.073.697 1.75 2.085 2.058l1.203.266c.752.171 1.005.417 1.005.855v.007c0 .533-.499.868-1.326.868-.862 0-1.333-.37-1.463-.992l-.014-.061h-1.675l.007.061c.151 1.347 1.238 2.25 3.138 2.25m6.822 0c.342 0 .643-.035.841-.062v-1.278c-.116.007-.246.027-.41.027-.622 0-.937-.225-.937-.937v-3.828h1.347v-1.312h-1.347v-1.839h-1.729v1.839h-1.026v1.312h1.026v3.972c0 1.49.718 2.106 2.235 2.106m5.079 0c2.126 0 3.507-1.416 3.507-3.767v-.014c0-2.338-1.401-3.76-3.514-3.76-2.105 0-3.5 1.436-3.5 3.76v.014c0 2.345 1.375 3.767 3.507 3.767m.007-1.375c-1.087 0-1.777-.868-1.777-2.392v-.014c0-1.504.704-2.379 1.763-2.379 1.081 0 1.778.869 1.778 2.38v.013c0 1.517-.691 2.392-1.764 2.392M229.129 89h1.702v-4.204c0-1.046.622-1.757 1.6-1.757.97 0 1.449.581 1.449 1.613V89h1.702v-4.69c0-1.681-.909-2.707-2.502-2.707-1.101 0-1.839.506-2.215 1.286h-.034v-1.135h-1.702zm7.396 2.017h1.19l.998-3.623h-1.648zM242.384 89h1.593v-7.014h.047L246.868 89h1.196l2.844-7.014h.055V89h1.586v-9.864h-2.037l-3.022 7.533h-.048l-3.021-7.533h-2.037zm11.224 0h1.846l.834-2.55h3.671l.834 2.55h1.853l-3.528-9.864h-1.982zm4.498-8.107h.041l1.368 4.197h-2.783z"/><path fill="#2C405A" d="M88.07 107.164c1.825 0 2.905-1.107 2.905-2.974v-7.054h-1.23v7.041c0 1.203-.589 1.852-1.683 1.852-.977 0-1.462-.622-1.538-1.367l-.006-.068h-1.23l.006.095c.103 1.415 1.066 2.475 2.775 2.475m6.576-.027c.95 0 1.804-.513 2.221-1.292h.027V107h1.19v-4.915c0-1.422-1.053-2.331-2.734-2.331-1.675 0-2.694.943-2.796 2.112l-.007.075h1.148l.014-.061c.137-.636.71-1.073 1.627-1.073.991 0 1.558.526 1.558 1.394v.595l-2.037.116c-1.633.096-2.577.855-2.577 2.065v.013c0 1.292.95 2.147 2.365 2.147m-1.149-2.147v-.013c0-.664.547-1.087 1.497-1.142l1.9-.116v.581c0 1.032-.86 1.804-1.982 1.804-.854 0-1.415-.43-1.415-1.114m6.098 2.01h1.189v-4.184c0-1.21.732-2.009 1.853-2.009 1.093 0 1.634.635 1.634 1.791V107h1.189v-4.614c0-1.62-.902-2.632-2.461-2.632-1.08 0-1.805.485-2.187 1.148h-.028v-1.011h-1.19zm10.308.137c1.552 0 2.714-.93 2.947-2.106l.013-.068h-1.169l-.02.061c-.205.609-.841 1.06-1.743 1.06-1.265 0-2.072-.855-2.099-2.317h5.12v-.438c0-2.133-1.182-3.575-3.124-3.575-1.941 0-3.199 1.511-3.199 3.712v.007c0 2.235 1.23 3.664 3.274 3.664m-.082-6.33c1.039 0 1.805.649 1.921 2.03h-3.889c.129-1.326.936-2.03 1.968-2.03m7.39 6.193h3.315c2.933 0 4.656-1.825 4.656-4.936v-.013c0-3.097-1.737-4.915-4.656-4.915h-3.315zm1.23-1.107v-7.65h2.003c2.236 0 3.48 1.36 3.48 3.821v.014c0 2.447-1.244 3.815-3.48 3.815zm11.034 1.244c1.962 0 3.288-1.422 3.288-3.692v-.013c0-2.27-1.333-3.678-3.295-3.678s-3.288 1.415-3.288 3.678v.013c0 2.263 1.319 3.692 3.295 3.692m.006-1.053c-1.257 0-2.085-.964-2.085-2.639v-.013c0-1.661.834-2.625 2.072-2.625 1.258 0 2.078.957 2.078 2.625v.013c0 1.668-.814 2.639-2.065 2.639m7.411 1.053c1.551 0 2.713-.93 2.946-2.106l.014-.068h-1.169l-.021.061c-.205.609-.841 1.06-1.743 1.06-1.265 0-2.071-.855-2.099-2.317h5.12v-.438c0-2.133-1.182-3.575-3.124-3.575-1.941 0-3.199 1.511-3.199 3.712v.007c0 2.235 1.231 3.664 3.275 3.664m-.082-6.33c1.039 0 1.804.649 1.92 2.03h-3.889c.13-1.326.936-2.03 1.969-2.03"/><g clip-path="url(#b)"><rect width="36" height="36" x="37" y="74.2" fill="#E7F7F2" rx="4"/><g clip-path="url(#c)"><path fill="#008A63" d="M63.15 84.04a.5.5 0 0 1-.4-.489V82a2 2 0 0 0-2-2h-12.5a3 3 0 0 0-3 3v18a3 3 0 0 0 3 3h14.5a2 2 0 0 0 2-2V86a2 2 0 0 0-1.6-1.96M47.25 83a1 1 0 0 1 1-1H60.5a.25.25 0 0 1 .25.25v1.5a.25.25 0 0 1-.25.25H48.25a1 1 0 0 1-1-1m13.574 16.984a.5.5 0 0 1-.384.18H49.56a.5.5 0 0 1-.493-.588c.09-.52.253-1.026.486-1.5.447-.896 1.572-1.446 3.628-2.208a1.08 1.08 0 0 0-.008-.749 5.18 5.18 0 0 1-1.115-3.575 2.945 2.945 0 1 1 5.884 0 5.2 5.2 0 0 1-1.132 3.6 1.04 1.04 0 0 0 .026.737c2.039.751 3.164 1.3 3.611 2.2.233.474.396.98.486 1.5a.5.5 0 0 1-.109.403"/></g></g><path fill="#3B70D4" d="M339.298 97h6.385v-1.483h-4.621v-2.824h4.368v-1.401h-4.368v-2.673h4.621v-1.483h-6.385zm11.088.123c1.052 0 1.859-.479 2.269-1.292h.116V97h1.709V86.637h-1.709v4.08h-.116c-.389-.806-1.244-1.312-2.269-1.312-1.894 0-3.063 1.477-3.063 3.856v.013c0 2.366 1.19 3.849 3.063 3.849m.533-1.436c-1.162 0-1.866-.909-1.866-2.413v-.013c0-1.504.711-2.42 1.866-2.42s1.88.923 1.88 2.42v.013c0 1.498-.718 2.413-1.88 2.413m6.576-7.41c.554 0 1.012-.444 1.012-1.005 0-.553-.458-1.004-1.012-1.004-.56 0-1.018.45-1.018 1.004a1.01 1.01 0 0 0 1.018 1.005M356.641 97h1.702v-7.472h-1.702zm6.733.034c.328 0 .643-.027.889-.075v-1.312c-.205.02-.335.027-.575.027-.71 0-1.004-.315-1.004-1.06v-3.766h1.579v-1.32h-1.579v-1.832h-1.73v1.832h-1.162v1.32h1.162v4.17c0 1.442.704 2.016 2.42 2.016"/><path fill="#40526D" d="M25.237 40h2.373l1.073-3.278h4.72L34.474 40h2.381L32.32 27.317h-2.548zm5.784-10.424h.052l1.758 5.397h-3.577zm10.373 10.609c1.345 0 2.373-.668 2.9-1.767h.053V40h2.189V27.317h-2.189v4.966h-.052c-.528-1.116-1.591-1.793-2.91-1.793-2.337 0-3.84 1.837-3.84 4.843v.009c0 2.997 1.494 4.843 3.85 4.843m.66-1.846c-1.407 0-2.277-1.143-2.277-2.997v-.009c0-1.855.879-2.997 2.276-2.997 1.345 0 2.294 1.178 2.294 2.997v.009c0 1.828-.94 2.997-2.294 2.997m10.022 1.846c1.344 0 2.373-.668 2.9-1.767h.053V40h2.188V27.317H55.03v4.966h-.053c-.527-1.116-1.59-1.793-2.91-1.793-2.337 0-3.84 1.837-3.84 4.843v.009c0 2.997 1.494 4.843 3.85 4.843m.659-1.846c-1.406 0-2.276-1.143-2.276-2.997v-.009c0-1.855.878-2.997 2.276-2.997 1.345 0 2.294 1.178 2.294 2.997v.009c0 1.828-.94 2.997-2.294 2.997M66.6 40.185c.44 0 .826-.044 1.08-.08v-1.643c-.149.009-.316.035-.527.035-.8 0-1.204-.29-1.204-1.204v-4.922h1.732v-1.687H65.95v-2.365h-2.223v2.365h-1.319v1.687h1.319v5.106c0 1.917.923 2.708 2.874 2.708m6.77 0c2.733 0 4.509-1.82 4.509-4.843v-.018c0-3.006-1.802-4.834-4.518-4.834-2.707 0-4.5 1.846-4.5 4.834v.018c0 3.014 1.767 4.843 4.509 4.843m.009-1.767c-1.398 0-2.285-1.116-2.285-3.076v-.018c0-1.933.905-3.058 2.267-3.058 1.389 0 2.285 1.116 2.285 3.058v.018c0 1.951-.887 3.076-2.267 3.076M83.59 40h8.024v-1.907h-5.757V27.317h-2.268zm12.42.158c1.231 0 2.268-.615 2.804-1.59h.053V40h2.189v-6.407c0-1.872-1.503-3.103-3.832-3.103-2.365 0-3.797 1.24-3.929 2.892l-.009.105h2.03l.018-.079c.14-.685.773-1.169 1.81-1.169 1.108 0 1.723.572 1.723 1.512v.642l-2.434.149c-2.26.14-3.542 1.134-3.542 2.786v.018c0 1.66 1.256 2.812 3.12 2.812m-.94-2.9v-.009c0-.738.59-1.204 1.67-1.274l2.127-.132v.703c0 1.107-.949 1.942-2.206 1.942-.958 0-1.59-.465-1.59-1.23m11.631 2.927c2.285 0 3.911-1.178 3.911-2.936v-.009c0-1.353-.747-2.11-2.672-2.54l-1.555-.343c-.967-.22-1.328-.57-1.328-1.107v-.009c0-.685.607-1.134 1.574-1.134 1.019 0 1.617.545 1.714 1.292l.008.07h2.039l-.008-.096c-.079-1.608-1.433-2.883-3.753-2.883-2.25 0-3.736 1.152-3.736 2.857v.008c0 1.38.897 2.25 2.681 2.646l1.547.343c.967.22 1.292.536 1.292 1.098v.01c0 .685-.642 1.115-1.705 1.115-1.108 0-1.714-.474-1.881-1.274l-.018-.08h-2.153l.009.08c.193 1.731 1.591 2.892 4.034 2.892m9.012 0a8 8 0 0 0 1.081-.08v-1.643c-.15.009-.317.035-.528.035-.8 0-1.204-.29-1.204-1.204v-4.922h1.732v-1.687h-1.732v-2.365h-2.224v2.365h-1.318v1.687h1.318v5.106c0 1.917.923 2.708 2.875 2.708m3.043-.185h2.268v-4.192h2.619c2.566 0 4.315-1.706 4.315-4.237v-.017c0-2.54-1.749-4.237-4.315-4.237h-4.887zm4.324-10.828c1.626 0 2.576.87 2.576 2.39v.018c0 1.52-.95 2.4-2.576 2.4h-2.056v-4.808zm8.625 10.986c1.231 0 2.268-.615 2.804-1.59h.053V40h2.188v-6.407c0-1.872-1.503-3.103-3.832-3.103-2.364 0-3.797 1.24-3.929 2.892l-.008.105h2.03l.017-.079c.141-.685.774-1.169 1.811-1.169 1.107 0 1.723.572 1.723 1.512v.642l-2.435.149c-2.259.14-3.542 1.134-3.542 2.786v.018c0 1.66 1.257 2.812 3.12 2.812m-.94-2.9v-.009c0-.738.589-1.204 1.67-1.274l2.127-.132v.703c0 1.107-.95 1.942-2.206 1.942-.958 0-1.591-.465-1.591-1.23m11.63 2.927c2.286 0 3.912-1.178 3.912-2.936v-.009c0-1.353-.748-2.11-2.672-2.54l-1.556-.343c-.967-.22-1.327-.57-1.327-1.107v-.009c0-.685.606-1.134 1.573-1.134 1.02 0 1.617.545 1.714 1.292l.009.07h2.039l-.009-.096c-.079-1.608-1.433-2.883-3.753-2.883-2.25 0-3.735 1.152-3.735 2.857v.008c0 1.38.896 2.25 2.68 2.646l1.547.343c.967.22 1.292.536 1.292 1.098v.01c0 .685-.641 1.115-1.705 1.115-1.107 0-1.714-.474-1.881-1.274l-.017-.08h-2.154l.009.08c.194 1.731 1.591 2.892 4.034 2.892m9.188 0c2.285 0 3.911-1.178 3.911-2.936v-.009c0-1.353-.747-2.11-2.672-2.54l-1.556-.343c-.967-.22-1.327-.57-1.327-1.107v-.009c0-.685.607-1.134 1.573-1.134 1.02 0 1.618.545 1.714 1.292l.009.07h2.039l-.009-.096c-.079-1.608-1.432-2.883-3.753-2.883-2.25 0-3.735 1.152-3.735 2.857v.008c0 1.38.896 2.25 2.681 2.646l1.547.343c.966.22 1.292.536 1.292 1.098v.01c0 .685-.642 1.115-1.706 1.115-1.107 0-1.713-.474-1.88-1.274l-.018-.08h-2.153l.008.08c.194 1.731 1.591 2.892 4.035 2.892m7.869-4.22h2.047v-.439c0-.861.326-1.327 1.477-1.995 1.195-.712 1.863-1.652 1.863-2.988v-.009c0-1.942-1.617-3.322-4.016-3.322-2.611 0-4.008 1.512-4.105 3.48l-.009.097h2.066l.009-.079c.079-1.002.791-1.705 1.924-1.705 1.099 0 1.846.668 1.846 1.608v.01c0 .86-.369 1.335-1.459 1.994-1.213.712-1.705 1.512-1.643 2.734zm1.054 4.132c.712 0 1.275-.545 1.275-1.24 0-.703-.563-1.239-1.275-1.239s-1.283.536-1.283 1.24c0 .694.571 1.239 1.283 1.239"/><path fill="#D32D27" fill-rule="evenodd" d="M121.729 150.576a.636.636 0 0 1 1.271 0v10.233a.635.635 0 1 1-1.271 0zm-20.337 7.545a2.167 2.167 0 0 0 2.161-2.173c0-1.2-.968-2.173-2.161-2.173a2.167 2.167 0 0 0-2.161 2.173c0 1.2.967 2.173 2.161 2.173m7.245 0a2.167 2.167 0 0 0 2.161-2.173c0-1.2-.968-2.173-2.161-2.173a2.167 2.167 0 0 0-2.161 2.173c0 1.2.968 2.173 2.161 2.173m7.245 0a2.167 2.167 0 0 0 2.161-2.173c0-1.2-.968-2.173-2.161-2.173a2.167 2.167 0 0 0-2.161 2.173c0 1.2.968 2.173 2.161 2.173m-20.098-.075q.014.772-.27 1.357t-.796.97a3.6 3.6 0 0 1-1.215.582q-.702.195-1.525.21a12 12 0 0 1-2.06-.157 7 7 0 0 1-1.023-.243 5 5 0 0 1-.907-.381q-.297-.149-.145-.461l.45-1.09q.094-.175.191-.225t.314.043q.708.316 1.572.484a7.3 7.3 0 0 0 1.527.157q.821-.014 1.225-.34a1 1 0 0 0 .396-.828q-.009-.56-.543-.879-.533-.32-1.595-.687a14 14 0 0 1-1.407-.556 4.1 4.1 0 0 1-.998-.629 2.5 2.5 0 0 1-.61-.792 2.4 2.4 0 0 1-.223-1.02 2.8 2.8 0 0 1 .216-1.172q.226-.536.683-.93a3.4 3.4 0 0 1 1.14-.629q.684-.234 1.583-.249a9.4 9.4 0 0 1 1.644.116 8 8 0 0 1 1.59.426q.159.075.19.19a.55.55 0 0 1-.006.271l-.43 1.109q-.056.155-.143.176a.47.47 0 0 1-.245-.034 8 8 0 0 0-1.345-.344 7.5 7.5 0 0 0-1.242-.075q-.723.012-1.05.318-.327.304-.32.672.003.27.115.462.111.19.348.351t.621.327q.385.168.935.351.63.221 1.23.471.6.251 1.066.61.466.358.757.856.293.498.305 1.212m-9.04 1.357q-.285.585-.796.97a3.6 3.6 0 0 1-1.215.582q-.702.195-1.525.21-.47.008-1-.031a12 12 0 0 1-1.06-.126 7 7 0 0 1-1.023-.243 5 5 0 0 1-.907-.381q-.297-.149-.145-.461l.45-1.09q.094-.175.191-.225t.314.043q.708.316 1.572.484a7.3 7.3 0 0 0 1.527.157q.821-.014 1.225-.34a1 1 0 0 0 .396-.828q-.009-.56-.543-.879-.533-.32-1.595-.687a14 14 0 0 1-1.407-.556 4.1 4.1 0 0 1-.998-.629 2.5 2.5 0 0 1-.61-.792 2.4 2.4 0 0 1-.223-1.02 2.8 2.8 0 0 1 .216-1.172q.227-.536.683-.93a3.4 3.4 0 0 1 1.14-.629q.684-.234 1.583-.249a9.4 9.4 0 0 1 1.644.116 8 8 0 0 1 1.59.426q.158.075.19.19.03.115-.005.271l-.43 1.109q-.057.155-.144.176a.47.47 0 0 1-.245-.034 8 8 0 0 0-1.345-.344 7.5 7.5 0 0 0-1.242-.075q-.724.012-1.05.318-.327.304-.32.672a.94.94 0 0 0 .115.462q.111.19.348.351.238.16.622.327.383.168.934.351.63.221 1.23.471.6.251 1.066.61.465.358.757.856.293.498.305 1.212.014.772-.27 1.357m-9.02 1.125q.37-.177.371-.649v-5.892q0-1.728-.948-2.632-.947-.904-2.98-.904c-.573 0-1.728.19-2.275.399q-.254.099-.176.413l.274 1.119q.04.177.137.216t.312-.019a5.2 5.2 0 0 1 1.357-.222q.626 0 1.016.127.39.128.616.364.224.235.303.55.078.313.078.687v.334H73.62q-1.172 0-1.983.295-.81.295-1.32.775a2.8 2.8 0 0 0-.732 1.12q-.225.639-.225 1.326 0 .667.196 1.267.195.599.694 1.041t1.348.707 2.14.265q.468 0 .986-.029.519-.03 1.046-.108a9 9 0 0 0 1.026-.216q.498-.138.928-.334m-3.81-4.361h1.875v2.888q-.254.097-.557.157-.302.059-.576.098a5 5 0 0 1-.518.049q-.245.01-.38.01-.939 0-1.506-.334-.566-.335-.566-1.179 0-.588.224-.923.226-.334.567-.511.343-.175.723-.216.381-.039.713-.039m-10.446 4.604q0 .291-.093.363c-.062.049-.317.073-.509.073h-1.292a.63.63 0 0 1-.35-.083q-.124-.083-.124-.353V148.45c0-.157.035-.426.062-.553.04-.185.038-.25.135-.369q.157-.19.48-.26c.125-.027.19 0 .35 0h3.926q1.03 0 1.887.321.855.322 1.464.913.608.59.948 1.411.34.819.34 1.794 0 .56-.175 1.338a4.1 4.1 0 0 1-.701 1.504q-.525.727-1.474 1.234-.95.509-2.495.509h-2.38zm4.754-9.666a2.05 2.05 0 0 0-.392-.757 2.1 2.1 0 0 0-.773-.57q-.496-.228-1.257-.229h-2.463v4.606h2.504q1.299 0 1.897-.643.597-.643.598-1.639a3 3 0 0 0-.114-.768" clip-rule="evenodd"/><path fill="#1B283C" fill-rule="evenodd" d="M58.952 160.773q-.665.216-1.329.256a19 19 0 0 1-1.035.039q-1.604 0-2.267-.688-.665-.688-.665-2.103l.051-5.581H52.27c-.133 0-.2-.034-.255-.093s-.083-.115-.058-.211.382-1.041.382-1.041c.021-.034.117-.255.14-.286.04-.053.097-.089.251-.089h.962v-1.903c0-.26.12-.306.178-.359a1 1 0 0 1 .303-.157l1.4-.392q.156-.04.254.029.097.069.097.285v2.497h1.964q.214 0 .264.089a.46.46 0 0 1 .049.226v1.071a.5.5 0 0 1-.05.255q-.048.08-.263.079h-1.964v5.286q0 .628.293.865.293.236.9.236.116 0 .312-.01a10 10 0 0 0 .81-.079l.343-.049q.195-.04.254.01.06.05.078.187l.215 1.258a.8.8 0 0 1 .01.206q-.01.089-.186.167m-7.275-2.855q.014.773-.27 1.357t-.797.971a3.6 3.6 0 0 1-1.214.581q-.702.196-1.525.21-.47.008-1-.031a12 12 0 0 1-1.06-.126 7 7 0 0 1-1.023-.243 5 5 0 0 1-.907-.38q-.297-.15-.145-.462l.45-1.089q.094-.177.191-.226.098-.05.314.043.708.316 1.572.485a7.4 7.4 0 0 0 1.527.156q.821-.014 1.225-.34a1 1 0 0 0 .396-.828q-.009-.56-.543-.879-.533-.32-1.595-.687a15 15 0 0 1-1.407-.555 4.1 4.1 0 0 1-.998-.63 2.5 2.5 0 0 1-.61-.791 2.4 2.4 0 0 1-.223-1.021 2.8 2.8 0 0 1 .216-1.172q.227-.535.683-.93a3.4 3.4 0 0 1 1.14-.629q.684-.233 1.583-.249a9.4 9.4 0 0 1 1.644.116 8 8 0 0 1 1.59.426q.157.075.19.19.03.115-.005.271l-.43 1.109q-.057.156-.144.176a.46.46 0 0 1-.245-.034 8 8 0 0 0-1.345-.344 7.5 7.5 0 0 0-1.242-.075q-.724.012-1.05.318t-.32.672q.003.27.115.462.111.19.348.351t.622.327q.383.168.934.351.63.222 1.23.471.6.251 1.066.61.465.359.758.856.291.498.304 1.212m-8.918 1.842q0 .472-.372.649a6 6 0 0 1-.928.334 9 9 0 0 1-1.026.217q-.528.078-1.045.108-.519.029-.987.029-1.29 0-2.14-.265-.85-.266-1.348-.708a2.35 2.35 0 0 1-.694-1.042q-.195-.6-.196-1.268 0-.688.225-1.327.225-.638.733-1.121.508-.482 1.32-.776.81-.295 1.983-.295h2.188v-.334q0-.374-.078-.688a1.2 1.2 0 0 0-.303-.551 1.5 1.5 0 0 0-.615-.364q-.392-.127-1.017-.127-.664 0-1.446.117a8 8 0 0 0-1.27.276q-.215.059-.313.019-.097-.039-.136-.216l-.274-1.12q-.078-.315.176-.413a8 8 0 0 1 1.798-.443 14 14 0 0 1 1.837-.127q2.032 0 2.98.904t.948 2.634zm-2.306-3.715h-1.876q-.333 0-.714.039a2 2 0 0 0-.722.216 1.5 1.5 0 0 0-.567.511q-.225.335-.225.924 0 .846.567 1.18.566.334 1.504.334.136 0 .382-.01.244-.009.517-.049.274-.04.577-.098a3.3 3.3 0 0 0 .557-.157zm-15.338-8.96q.116-.085.369-.085h1.58q.295 0 .4.074.106.075.106.371v9.815q0 .828.411 1.167t1.128.339h3.694c.155 0 .332.013.438.103.106.089.082.144.152.373.07.228.21 1.322.21 1.322 0 .112 0 .195-.072.27-.073.075-.224.136-.344.169q-.182.052-.698.053h-3.78q-1.097 0-1.813-.318-.717-.318-1.138-.849a3.1 3.1 0 0 1-.59-1.208A6 6 0 0 1 25 157.26v-9.815q0-.274.116-.36" clip-rule="evenodd"/><path fill="#40526D" d="M197.368 161h1.702v-6.795h.11l4.846 6.795h1.525v-9.864h-1.696v6.795h-.109l-4.847-6.795h-1.531zm13.672.15c2.235 0 3.596-1.462 3.596-3.882v-.014c0-2.406-1.367-3.869-3.596-3.869-2.222 0-3.596 1.469-3.596 3.869v.014c0 2.42 1.354 3.882 3.596 3.882m0-1.38c-1.183 0-1.859-.923-1.859-2.496v-.013c0-1.573.676-2.502 1.859-2.502 1.176 0 1.853.929 1.853 2.502v.013c0 1.573-.67 2.496-1.853 2.496m8.244 1.264c.328 0 .643-.027.889-.075v-1.313a5 5 0 0 1-.574.028c-.711 0-1.005-.315-1.005-1.06v-3.766h1.579v-1.32h-1.579v-1.832h-1.73v1.832h-1.162v1.32h1.162v4.17c0 1.442.704 2.016 2.42 2.016m6.317-.034h1.702v-4.354c0-1.122.629-1.833 1.64-1.833 1.033 0 1.504.588 1.504 1.75V161h1.702v-4.833c0-1.777-.909-2.782-2.577-2.782-1.08 0-1.798.485-2.153 1.285h-.116v-1.142h-1.702zm11.785.15c2.235 0 3.595-1.462 3.595-3.882v-.014c0-2.406-1.367-3.869-3.595-3.869-2.222 0-3.596 1.469-3.596 3.869v.014c0 2.42 1.354 3.882 3.596 3.882m0-1.38c-1.183 0-1.86-.923-1.86-2.496v-.013c0-1.573.677-2.502 1.86-2.502 1.176 0 1.852.929 1.852 2.502v.013c0 1.573-.67 2.496-1.852 2.496m6.426 1.23h1.763l1.449-5.414h.117l1.456 5.414h1.784l2.023-7.472h-1.688l-1.237 5.613h-.117l-1.449-5.613h-1.62l-1.436 5.613h-.116l-1.244-5.613h-1.709z"/><path fill="#D32D27" d="M277 142a4 4 0 0 1 4-4h108a4 4 0 0 1 4 4v28a4 4 0 0 1-4 4H281a4 4 0 0 1-4-4z"/><path fill="#fff" d="M293.69 161h1.846l.82-2.55h3.651l.827 2.55h1.846l-3.5-9.864h-1.99zm4.437-8.032h.116l1.326 4.122h-2.768zm8.353 8.155c1.053 0 1.86-.478 2.27-1.292h.116V161h1.709v-10.363h-1.709v4.081h-.116c-.39-.807-1.244-1.313-2.27-1.313-1.893 0-3.062 1.477-3.062 3.856v.013c0 2.366 1.189 3.849 3.062 3.849m.534-1.435c-1.162 0-1.867-.91-1.867-2.414v-.013c0-1.504.711-2.42 1.867-2.42 1.155 0 1.88.923 1.88 2.42v.013c0 1.497-.718 2.414-1.88 2.414m8.394 1.435c1.053 0 1.86-.478 2.27-1.292h.116V161h1.709v-10.363h-1.709v4.081h-.116c-.39-.807-1.244-1.313-2.27-1.313-1.893 0-3.062 1.477-3.062 3.856v.013c0 2.366 1.189 3.849 3.062 3.849m.533-1.435c-1.162 0-1.866-.91-1.866-2.414v-.013c0-1.504.711-2.42 1.866-2.42s1.88.923 1.88 2.42v.013c0 1.497-.717 2.414-1.88 2.414m12.64 1.462c1.894 0 2.994-1.018 3.24-2.549l.014-.055-1.606.007-.014.027c-.212.786-.752 1.19-1.634 1.19-1.155 0-1.846-.93-1.846-2.516v-.014c0-1.565.684-2.481 1.846-2.481.93 0 1.483.519 1.641 1.244l.007.02h1.606v-.027c-.191-1.545-1.34-2.611-3.261-2.611-2.249 0-3.568 1.442-3.568 3.855v.014c0 2.44 1.326 3.896 3.575 3.896m8.101 0c2.235 0 3.595-1.462 3.595-3.882v-.014c0-2.406-1.367-3.869-3.595-3.869-2.222 0-3.596 1.469-3.596 3.869v.014c0 2.42 1.353 3.882 3.596 3.882m0-1.38c-1.183 0-1.86-.923-1.86-2.496v-.013c0-1.573.677-2.502 1.86-2.502 1.175 0 1.852.929 1.852 2.502v.013c0 1.573-.67 2.496-1.852 2.496m5.304 1.23h1.702v-4.354c0-1.122.629-1.833 1.641-1.833 1.032 0 1.504.588 1.504 1.75V161h1.702v-4.833c0-1.777-.909-2.782-2.577-2.782-1.08 0-1.798.485-2.153 1.285h-.117v-1.142h-1.702zm11.498.034c.328 0 .643-.027.889-.075v-1.313a5 5 0 0 1-.574.028c-.711 0-1.005-.315-1.005-1.06v-3.766h1.579v-1.32h-1.579v-1.832h-1.73v1.832h-1.162v1.32h1.162v4.17c0 1.442.705 2.016 2.42 2.016m4.621.089c.985 0 1.778-.424 2.188-1.148h.116V161h1.682v-5.106c0-1.58-1.08-2.509-3.001-2.509-1.778 0-2.981.834-3.145 2.092l-.007.061h1.607l.007-.027c.171-.492.677-.773 1.456-.773.916 0 1.401.41 1.401 1.156v.642l-1.921.116c-1.818.11-2.837.889-2.837 2.222v.014c0 1.36 1.033 2.235 2.454 2.235m-.772-2.317v-.014c0-.615.444-.964 1.395-1.025l1.681-.11v.602c0 .888-.759 1.558-1.784 1.558-.752 0-1.292-.376-1.292-1.011m10.008 2.344c1.893 0 2.994-1.018 3.24-2.549l.014-.055-1.607.007-.013.027c-.212.786-.752 1.19-1.634 1.19-1.155 0-1.846-.93-1.846-2.516v-.014c0-1.565.684-2.481 1.846-2.481.93 0 1.483.519 1.64 1.244l.007.02h1.607v-.027c-.192-1.545-1.34-2.611-3.261-2.611-2.249 0-3.568 1.442-3.568 3.855v.014c0 2.44 1.326 3.896 3.575 3.896m7.909-.116c.328 0 .643-.027.889-.075v-1.313a5 5 0 0 1-.575.028c-.71 0-1.004-.315-1.004-1.06v-3.766h1.579v-1.32h-1.579v-1.832h-1.73v1.832h-1.162v1.32h1.162v4.17c0 1.442.704 2.016 2.42 2.016"/><defs><clipPath id="b"><path fill="#fff" d="M37 74h36v36H37z"/></clipPath><clipPath id="c"><path fill="#fff" d="M43 80h24v24H43z"/></clipPath><filter id="a" width="418" height="202" x="0" y="0" color-interpolation-filters="sRGB" filterUnits="userSpaceOnUse"><feFlood flood-opacity="0" result="BackgroundImageFix"/><feColorMatrix in="SourceAlpha" values="0 0 0 0 0 0 0 0 0 0 0 0 0 0 0 0 0 0 127 0"/><feOffset dy="3"/><feGaussianBlur stdDeviation="4.5"/><feColorMatrix values="0 0 0 0 0 0 0 0 0 0 0 0 0 0 0 0 0 0 0.3 0"/><feBlend in2="BackgroundImageFix" result="effect1_dropShadow"/><feBlend in="SourceGraphic" in2="effect1_dropShadow" result="shape"/></filter></defs></svg>