<svg xmlns="http://www.w3.org/2000/svg" width="60" height="40" fill="none"><path stroke="#CACCEE" stroke-linecap="round" d="M48.104 2.104 50.48 4.48m-.084-2.376L48.02 4.48"/><path stroke="#CACCEE" stroke-linecap="round" stroke-linejoin="round" d="M2 5h2.5v2.5H2z"/><path stroke="#CACCEE" stroke-linecap="round" stroke-linejoin="round" d="M54 5.768 55.768 4l1.767 1.768-1.767 1.767z" clip-rule="evenodd"/><path stroke="#CACCEE" d="M53.25 13.5a1.25 1.25 0 1 0 0-2.5 1.25 1.25 0 0 0 0 2.5Z" clip-rule="evenodd"/><path fill="#fff" d="M43.988 32.48a.57.57 0 0 1-.443.68L26.88 36.678 20.514 6.53 37.18 3.012a.573.573 0 0 1 .68.443zm-17.109 4.198-3.183.673a1.146 1.146 0 0 1-1.358-.884L16.444 8.562a1.144 1.144 0 0 1 .884-1.358l3.186-.673z"/><path fill="#B5D9F1" d="M16.983 11.116c.187-.168.415-.284.66-.337l3.609-.761-.736-3.487-3.186.673a1.146 1.146 0 0 0-.885 1.358z"/><path stroke="#264887" stroke-linecap="round" stroke-linejoin="round" stroke-width="1.25" d="m26.879 36.678-3.183.673a1.146 1.146 0 0 1-1.358-.884L16.444 8.562a1.144 1.144 0 0 1 .884-1.358l3.186-.673z"/><path fill="#264887" d="M30.73 16.078a1.603 1.603 0 0 0 .382-2.24l-1.395-1.968a1.61 1.61 0 0 0-2.24-.382l-1.08.765a2.406 2.406 0 0 0-.811 2.941 37.3 37.3 0 0 0 8.55 12.053 2.41 2.41 0 0 0 3.042.21l1.079-.765a1.606 1.606 0 0 0 .381-2.241l-1.395-1.964a1.607 1.607 0 0 0-2.241-.381l-.655.464a38 38 0 0 1-4.274-6.024z"/><path fill="#fff" stroke="#264887" stroke-linecap="round" stroke-linejoin="round" stroke-width="1.25" d="M15.322 12.127a1.1 1.1 0 0 1-.455-2.154l2.87-.605a1.1 1.1 0 0 1 .456 2.154zm1.213 5.742a1.1 1.1 0 0 1-1.321-1.28 1.1 1.1 0 0 1 .867-.873l2.87-.607a1.1 1.1 0 1 1 .455 2.154zm1.212 5.743a1.1 1.1 0 0 1-.455-2.154l2.871-.606a1.1 1.1 0 0 1 .455 2.153zm1.213 5.741a1.1 1.1 0 1 1-.455-2.153l2.871-.606a1.1 1.1 0 0 1 .454 2.153zm1.212 5.743a1.101 1.101 0 0 1-.455-2.154l2.871-.606a1.101 1.101 0 0 1 .455 2.153z"/><path fill="#B5D9F1" d="m38.44 6.207-17.19 3.81-.736-3.486L37.18 3.012a.573.573 0 0 1 .68.443z"/><path stroke="#264887" stroke-linecap="round" stroke-linejoin="round" stroke-width="1.25" d="M43.988 32.48a.57.57 0 0 1-.443.68L26.88 36.678 20.514 6.53 37.18 3.012a.573.573 0 0 1 .68.443z"/></svg>