<svg xmlns="http://www.w3.org/2000/svg" width="140" height="40" fill="none"><path fill="#000" d="M140 35.99c0 2.216-1.802 4.01-4.031 4.01H4.037C1.809 40 0 38.206 0 35.99V4.015C0 1.8 1.809 0 4.037 0h131.93c2.231 0 4.032 1.8 4.032 4.015z"/><path fill="#fff" d="M30.744 19.781c-.03-3.374 2.775-5.015 2.903-5.092-1.589-2.306-4.051-2.621-4.917-2.646-2.068-.217-4.074 1.232-5.128 1.232-1.075 0-2.697-1.212-4.446-1.176-2.25.035-4.355 1.332-5.51 3.346-2.382 4.107-.605 10.142 1.678 13.462 1.141 1.626 2.476 3.441 4.222 3.377 1.71-.07 2.347-1.084 4.41-1.084 2.043 0 2.642 1.084 4.423 1.043 1.834-.029 2.988-1.633 4.09-3.273 1.32-1.864 1.85-3.699 1.871-3.793-.043-.015-3.561-1.352-3.596-5.396m-3.365-9.923c.919-1.144 1.548-2.7 1.373-4.28-1.33.058-2.994.915-3.951 2.035-.848.986-1.605 2.602-1.41 4.122 1.495.111 3.029-.75 3.988-1.877M55.472 32.05h-2.388l-1.308-4.091h-4.547l-1.246 4.092h-2.325l4.505-13.932h2.782zm-4.09-5.808-1.183-3.638q-.187-.558-.706-2.625h-.042q-.207.89-.665 2.625l-1.162 3.638zm15.675.663q0 2.562-1.391 4.05-1.246 1.324-3.094 1.323-1.993 0-2.865-1.426h-.042v5.293h-2.242V25.312a69 69 0 0 0-.083-3.307h1.971l.126 1.592h.042q1.12-1.799 3.404-1.798 1.786 0 2.98 1.405 1.194 1.407 1.194 3.7m-2.284.081q.001-1.467-.665-2.418-.727-.993-1.951-.993-.83.002-1.505.548-.675.549-.882 1.437a3 3 0 0 0-.104.68v1.676q0 1.095.675 1.85t1.754.756q1.266 0 1.971-.972.707-.971.707-2.564m13.889-.08q0 2.562-1.392 4.05-1.245 1.324-3.093 1.323-1.994 0-2.864-1.426h-.042v5.293h-2.242V25.312a69 69 0 0 0-.083-3.307h1.972l.125 1.592h.042q1.119-1.799 3.405-1.798 1.784 0 2.98 1.405 1.19 1.407 1.192 3.7m-2.284.081q0-1.467-.665-2.418-.727-.993-1.951-.993a2.34 2.34 0 0 0-1.506.548q-.674.549-.881 1.437a3 3 0 0 0-.104.68v1.676q0 1.095.673 1.85.675.755 1.756.756 1.266 0 1.971-.972.707-.971.707-2.564m15.26 1.158q0 1.778-1.243 2.894-1.367 1.22-3.812 1.22-2.257 0-3.627-.868l.52-1.86q1.476.889 3.24.89 1.267 0 1.974-.57.705-.57.705-1.523 0-.848-.582-1.427-.58-.58-1.93-1.078-3.674-1.365-3.674-3.995 0-1.718 1.288-2.815 1.284-1.098 3.426-1.097 1.908 0 3.175.662l-.56 1.82q-1.182-.642-2.678-.642-1.184 0-1.847.58a1.65 1.65 0 0 0-.56 1.261 1.7 1.7 0 0 0 .642 1.364q.56.495 2.036 1.075 1.805.724 2.657 1.694.85.969.85 2.415m7.412-4.463h-2.471v4.877q0 1.86 1.308 1.86.601 0 .995-.103l.062 1.695q-.662.246-1.743.247-1.327-.001-2.077-.806-.746-.806-.747-2.709v-5.063h-1.472v-1.675h1.472v-1.84l2.202-.661v2.5h2.47zm11.149 3.264q0 2.316-1.329 3.804-1.393 1.53-3.697 1.53-2.22 0-3.538-1.467-1.32-1.468-1.319-3.7-.001-2.336 1.36-3.823 1.358-1.49 3.663-1.49 2.222 0 3.571 1.469 1.29 1.425 1.289 3.677m-2.326.073q.001-1.39-.601-2.384-.706-1.203-2.013-1.202-1.351 0-2.056 1.202-.602.994-.601 2.425-.001 1.39.601 2.383.726 1.202 2.036 1.202 1.285 0 2.013-1.223.62-1.014.621-2.404m9.613-3.048a4 4 0 0 0-.706-.062q-1.184 0-1.828.89-.56.786-.56 1.984v5.271h-2.241l.021-6.882q0-1.737-.084-3.163h1.953l.082 1.922h.062q.354-.991 1.121-1.591a2.7 2.7 0 0 1 1.62-.538q.31 0 .56.04zm10.026 2.584q.001.6-.082 1.012h-6.726q.04 1.49.976 2.275.85.703 2.2.703 1.495 0 2.721-.475l.352 1.549q-1.432.621-3.383.62-2.347 0-3.687-1.374-1.337-1.374-1.338-3.69 0-2.272 1.247-3.782 1.306-1.61 3.528-1.61 2.181 0 3.302 1.61.889 1.282.89 3.162m-2.138-.579q.022-.992-.435-1.716-.582-.93-1.787-.93-1.1-.001-1.784.91-.56.723-.664 1.735zM50.64 9.549q0 1.849-1.113 2.782-1.03.863-2.926.863-.94 0-1.612-.082V6.38a12 12 0 0 1 1.898-.143q1.805 0 2.723.782 1.03.885 1.03 2.53m-1.162.03q0-1.198-.637-1.838-.638-.64-1.863-.64-.52 0-.887.071v5.119q.204.03.745.03 1.265 0 1.952-.7.69-.7.69-2.042m7.322 1.044q0 1.139-.652 1.869-.684.752-1.816.752-1.091 0-1.74-.722-.645-.72-.646-1.817 0-1.147.668-1.878t1.8-.731q1.09 0 1.755.72.631.701.632 1.807m-1.142.036q-.001-.683-.296-1.172-.346-.59-.988-.59-.665 0-1.01.59-.297.489-.296 1.192 0 .683.295 1.171.357.59 1 .59.631 0 .989-.6.306-.498.306-1.181m9.402-2.462-1.551 4.935H62.5l-.642-2.143a16 16 0 0 1-.398-1.595h-.02a12 12 0 0 1-.399 1.595l-.682 2.143h-1.021l-1.459-4.935h1.133l.56 2.346q.203.832.337 1.584h.02q.122-.62.409-1.574l.703-2.355h.898l.674 2.305q.244.842.398 1.625h.03q.112-.762.337-1.625l.601-2.305zm5.714 4.933h-1.103v-2.826q0-1.305-.998-1.306-.49 0-.796.359-.305.36-.306.846v2.927H66.47V9.606q0-.65-.04-1.412h.968l.052.771h.03q.193-.359.571-.595.45-.278.999-.278.695 0 1.154.447.57.548.57 1.635zm3.038.001h-1.1v-7.2h1.1zm6.487-2.508q0 1.139-.652 1.869-.685.752-1.816.752-1.093 0-1.74-.722-.646-.72-.646-1.817 0-1.147.668-1.878t1.799-.731q1.091 0 1.756.72.631.701.632 1.807m-1.143.036q-.001-.683-.296-1.172-.346-.59-.987-.59-.666 0-1.01.59-.297.489-.296 1.192 0 .683.295 1.171.358.59 1 .59.63 0 .988-.6.307-.498.306-1.181m6.476 2.473h-.99l-.081-.569h-.03q-.51.68-1.449.68-.703-.001-1.131-.446a1.4 1.4 0 0 1-.388-1.005q-.001-.904.76-1.381.76-.479 2.138-.467v-.092q0-.975-1.03-.975-.734 0-1.292.365l-.224-.72c.46-.284 1.03-.426 1.7-.426q1.945 0 1.946 2.041v1.818q0 .74.071 1.177m-1.144-1.696v-.761q-1.823-.032-1.823.994 0 .386.211.579a.77.77 0 0 0 .539.193q.364 0 .674-.229a.94.94 0 0 0 .4-.776m7.405 1.695h-.978l-.052-.792h-.03q-.469.904-1.592.904-.897 0-1.489-.7-.59-.7-.59-1.817-.001-1.2.641-1.94.623-.691 1.53-.691 1 0 1.397.67h.02V5.932h1.104v5.87q0 .72.039 1.33m-1.142-2.08v-.824q0-.213-.03-.345a1.25 1.25 0 0 0-.4-.665 1.1 1.1 0 0 0-.736-.269q-.616 0-.97.488-.352.487-.353 1.249 0 .731.339 1.188.358.487.963.487.541 0 .87-.406.318-.376.317-.904m10.567-.428q0 1.139-.653 1.869-.684.752-1.816.752-1.09 0-1.74-.722-.646-.72-.646-1.817 0-1.147.668-1.878t1.8-.731q1.091 0 1.755.72.631.701.632 1.807m-1.142.036q0-.683-.296-1.172-.347-.59-.99-.59-.66 0-1.01.59-.295.489-.295 1.192 0 .683.295 1.171.358.59 1 .59.632 0 .99-.6.305-.498.306-1.181m7.067 2.471h-1.101v-2.826q.001-1.305-1-1.306a1 1 0 0 0-.795.359q-.306.36-.306.846v2.927h-1.103V9.606q0-.65-.039-1.412h.968l.051.771h.031q.194-.359.571-.595a1.87 1.87 0 0 1 1-.278q.692 0 1.152.447.572.548.571 1.635zm7.416-4.112h-1.213v2.397q0 .915.642.914.297 0 .491-.051l.028.832q-.326.123-.856.123-.651 0-1.018-.396-.368-.396-.368-1.33V9.018h-.725v-.822h.725v-.904l1.079-.325v1.228h1.214zm5.834 4.113h-1.103v-2.805q0-1.328-.998-1.328-.765 0-1.052.77-.05.162-.051.394v2.968h-1.101V5.932h1.101v2.974h.021q.521-.811 1.489-.811.684 0 1.133.447.561.557.561 1.655zm6.017-2.7q0 .295-.041.498h-3.305q.021.73.479 1.117.42.345 1.082.345a3.7 3.7 0 0 0 1.336-.233l.173.762q-.704.304-1.664.304-1.152 0-1.809-.675-.659-.675-.658-1.812 0-1.117.612-1.858.64-.792 1.733-.792 1.07 0 1.621.792.442.628.441 1.552m-1.051-.283a1.47 1.47 0 0 0-.214-.843q-.285-.458-.877-.458-.54 0-.877.447a1.66 1.66 0 0 0-.327.854z"/></svg>