<svg xmlns="http://www.w3.org/2000/svg" width="60" height="40" fill="none"><circle cx="29.5" cy="19.5" r="11.5" fill="#768498"/><path fill="#768498" d="M22.6 12.6h13.8v13.8H22.6z"/><path fill="#fff" d="M34.563 15.093a.97.97 0 0 0-.727-.182.97.97 0 0 0-.64.393L28.56 21.69l-2.948-2.395a.97.97 0 0 0-1.36.168 1.005 1.005 0 0 0 .137 1.384l3.743 3.039a.98.98 0 0 0 .737.204.98.98 0 0 0 .661-.39l5.243-7.22a1 1 0 0 0-.21-1.388"/><path stroke="#BAC0CA" stroke-linecap="round" stroke-linejoin="round" d="M6 28h2.5v2.5H6z"/><path stroke="#BAC0CA" d="M10.25 10.5a1.25 1.25 0 1 0 0-2.5 1.25 1.25 0 0 0 0 2.5Zm41 16a1.25 1.25 0 1 0 0-2.5 1.25 1.25 0 0 0 0 2.5Z" clip-rule="evenodd"/><path stroke="#BAC0CA" stroke-linecap="round" d="m52.105 9.104 2.375 2.375m-.085-2.375L52.02 11.48"/></svg>