<svg xmlns="http://www.w3.org/2000/svg" width="56" height="56" fill="none"><path fill="#B7CBEF" stroke="#264887" stroke-width="2" d="M28 55c14.912 0 27-12.088 27-27S42.912 1 28 1 1 13.088 1 28s12.088 27 27 27Z"/><path fill="#fff" stroke="#264887" stroke-linecap="round" stroke-linejoin="round" d="M14.346 16.58a1.32 1.32 0 0 1 .989-.99l1.988-.457a.165.165 0 0 0 0-.323l-1.988-.458a1.32 1.32 0 0 1-.99-.99l-.458-1.984a.164.164 0 0 0-.265-.093.16.16 0 0 0-.057.093l-.458 1.987a1.32 1.32 0 0 1-.99.988l-1.987.457a.165.165 0 0 0 0 .323l1.987.458a1.32 1.32 0 0 1 .99.99l.458 1.987a.165.165 0 0 0 .322 0zm11.117-6.326a1.06 1.06 0 0 1 .793-.79l1.585-.366a.132.132 0 0 0 0-.256l-1.585-.365a1.05 1.05 0 0 1-.79-.79L25.1 6.103a.131.131 0 0 0-.257 0l-.366 1.584a1.05 1.05 0 0 1-.79.79l-1.584.366a.132.132 0 0 0 0 .256l1.584.366a1.05 1.05 0 0 1 .79.79l.366 1.586a.132.132 0 0 0 .21.074.13.13 0 0 0 .047-.074z"/></svg>