<svg xmlns="http://www.w3.org/2000/svg" width="238" height="66" fill="none"><rect width="237" height="65" x=".5" y=".5" stroke="#DCDFE4" rx="4.5"/><rect width="186" height="18" x="8" y="8" fill="#F6F8FA" rx="9"/><path fill="#000" d="M39.414 14.906h-1.008l-1.218 4.957h-.024l-1.383-4.957h-.984l-1.377 4.957h-.023l-1.22-4.957h-1.013L32.87 21h1.037l1.371-4.717h.024L36.678 21h1.037zm3.281.78c.961 0 1.6.726 1.623 1.746h-3.31c.064-1.014.732-1.746 1.687-1.746m1.6 3.568c-.17.574-.738.967-1.512.967-1.096 0-1.781-.768-1.781-1.934v-.058h4.371v-.387c0-1.846-1.014-3.041-2.66-3.041-1.682 0-2.76 1.283-2.76 3.176 0 1.916 1.06 3.128 2.807 3.128 1.33 0 2.361-.785 2.537-1.851zm5.139 1.851c1.558 0 2.59-1.236 2.59-3.152 0-1.91-1.038-3.152-2.573-3.152-.861 0-1.57.428-1.951 1.125h-.023v-3.381h-1.02V21h.973v-1.031h.023c.393.703 1.09 1.136 1.98 1.136m-.2-5.408c1.078 0 1.746.873 1.746 2.256 0 1.395-.667 2.256-1.746 2.256-1.03 0-1.763-.896-1.763-2.256 0-1.353.732-2.256 1.763-2.256m3.721.89c0 .833.527 1.384 1.6 1.66l1.072.274c.685.182.938.416.938.85 0 .55-.51.902-1.337.902-.826 0-1.306-.34-1.418-.972H52.79c.106 1.078 1.037 1.805 2.373 1.805 1.424 0 2.426-.75 2.426-1.811 0-.897-.446-1.342-1.676-1.652l-.943-.229c-.692-.176-1.014-.457-1.014-.879 0-.533.492-.902 1.236-.902.75 0 1.225.363 1.295.949h.973c-.047-1.031-.973-1.781-2.233-1.781-1.341 0-2.273.744-2.273 1.787M58.703 21h1.02v-6.094h-1.02zm.51-7.12a.64.64 0 0 0 .639-.632.635.635 0 0 0-1.272 0c0 .346.287.633.633.633m2.215-.445v1.471h-.908v.838h.908v3.674c0 1.172.433 1.629 1.553 1.629.24 0 .521-.018.644-.047v-.855c-.07.011-.305.029-.422.029-.521 0-.756-.252-.756-.809v-3.62h1.184v-.839h-1.184v-1.47zm5.56 2.25c.961 0 1.6.727 1.623 1.747h-3.31c.064-1.014.732-1.746 1.687-1.746m1.6 3.569c-.17.574-.738.967-1.512.967-1.095 0-1.781-.768-1.781-1.934v-.058h4.371v-.387c0-1.846-1.014-3.041-2.66-3.041-1.682 0-2.76 1.283-2.76 3.176 0 1.916 1.06 3.128 2.807 3.128 1.33 0 2.361-.785 2.537-1.851zm2.97 1.805a.66.66 0 0 0 .669-.668.66.66 0 0 0-.668-.668.66.66 0 0 0-.668.668.66.66 0 0 0 .668.668m6.897-4.155c-.129-1.095-1.037-2.103-2.56-2.103-1.682 0-2.801 1.23-2.801 3.152 0 1.963 1.125 3.153 2.812 3.153 1.383 0 2.403-.856 2.56-2.069h-1.001c-.176.733-.72 1.172-1.553 1.172-1.055 0-1.781-.838-1.781-2.256 0-1.383.715-2.256 1.77-2.256.896 0 1.412.545 1.558 1.207zm3.475 4.201c1.681 0 2.818-1.212 2.818-3.152 0-1.945-1.137-3.152-2.818-3.152-1.688 0-2.825 1.207-2.825 3.152 0 1.94 1.137 3.153 2.825 3.153m0-.896c-1.078 0-1.787-.82-1.787-2.256s.709-2.256 1.787-2.256 1.78.82 1.78 2.256-.702 2.256-1.78 2.256m3.85.791H86.8v-3.82c0-.844.586-1.477 1.394-1.477.756 0 1.248.48 1.248 1.213V21h1.02v-3.873c0-.826.568-1.424 1.377-1.424.803 0 1.266.492 1.266 1.324V21h1.019v-4.207c0-1.207-.78-1.992-1.986-1.992-.856 0-1.57.433-1.91 1.16h-.024c-.264-.738-.879-1.16-1.71-1.16-.821 0-1.442.433-1.73 1.078h-.023v-.973h-.96z"/><path fill="#1D3049" d="M22.577 15.597a.19.19 0 0 1-.161-.188v-.767a2.642 2.642 0 0 0-5.284 0v.767a.19.19 0 0 1-.161.188 1.13 1.13 0 0 0-.971 1.12v4.15A1.13 1.13 0 0 0 17.132 22h5.284a1.13 1.13 0 0 0 1.132-1.132v-4.151a1.13 1.13 0 0 0-.97-1.12m-2.803 4.328a.755.755 0 1 1 0-1.51.755.755 0 0 1 0 1.51m1.132-4.529a.19.19 0 0 1-.189.19H18.83a.19.19 0 0 1-.188-.19v-.754a1.132 1.132 0 1 1 2.264 0z"/><rect width="11" height="11" x="200.5" y="11.5" stroke="#1D3049" rx="1.5"/><path fill="#1D3049" d="M206.121 20h.68v-5.637h-.688l-1.5 1.078v.707l1.492-1.039h.016z"/><rect width="222" height="20" x="8" y="32" fill="#DCDFE4" rx="1"/><path fill="#DCDFE4" d="M221.256 27.828a1 1 0 0 1 1.488 0l3.82 4.254c.578.644.121 1.668-.744 1.668h-7.64c-.865 0-1.322-1.024-.744-1.668z"/><path fill="#000" d="M19.586 46.14c1.934 0 3.123-.949 3.123-2.449v-.006c0-1.288-.727-1.992-2.461-2.373l-.937-.205c-1.102-.24-1.612-.673-1.612-1.365v-.006c0-.814.738-1.353 1.87-1.359 1.072 0 1.792.51 1.921 1.371l.012.082h1.055l-.006-.088c-.094-1.383-1.301-2.338-2.953-2.338-1.74 0-2.971.973-2.977 2.362v.006c0 1.236.774 1.98 2.426 2.343l.937.205c1.16.258 1.647.674 1.647 1.418v.006c0 .873-.768 1.424-1.986 1.424-1.225 0-2.045-.521-2.168-1.371l-.012-.082H16.41l.006.082c.105 1.447 1.342 2.344 3.17 2.344m6.709-.023c1.33 0 2.326-.797 2.525-1.804l.012-.06H27.83l-.017.054c-.176.521-.721.908-1.495.908-1.084 0-1.775-.733-1.799-1.987h4.39v-.375c0-1.828-1.014-3.064-2.678-3.064-1.665 0-2.743 1.295-2.743 3.182v.006c0 1.916 1.055 3.14 2.807 3.14m-.07-5.426c.89 0 1.546.557 1.646 1.74h-3.334c.111-1.136.803-1.74 1.688-1.74m5.695 5.426c.2 0 .416-.023.545-.04v-.827c-.088.006-.205.023-.328.023-.545 0-.832-.181-.832-.832V40.75h1.16v-.844h-1.16V38.26H30.25v1.646h-.89v.844h.89v3.697c0 1.166.55 1.67 1.67 1.67m3.621 0c.2 0 .416-.023.545-.04v-.827c-.088.006-.205.023-.328.023-.545 0-.832-.181-.832-.832V40.75h1.16v-.844h-1.16V38.26H33.87v1.646h-.89v.844h.89v3.697c0 1.166.55 1.67 1.67 1.67m2.215-7.242a.636.636 0 0 0 .639-.639.633.633 0 0 0-.64-.638.636.636 0 0 0-.638.638.64.64 0 0 0 .639.639M37.246 46h1.02v-6.094h-1.02zm2.408 0h1.02v-3.586c0-1.037.627-1.723 1.588-1.723.937 0 1.4.545 1.4 1.536V46h1.02v-3.955c0-1.389-.774-2.256-2.11-2.256-.925 0-1.547.416-1.875.984h-.023v-.867h-1.02zm8.906 2.168c1.653 0 2.69-.926 2.69-2.338v-5.924h-1.02v1.032h-.023c-.375-.68-1.055-1.149-1.916-1.149-1.547 0-2.607 1.23-2.607 3.123v.006c0 1.904 1.048 3.14 2.584 3.14.873 0 1.576-.433 1.939-1.107h.023v.78c0 .943-.609 1.535-1.681 1.535-.832 0-1.412-.27-1.606-.71l-.023-.052h-1.026l.012.053c.2.902 1.149 1.611 2.654 1.611m-.07-3.012c-1.084 0-1.763-.855-1.763-2.238v-.006c0-1.353.68-2.22 1.763-2.22 1.032 0 1.74.878 1.74 2.22v.006c0 1.354-.703 2.238-1.74 2.238m6.24.961c1.36 0 2.368-.75 2.368-1.816v-.006c0-.867-.446-1.354-1.676-1.652l-.967-.235c-.674-.164-.95-.451-.95-.867v-.006c0-.539.458-.896 1.196-.896.756 0 1.207.392 1.29.984l.005.041h.973l-.006-.076c-.076-1.02-.926-1.799-2.262-1.799-1.318 0-2.238.744-2.238 1.793v.006c0 .879.556 1.412 1.705 1.687l.967.235c.691.17.92.416.92.855v.006c0 .55-.492.897-1.319.897-.832 0-1.283-.358-1.406-.967l-.012-.059h-1.02l.007.053c.123 1.09.99 1.822 2.425 1.822"/><path fill="#fff" stroke="#1D3049" stroke-linecap="round" stroke-linejoin="round" stroke-width="1.25" d="M67 52.123v-1.25a1.25 1.25 0 0 0-2.5 0v-.623a1.25 1.25 0 0 0-2.5 0v-5a1.25 1.25 0 0 0-2.5 0v7.5a2.5 2.5 0 0 0-2.5 2.5c0 1.22.38 2.409 1.09 3.4l.917 1.28a3.75 3.75 0 0 0 3.048 1.57h3.178a4.27 4.27 0 0 0 4.267-4.27v-5.107a1.25 1.25 0 0 0-2.5 0"/><path fill="#fff" d="M59.5 52.748v1.875z"/><path stroke="#1D3049" stroke-linecap="round" stroke-linejoin="round" stroke-width="1.25" d="M59.5 52.748v1.875"/><path fill="#fff" d="M62 52.123v-1.25z"/><path stroke="#1D3049" stroke-linecap="round" stroke-linejoin="round" stroke-width="1.25" d="M62 52.123v-1.25"/><path fill="#fff" d="M64.5 52.123v-1.25z"/><path stroke="#1D3049" stroke-linecap="round" stroke-linejoin="round" stroke-width="1.25" d="M64.5 52.123v-1.25"/><path fill="#1D3049" d="M220.453 22.31a1.616 1.616 0 1 0 3.232-.003 1.616 1.616 0 0 0-3.232.003m0-10.616a1.616 1.616 0 1 0 3.232-.002 1.616 1.616 0 0 0-3.232.002m0 5.308a1.616 1.616 0 1 0 3.232-.002 1.616 1.616 0 0 0-3.232.002"/></svg>