<svg xmlns="http://www.w3.org/2000/svg" width="238" height="66" fill="none"><rect width="237" height="65" x=".5" y=".5" stroke="#DCDFE4" rx="4.5"/><path fill="#000" d="M8.146 22h1.108l.855-2.42h3.405l.855 2.42h1.108l-3.141-8.455h-1.043zm3.657-7.19h.023l1.371 3.874h-2.765zm6.392 7.307c.926 0 1.547-.416 1.875-.984h.024V22h1.02v-6.094h-1.02v3.586c0 1.037-.627 1.723-1.588 1.723-.938 0-1.4-.545-1.4-1.535v-3.774h-1.02v3.955c0 1.389.773 2.256 2.11 2.256m6.229 0c.199 0 .416-.023.545-.04v-.827c-.088.006-.205.023-.328.023-.545 0-.832-.181-.832-.832V16.75h1.16v-.844h-1.16V14.26h-1.055v1.646h-.89v.844h.89v3.697c0 1.166.55 1.67 1.67 1.67m3.99 0c1.682 0 2.818-1.219 2.818-3.164v-.012c0-1.945-1.142-3.152-2.824-3.152s-2.818 1.213-2.818 3.152v.012c0 1.94 1.13 3.164 2.824 3.164m.006-.902c-1.078 0-1.787-.826-1.787-2.262v-.012c0-1.423.715-2.25 1.775-2.25 1.078 0 1.781.82 1.781 2.25v.012c0 1.43-.697 2.262-1.77 2.262m3.879-2.168h3.75v-.95h-3.75zM37.736 22h1.02v-5.25h1.242v-.844h-1.254v-.744c0-.603.281-.89.844-.89.158 0 .316.005.44.023v-.826a4.5 4.5 0 0 0-.622-.041c-1.125 0-1.67.556-1.67 1.728v.75h-.85v.844h.85zm3.891-7.125a.636.636 0 0 0 .639-.639.633.633 0 0 0-.639-.638.636.636 0 0 0-.639.638.64.64 0 0 0 .639.639M41.117 22h1.02v-6.094h-1.02zm2.461 0h1.02v-8.455h-1.02zm2.45 0h1.019v-8.455h-1.02z"/><rect width="221" height="23" x="8.5" y="32.5" stroke="#EDEFF1" rx=".5"/><path fill="#000" d="M44.82 48h1.055v-3.018h1.957c1.588 0 2.713-1.119 2.713-2.724v-.012c0-1.605-1.125-2.701-2.713-2.701H44.82zm2.742-7.518c1.208 0 1.905.663 1.905 1.776v.011c0 1.114-.697 1.776-1.904 1.776h-1.688v-3.563zm5.291 7.635c.815 0 1.547-.44 1.905-1.107h.023V48h1.02v-4.213c0-1.219-.903-1.998-2.344-1.998-1.435 0-2.309.809-2.397 1.81l-.005.065h.984l.012-.053c.117-.545.61-.92 1.394-.92.85 0 1.336.452 1.336 1.196v.51l-1.746.1c-1.4.081-2.209.731-2.209 1.769v.011c0 1.108.815 1.84 2.027 1.84m-.984-1.84v-.011c0-.569.469-.932 1.283-.979l1.63-.1v.498c0 .885-.739 1.547-1.7 1.547-.732 0-1.213-.369-1.213-.955m7.389 1.84c1.36 0 2.367-.75 2.367-1.816v-.006c0-.867-.445-1.354-1.676-1.652l-.967-.235c-.673-.164-.949-.451-.949-.867v-.006c0-.539.457-.896 1.195-.896.756 0 1.207.392 1.29.984l.005.041h.973l-.006-.076c-.076-1.02-.925-1.799-2.262-1.799-1.318 0-2.238.744-2.238 1.793v.006c0 .879.557 1.412 1.705 1.687l.967.235c.691.17.92.416.92.855v.006c0 .55-.492.897-1.318.897-.832 0-1.284-.358-1.407-.967l-.011-.059h-1.02l.006.053c.123 1.09.99 1.822 2.426 1.822m5.59 0c1.359 0 2.367-.75 2.367-1.816v-.006c0-.867-.446-1.354-1.676-1.652l-.967-.235c-.674-.164-.949-.451-.949-.867v-.006c0-.539.457-.896 1.195-.896.756 0 1.207.392 1.29.984l.005.041h.973l-.006-.076c-.076-1.02-.926-1.799-2.262-1.799-1.318 0-2.238.744-2.238 1.793v.006c0 .879.557 1.412 1.705 1.687l.967.235c.691.17.92.416.92.855v.006c0 .55-.492.897-1.319.897-.831 0-1.283-.358-1.406-.967l-.012-.059h-1.019l.006.053c.123 1.09.99 1.822 2.426 1.822M69.482 48h1.037l1.372-4.717h.023L73.291 48h1.037l1.7-6.094h-1.009l-1.218 4.957h-.024l-1.383-4.957h-.984l-1.377 4.957h-.023l-1.219-4.957h-1.014zm9.909.117c1.681 0 2.818-1.219 2.818-3.164v-.012c0-1.945-1.143-3.152-2.824-3.152-1.682 0-2.819 1.213-2.819 3.152v.012c0 1.94 1.131 3.164 2.825 3.164m.005-.902c-1.078 0-1.787-.826-1.787-2.262v-.012c0-1.423.715-2.25 1.776-2.25 1.078 0 1.781.82 1.781 2.25v.012c0 1.43-.697 2.262-1.77 2.262M83.24 48h1.02v-3.762c0-.925.515-1.476 1.306-1.476.246 0 .463.029.545.058v-.99c-.082-.012-.234-.04-.41-.04-.685 0-1.213.444-1.418 1.148h-.023v-1.032h-1.02zm5.701.117c.873 0 1.553-.44 1.934-1.148h.023V48h1.02v-8.455h-1.02v3.38h-.023c-.38-.702-1.09-1.136-1.951-1.136-1.53 0-2.572 1.236-2.572 3.158v.006c0 1.922 1.03 3.164 2.59 3.164m.2-.902c-1.079 0-1.747-.862-1.747-2.262v-.006c0-1.388.668-2.256 1.747-2.256 1.025 0 1.763.897 1.763 2.256v.006c0 1.365-.732 2.262-1.763 2.262m6.316.902c1.36 0 2.367-.75 2.367-1.816v-.006c0-.867-.445-1.354-1.676-1.652l-.966-.235c-.674-.164-.95-.451-.95-.867v-.006c0-.539.457-.896 1.196-.896.756 0 1.207.392 1.289.984l.006.041h.972l-.005-.076c-.077-1.02-.926-1.799-2.262-1.799-1.319 0-2.239.744-2.239 1.793v.006c0 .879.557 1.412 1.706 1.687l.966.235c.692.17.92.416.92.855v.006c0 .55-.492.897-1.318.897-.832 0-1.283-.358-1.406-.967l-.012-.059h-1.02l.006.053c.123 1.09.99 1.822 2.426 1.822"/><path fill="#fff" stroke="#1D3049" stroke-linecap="round" stroke-linejoin="round" stroke-width="1.25" d="M153 52.123v-1.25a1.252 1.252 0 0 0-2.134-.884 1.25 1.25 0 0 0-.366.884v-.623a1.252 1.252 0 0 0-2.134-.884 1.25 1.25 0 0 0-.366.884v-5a1.252 1.252 0 0 0-2.134-.884 1.25 1.25 0 0 0-.366.884v7.5a2.5 2.5 0 0 0-2.5 2.5 5.85 5.85 0 0 0 1.09 3.4l.917 1.28a3.75 3.75 0 0 0 3.048 1.57h3.177a4.27 4.27 0 0 0 4.268-4.27v-5.107a1.252 1.252 0 0 0-2.134-.884 1.25 1.25 0 0 0-.366.884"/><path fill="#fff" d="M145.5 52.748v1.875z"/><path stroke="#1D3049" stroke-linecap="round" stroke-linejoin="round" stroke-width="1.25" d="M145.5 52.748v1.875"/><path fill="#fff" d="M148 52.123v-1.25z"/><path stroke="#1D3049" stroke-linecap="round" stroke-linejoin="round" stroke-width="1.25" d="M148 52.123v-1.25"/><path fill="#fff" d="M150.5 52.123v-1.25z"/><path stroke="#1D3049" stroke-linecap="round" stroke-linejoin="round" stroke-width="1.25" d="M150.5 52.123v-1.25"/><path fill="#1D3049" d="m38.392 43.078-1.414-1.414a.34.34 0 0 0-.236-.098h-8.986a5 5 0 1 0 0 3.496h2.18l.608 1.214a.667.667 0 0 0 1.131.094l.97-1.309h.684l.374.999a.667.667 0 0 0 1.206.093l.614-1.091h1.22a.33.33 0 0 0 .235-.098l1.414-1.415a.333.333 0 0 0 0-.471m-16.5.943a1 1 0 1 1-1.413-1.413 1 1 0 0 1 1.414 1.413"/><g clip-path="url(#a)"><g clip-path="url(#b)"><path fill="#41536B" d="M220.125 44a.96.96 0 0 1-.325.72l-4.647 4.088a.768.768 0 0 1-1.263-.63.77.77 0 0 1 .247-.525l4.063-3.575a.1.1 0 0 0 .027-.035.1.1 0 0 0 0-.086.1.1 0 0 0-.027-.035l-4.063-3.575a.78.78 0 0 1-.273-.531.775.775 0 0 1 .432-.751.775.775 0 0 1 .857.127l4.645 4.086a.95.95 0 0 1 .327.722"/></g></g><defs><clipPath id="a"><path fill="#fff" d="M212 39h10v10h-10z"/></clipPath><clipPath id="b"><path fill="#fff" d="M212 49V39h10v10z"/></clipPath></defs></svg>