<svg xmlns="http://www.w3.org/2000/svg" width="84" height="337" fill="none"><path fill="#000" d="M1.337 330.857a.5.5 0 0 0 .23.669l4.044 1.974a.5.5 0 0 0 .439-.899l-3.595-1.755 1.755-3.594a.5.5 0 1 0-.899-.439zM43 1l-.463.188v.002l.003.006.01.026.042.102.162.407c.143.36.355.898.63 1.602l.931-.362a230 230 0 0 0-.837-2.124l-.011-.026-.003-.007V.812zm2.213 7.144c.51 1.364 1.081 2.916 1.707 4.644l.94-.34a504 504 0 0 0-1.71-4.654zm3.352 9.248q.785 2.221 1.639 4.708l.946-.325a620 620 0 0 0-1.642-4.716zm3.278 9.54a674 674 0 0 1 1.527 4.617l.95-.31a670 670 0 0 0-1.529-4.624zm3.086 9.45a697 697 0 0 1 1.471 4.675l.955-.297q-.745-2.399-1.473-4.681zm2.959 9.524q.697 2.303 1.404 4.697l.959-.283q-.707-2.397-1.406-4.704zm2.822 9.57q.668 2.323 1.337 4.719l.963-.27a686 686 0 0 0-1.339-4.725zm2.67 9.557q.645 2.373 1.286 4.806l.967-.255q-.642-2.436-1.288-4.813zm2.534 9.615q.619 2.42 1.23 4.89l.97-.24a650 650 0 0 0-1.231-4.898zm2.395 9.678q.578 2.416 1.145 4.874l.974-.225q-.567-2.46-1.147-4.882zm2.247 9.738a601 601 0 0 1 1.056 4.849l.978-.209q-.522-2.446-1.058-4.857zm2.084 9.763q.495 2.417.972 4.863l.982-.192q-.48-2.45-.975-4.872zm1.906 9.754q.457 2.456.895 4.934l.985-.174a540 540 0 0 0-.897-4.943zm1.734 9.818q.409 2.452.796 4.922l.988-.155a510 510 0 0 0-.798-4.932zm1.545 9.863q.359 2.453.694 4.919l.99-.134a471 471 0 0 0-.695-4.93zm1.337 9.864q.309 2.471.59 4.953l.993-.113a441 441 0 0 0-.59-4.964zm1.12 9.9q.252 2.478.473 4.961l.996-.089a414 414 0 0 0-.474-4.973zm.885 9.928q.19 2.483.347 4.969l.998-.064a378 378 0 0 0-.348-4.981zm.628 9.939q.123 2.49.212 4.979l1-.035a351 351 0 0 0-.213-4.994zm.351 9.96q.05 2.488.064 4.97l1-.005a322 322 0 0 0-.064-4.986zm.048 9.958a293 293 0 0 1-.099 4.98l1 .029q.07-2.495.099-4.998zm-.283 9.939q-.116 2.5-.277 4.987l.998.065q.162-2.496.278-5.006zm-.65 9.95q-.209 2.476-.469 4.933l.995.106q.26-2.469.471-4.954zm-1.048 9.9a216 216 0 0 1-.687 4.922l.99.15q.37-2.461.689-4.945zm-1.488 9.82q-.434 2.468-.928 4.907l.98.198q.497-2.451.933-4.931zm-1.976 9.753q-.561 2.433-1.187 4.832l.968.253q.63-2.414 1.193-4.86zm-2.515 9.633a157 157 0 0 1-1.464 4.724l.95.311a159 159 0 0 0 1.474-4.754zm-3.094 9.44a143 143 0 0 1-1.782 4.636l.927.375a144 144 0 0 0 1.794-4.669zm-3.723 9.194a129 129 0 0 1-2.122 4.505l.896.443q1.11-2.243 2.138-4.539zm-4.408 8.902a118 118 0 0 1-2.468 4.308l.857.515a119 119 0 0 0 2.489-4.344zm-5.117 8.507a111 111 0 0 1-2.828 4.074l.808.589a112 112 0 0 0 2.854-4.111zm-5.836 8.013a106 106 0 0 1-3.194 3.804l.75.661a107 107 0 0 0 3.225-3.84zm-6.554 7.442a104 104 0 0 1-3.53 3.473l.684.729a104 104 0 0 0 3.564-3.507zm-7.254 6.799a103 103 0 0 1-3.819 3.095l.611.792a104 104 0 0 0 3.856-3.126zm-7.822 6.037a106 106 0 0 1-4.153 2.759l.534.846q2.144-1.355 4.191-2.786zm-8.361 5.285a112 112 0 0 1-4.393 2.378l.456.889a112 112 0 0 0 4.432-2.398zm-8.858 4.547a120 120 0 0 1-4.502 1.961l.38.925a122 122 0 0 0 4.54-1.977zm-9.179 3.778q-1.19.436-2.404.853l.325.946q1.223-.42 2.423-.86zm-3.14.888a1 1 0 0 0 .46 1.337l8.088 3.948a1 1 0 0 0 .877-1.798l-7.19-3.509 3.51-7.189a1 1 0 1 0-1.797-.877zM43 1l-.927.376.001.002.003.006.01.025.04.102.162.405q.217.541.628 1.599l1.864-.725a231 231 0 0 0-.85-2.157l-.003-.006-.001-.002V.623zm1.745 7.318c.509 1.363 1.08 2.914 1.705 4.64l1.88-.681a510 510 0 0 0-1.712-4.658zm3.349 9.24q.783 2.22 1.637 4.704l1.892-.65q-.857-2.491-1.643-4.72zm3.275 9.533a665 665 0 0 1 1.526 4.614l1.9-.622a669 669 0 0 0-1.53-4.627zm3.084 9.443q.725 2.278 1.47 4.671l1.91-.593q-.748-2.401-1.474-4.685zm2.956 9.516q.698 2.303 1.403 4.695l1.919-.566a700 700 0 0 0-1.408-4.708zm2.82 9.564q.667 2.322 1.337 4.715l1.926-.538q-.67-2.4-1.34-4.73zm2.668 9.55q.645 2.371 1.285 4.802l1.934-.51a672 672 0 0 0-1.288-4.816zm2.533 9.608q.618 2.417 1.228 4.885l1.942-.48q-.613-2.476-1.232-4.9zm2.392 9.67q.578 2.415 1.145 4.87l1.949-.45a625 625 0 0 0-1.148-4.885zm2.246 9.73q.534 2.407 1.055 4.845l1.956-.417a600 600 0 0 0-1.06-4.862zm2.082 9.755q.494 2.415.972 4.859l1.963-.384q-.48-2.452-.976-4.876zm1.904 9.745q.457 2.454.895 4.93l1.97-.348a545 545 0 0 0-.898-4.948zm1.733 9.809q.408 2.45.795 4.917l1.976-.309a506 506 0 0 0-.799-4.937zm1.543 9.853q.36 2.451.693 4.914l1.982-.269a483 483 0 0 0-.696-4.935zm1.336 9.854q.308 2.468.588 4.947l1.988-.225q-.282-2.49-.591-4.97zm1.119 9.889q.251 2.474.472 4.955l1.992-.178a411 411 0 0 0-.474-4.979zm.883 9.915q.19 2.48.347 4.962l1.996-.126a380 380 0 0 0-.349-4.988zm.628 9.926q.123 2.487.211 4.972l1.999-.071q-.088-2.499-.213-5.001zm.35 9.945q.05 2.485.064 4.963l2-.01q-.013-2.495-.064-4.994zm.048 9.942a291 291 0 0 1-.098 4.972l1.999.057q.07-2.5.099-5.006zm-.283 9.922a265 265 0 0 1-.276 4.977l1.995.13q.163-2.5.28-5.015zm-.647 9.931q-.21 2.47-.469 4.923l1.989.21q.261-2.472.473-4.964zm-1.047 9.879q-.315 2.467-.685 4.91l1.978.3q.372-2.467.69-4.957zm-1.484 9.797q-.433 2.46-.926 4.893l1.96.397q.498-2.457.936-4.944zm-1.972 9.727a174 174 0 0 1-1.183 4.818l1.936.505q.63-2.421 1.196-4.874zm-2.507 9.604q-.695 2.375-1.459 4.709l1.9.623a160 160 0 0 0 1.479-4.769zm-3.084 9.41a142 142 0 0 1-1.775 4.619l1.854.75a144 144 0 0 0 1.8-4.684zm-3.71 9.161a129 129 0 0 1-2.113 4.487l1.792.887a131 131 0 0 0 2.147-4.557zm-4.39 8.867q-1.186 2.174-2.458 4.29l1.715 1.03a121 121 0 0 0 2.499-4.362zm-5.095 8.471a111 111 0 0 1-2.815 4.055l1.616 1.177a112 112 0 0 0 2.867-4.129zm-5.809 7.976a106 106 0 0 1-3.18 3.786l1.502 1.321a107 107 0 0 0 3.24-3.857zm-6.523 7.406a103 103 0 0 1-3.513 3.456l1.368 1.459q1.84-1.725 3.581-3.524zm-7.218 6.766a104 104 0 0 1-3.801 3.081l1.222 1.583a105 105 0 0 0 3.874-3.141zm-7.786 6.008a107 107 0 0 1-4.133 2.747l1.068 1.691q2.154-1.36 4.21-2.799zm-8.322 5.261a112 112 0 0 1-4.374 2.367l.913 1.779q2.273-1.166 4.452-2.409zm-8.819 4.527a121 121 0 0 1-4.484 1.953l.762 1.849a121 121 0 0 0 4.558-1.985zm-9.142 3.763q-1.186.433-2.395.85l.65 1.891q1.229-.422 2.433-.863z"/></svg>