<svg xmlns="http://www.w3.org/2000/svg" width="60" height="40" fill="none"><path stroke="#EDBF0E" stroke-linecap="round" stroke-linejoin="round" d="M10.425 28.303a1.25 1.25 0 1 0 0-2.5 1.25 1.25 0 0 0 0 2.5" clip-rule="evenodd"/><path stroke="#EDBF0E" stroke-linecap="round" stroke-linejoin="round" d="M11.5 8H9v2.5h2.5zm38.268 17.656L48 27.423l1.768 1.768 1.767-1.768z"/><path fill="#fff" d="M34.566 9.326a12.06 12.06 0 0 0 6.04.414 12.06 12.06 0 0 0 .416 6.04A12.06 12.06 0 0 0 45 20.347a12.06 12.06 0 0 0-3.978 4.565 12.06 12.06 0 0 0-.415 6.04 12.1 12.1 0 0 0-6.04.415 12.06 12.06 0 0 0-4.56 3.979 12.05 12.05 0 0 0-4.573-3.977 12.06 12.06 0 0 0-6.04-.416 12.06 12.06 0 0 0-.417-6.04A12.05 12.05 0 0 0 15 20.345a12.05 12.05 0 0 0 3.977-4.565 12.06 12.06 0 0 0 .416-6.04c2.016.376 4.095.234 6.04-.415a12.1 12.1 0 0 0 4.573-3.979 12.06 12.06 0 0 0 4.56 3.979"/><path fill="#B5D9F1" d="M35.18 9.166q.665.451 1.386.812c1.255.42 2.564.627 3.877.621q.051-.605.164-1.206a12.06 12.06 0 0 1-5.426-.227M21.556 30.399a12.1 12.1 0 0 0-.579-4.835A12.05 12.05 0 0 0 17 20.999a12.05 12.05 0 0 0 3.977-4.565c.65-1.946.793-4.025.416-6.04 2.016.376 4.095.233 6.04-.416a12.1 12.1 0 0 0 4.022-3.236A12 12 0 0 1 30.007 5a12.1 12.1 0 0 1-4.573 3.978c-1.946.65-4.025.792-6.04.415a12.06 12.06 0 0 1-.417 6.04A12.05 12.05 0 0 1 15 20a12.05 12.05 0 0 1 3.977 4.565 12.06 12.06 0 0 1 .416 6.04 12 12 0 0 1 2.163-.205"/><path stroke="#264887" stroke-linecap="round" stroke-linejoin="round" stroke-width="1.25" d="M34.566 9.326a12.06 12.06 0 0 0 6.04.414 12.06 12.06 0 0 0 .416 6.04A12.06 12.06 0 0 0 45 20.347a12.06 12.06 0 0 0-3.978 4.565 12.06 12.06 0 0 0-.415 6.04 12.1 12.1 0 0 0-6.04.415 12.06 12.06 0 0 0-4.56 3.979 12.05 12.05 0 0 0-4.573-3.977 12.06 12.06 0 0 0-6.04-.416 12.06 12.06 0 0 0-.417-6.04A12.05 12.05 0 0 0 15 20.345a12.05 12.05 0 0 0 3.977-4.565 12.06 12.06 0 0 0 .416-6.04c2.016.376 4.095.234 6.04-.415a12.1 12.1 0 0 0 4.573-3.979 12.06 12.06 0 0 0 4.56 3.979"/><path fill="#fff" stroke="#264887" stroke-linecap="round" stroke-linejoin="round" stroke-width="1.25" d="M32.785 13.623a7.35 7.35 0 0 0 3.685.253 7.36 7.36 0 0 0 .253 3.685 7.35 7.35 0 0 0 2.43 2.784 7.36 7.36 0 0 0-2.43 2.784 7.35 7.35 0 0 0-.253 3.685 7.35 7.35 0 0 0-3.685.253 7.35 7.35 0 0 0-2.779 2.427 7.35 7.35 0 0 0-2.785-2.426 7.35 7.35 0 0 0-3.684-.253 7.36 7.36 0 0 0-.26-3.686 7.35 7.35 0 0 0-2.425-2.785 7.36 7.36 0 0 0 2.426-2.784 7.4 7.4 0 0 0 .254-3.685c1.23.23 2.497.143 3.684-.253a7.36 7.36 0 0 0 2.79-2.426 7.36 7.36 0 0 0 2.779 2.427"/><path stroke="#264887" stroke-linecap="round" stroke-linejoin="round" stroke-width="1.25" d="M30.001 2v36.692M17.854 8.198 45 35.344M15.002 20.346H45M15 35.384 42.146 8.237"/><path fill="#D32D27" d="M28.25 36a.25.25 0 0 1-.248-.215l-.237-1.663-.46-.436c-.19.287-.5.314-.805.314s-.614-.027-.806-.314l-.459.435-.238 1.664a.25.25 0 0 1-.283.213.25.25 0 0 1-.212-.283l.25-1.75a.25.25 0 0 1 .075-.147l.696-.66-.009-.081-1.35.386-.7 1.166a.25.25 0 0 1-.343.086.25.25 0 0 1-.086-.344l.75-1.25a.25.25 0 0 1 .146-.111l1.434-.41-1.463-.62a.25.25 0 0 1-.15-.203l-.25-2.25a.25.25 0 0 1 .22-.277h.028a.25.25 0 0 1 .248.223l.234 2.104 1.366.579q.03-.087.069-.17a1.89 1.89 0 0 1-.917-1.754c0-1.198.84-2.015 1.5-2.195V24.25a.25.25 0 0 1 .5 0v3.787c.659.18 1.498.998 1.5 2.208a1.89 1.89 0 0 1-.917 1.741q.039.083.07.17l1.364-.58.234-2.104a.25.25 0 0 1 .498.055l-.25 2.25a.25.25 0 0 1-.151.203l-1.462.62 1.433.409a.25.25 0 0 1 .146.112l.75 1.25a.25.25 0 0 1 .028.189.25.25 0 0 1-.457.069l-.7-1.166-1.35-.386-.01.081.696.66c.04.039.067.091.075.147l.25 1.75a.25.25 0 0 1-.247.285m-2.23-3.489-.008.042a1 1 0 0 0-.012.193c0 .754.136.754.5.754s.5 0 .5-.75a1.2 1.2 0 0 0-.128-.566 2 2 0 0 1-.352.065h-.04a2 2 0 0 1-.352-.065 1.2 1.2 0 0 0-.108.328m.48-4.011c-.321 0-1.25.602-1.25 1.75a1.404 1.404 0 0 0 1.25 1.499 1.396 1.396 0 0 0 1.25-1.482v-.017c0-1.148-.929-1.75-1.25-1.75"/><path fill="#D32D27" d="M26.5 28.5c-.321 0-1.25.602-1.25 1.75a1.404 1.404 0 0 0 1.25 1.499 1.396 1.396 0 0 0 1.25-1.482v-.017c0-1.148-.929-1.75-1.25-1.75m-.48 4.012-.008.041a1 1 0 0 0-.012.193c0 .754.136.754.5.754s.5 0 .5-.75a1.2 1.2 0 0 0-.128-.566 2 2 0 0 1-.352.065h-.04a2 2 0 0 1-.352-.065 1.2 1.2 0 0 0-.108.328"/><path fill="#D32D27" d="M26.5 30.75a.75.75 0 0 1-.53-1.28.25.25 0 1 1 .354.354.25.25 0 0 0 0 .354.25.25 0 0 0 .353-.355.25.25 0 1 1 .354-.354.75.75 0 0 1-.531 1.281"/><path stroke="#EDBF0E" stroke-linecap="round" stroke-linejoin="round" d="m37.104 2.104 2.376 2.375m-.084-2.375L37.02 4.479"/></svg>