<svg xmlns="http://www.w3.org/2000/svg" width="60" height="40" fill="none"><path fill="#fff" d="M42.862 3.714H8.33A2.33 2.33 0 0 0 6 6.044v29.867a2.33 2.33 0 0 0 2.33 2.33h34.532a2.33 2.33 0 0 0 2.33-2.33V6.045a2.33 2.33 0 0 0-2.33-2.33"/><path fill="#B5D9F1" d="M6 32.537V5.711a2.33 2.33 0 0 1 2.331-2.33h27.264z"/><path stroke="#264887" stroke-linecap="round" stroke-linejoin="round" stroke-width="1.25" d="M42.862 3.38H8.33A2.33 2.33 0 0 0 6 5.712v29.867a2.33 2.33 0 0 0 2.33 2.33h34.532a2.33 2.33 0 0 0 2.33-2.33V5.71a2.33 2.33 0 0 0-2.33-2.33"/><path fill="#fff" d="M42.862 3.38H8.33A2.33 2.33 0 0 0 6 5.712v4.662h39.192V5.71a2.33 2.33 0 0 0-2.33-2.33"/><path fill="#264887" stroke="#264887" stroke-linecap="round" stroke-linejoin="round" stroke-width=".774" d="M9.496 8.042a1.165 1.165 0 1 0 0-2.331 1.165 1.165 0 0 0 0 2.331m4.661 0a1.166 1.166 0 1 0 0-2.331 1.166 1.166 0 0 0 0 2.331m4.662 0a1.166 1.166 0 1 0 0-2.331 1.166 1.166 0 0 0 0 2.331"/><path stroke="#264887" stroke-linecap="round" stroke-linejoin="round" stroke-width="1.25" d="M42.862 3.38H8.33A2.33 2.33 0 0 0 6 5.712v4.66h39.192v-4.66a2.33 2.33 0 0 0-2.33-2.33"/><path fill="#fff" d="M42.913 20.185a9.592 9.592 0 1 0 0-19.185 9.592 9.592 0 0 0 0 19.185"/><path fill="#D32D27" stroke="#264887" stroke-linecap="round" stroke-linejoin="round" stroke-width="1.25" d="M42.913 1a9.592 9.592 0 1 0 0 19.184 9.592 9.592 0 0 0 0-19.184m0 3.197c1.144 0 2.266.307 3.249.89l-8.748 8.749a6.384 6.384 0 0 1 5.503-9.639zm0 12.79a6.36 6.36 0 0 1-3.243-.891l8.748-8.748a6.387 6.387 0 0 1-5.505 9.643z"/><path fill="#fff" stroke="#264887" stroke-width="1.25" d="M11.238 10.375a1.863 1.863 0 0 0-1.863 1.863v7.524c0 1.029.834 1.863 1.863 1.863h16.524a1.863 1.863 0 0 0 1.863-1.863v-7.524a1.863 1.863 0 0 0-1.863-1.863z"/><path stroke="#90C6EB" stroke-linecap="round" stroke-linejoin="round" stroke-width="1.099" d="M18 13.5h9M18 16h9"/><path stroke="#D32D27" stroke-linecap="round" stroke-linejoin="round" stroke-width="1.099" d="M21 19h6"/><path fill="#264887" d="M15.063 13.98h-.157v-.574a1.406 1.406 0 0 0-2.812 0v.573h-.156a.417.417 0 0 0-.417.417v2.187a.417.417 0 0 0 .416.417h3.126a.417.417 0 0 0 .416-.417v-2.187a.416.416 0 0 0-.416-.417M13.5 15.853a.417.417 0 1 1 0-.833.417.417 0 0 1 0 .833m.885-1.979a.104.104 0 0 1-.104.104H12.72a.104.104 0 0 1-.104-.104v-.469a.885.885 0 0 1 1.77 0z"/><path stroke="#B5D9F1" stroke-linecap="round" stroke-linejoin="round" d="M50 27.768 51.768 26l1.768 1.768-1.768 1.768zm6.104-10.664 2.376 2.376m-.084-2.376L56.02 19.48"/></svg>