<svg xmlns="http://www.w3.org/2000/svg" width="14" height="14" fill="none"><path fill="#748193" d="M13.222 9.88a.707.707 0 0 0-.707.707v1.083a.917.917 0 0 1-.916.915H2.401a.917.917 0 0 1-.916-.915v-1.082a.707.707 0 0 0-1.414 0v1.082a2.333 2.333 0 0 0 2.33 2.333h9.198a2.333 2.333 0 0 0 2.333-2.333v-1.082a.707.707 0 0 0-.71-.707"/><path fill="#768498" d="M7 0a1.13 1.13 0 0 0-1.131 1.131V6.42a.146.146 0 0 1-.146.145H4.172a.566.566 0 0 0-.427.937l2.828 3.253a.566.566 0 0 0 .854 0l2.828-3.253a.565.565 0 0 0-.427-.937H8.277a.146.146 0 0 1-.146-.145V1.13A1.13 1.13 0 0 0 7 0"/></svg>