<svg xmlns="http://www.w3.org/2000/svg" width="60" height="40" fill="none"><path stroke="#D7DBE0" stroke-linecap="round" stroke-linejoin="round" stroke-width=".812" d="m3.083 15.083 1.9 1.9m-.066-1.9-1.9 1.9"/><path stroke="#D7DBE0" stroke-linecap="round" stroke-linejoin="round" d="M48.103 2.103 50.44 4.44m-.081-2.337L48.02 4.44M7 6.74 8.741 5l1.741 1.74-1.74 1.742z"/><path fill="#fff" d="M34 24.771v6.755a3.87 3.87 0 0 1-3.872 3.87h-9.256A3.87 3.87 0 0 1 17 31.526V9.518a3.87 3.87 0 0 1 3.872-3.872h7.885a4.88 4.88 0 0 1 3.831 1.855 5.06 5.06 0 0 1 1.095 3.018z"/><path stroke="#D7DBE0" stroke-linecap="round" stroke-linejoin="round" stroke-width="1.25" d="M34.435 25.223v6.81a3.903 3.903 0 0 1-3.904 3.904h-9.334a3.904 3.904 0 0 1-3.905-3.904V9.842a3.9 3.9 0 0 1 3.904-3.905h3.596"/><path fill="#D7DBE0" d="M25.709 32.77a1.417 1.417 0 1 0 0-2.832 1.417 1.417 0 0 0 0 2.833"/><path fill="#D7DBE0" stroke="#D7DBE0" stroke-linecap="round" stroke-linejoin="round" stroke-width="1.417" d="M30.292 11.375h12.75V22h-12.75z"/><path stroke="#D7DBE0" stroke-linecap="round" stroke-linejoin="round" stroke-width="1.417" d="M36.667 5a4.25 4.25 0 0 0-4.25 4.25v2.125h8.5V9.25A4.25 4.25 0 0 0 36.667 5"/><path fill="#fff" stroke="#fff" stroke-linecap="round" stroke-linejoin="round" stroke-width="1.417" d="M36.667 16.199a.53.53 0 1 0 0 1.061.53.53 0 0 0 0-1.061"/><path stroke="#D7DBE0" stroke-linecap="round" stroke-linejoin="round" d="M45 28h2.462v2.462H45z"/></svg>