<svg xmlns="http://www.w3.org/2000/svg" width="24" height="24" fill="none"><path fill="#BAC0CA" d="M.62 23.38a1.2 1.2 0 0 0 .88.37 1.2 1.2 0 0 0 .88-.37l4.12-4.11a.24.24 0 0 1 .35 0l1.44 1.44A1 1 0 0 0 9 21a1 1 0 0 0 1-1v-5a1 1 0 0 0-1-1H4a1 1 0 0 0-.92.62 1 1 0 0 0 .21 1.09l1.44 1.44a.24.24 0 0 1 0 .35L.62 21.62a1.24 1.24 0 0 0 0 1.76M23.38.62a1.24 1.24 0 0 0-1.76 0L17.5 4.73a.24.24 0 0 1-.35 0l-1.44-1.44A1 1 0 0 0 14 4v5a1 1 0 0 0 1 1h5a1 1 0 0 0 .92-.62 1 1 0 0 0-.21-1.09l-1.44-1.44a.24.24 0 0 1 0-.35l4.11-4.12a1.24 1.24 0 0 0 0-1.76"/></svg>