<svg xmlns="http://www.w3.org/2000/svg" width="238" height="38" fill="none"><path fill="#3C4B53" d="M0 0h238v38H0z"/><path fill="#88959E" d="M67.969 25h-6.461V13.578h6.46v1.578h-4.593v3.11h4.305v1.562h-4.305v3.586h4.594zm9.562 0h-1.844v-5.328q0-.993-.374-1.477-.375-.492-1.172-.492-1.064 0-1.563.695-.492.688-.492 2.297V25H70.25v-8.64h1.438l.257 1.132h.094q.36-.617 1.04-.953a3.4 3.4 0 0 1 1.507-.336q1.992 0 2.64 1.36h.126q.382-.641 1.078-1 .695-.36 1.593-.36 1.548 0 2.25.781.711.781.711 2.383V25h-1.836v-5.328q0-.993-.382-1.477-.375-.492-1.172-.492-1.07 0-1.57.672-.493.664-.493 2.047zm11.79.156q-2.017 0-3.157-1.172-1.133-1.18-1.133-3.242 0-2.116 1.055-3.328 1.055-1.21 2.898-1.21 1.711 0 2.704 1.038.992 1.04.992 2.86v.992h-5.758q.038 1.257.68 1.937.64.672 1.804.672.766 0 1.422-.14.665-.149 1.422-.485v1.492a5.6 5.6 0 0 1-1.36.453 8.3 8.3 0 0 1-1.57.133m-.337-7.562q-.875 0-1.406.554-.523.556-.625 1.618h3.922q-.015-1.07-.516-1.618-.5-.555-1.375-.554m10.164-1.39q.555 0 .914.077l-.18 1.711a3.5 3.5 0 0 0-.812-.094q-1.1 0-1.789.72-.68.717-.68 1.866V25h-1.835v-8.64h1.437l.242 1.523h.094a3.44 3.44 0 0 1 1.117-1.227 2.7 2.7 0 0 1 1.492-.453m9.821.155v1.008l-1.477.274q.204.273.336.672.133.398.133.843 0 1.335-.922 2.102-.922.765-2.539.765-.414 0-.75-.062-.594.367-.594.86 0 .296.274.445.28.148 1.023.148h1.508q1.43 0 2.172.61t.742 1.757q0 1.47-1.211 2.266-1.21.797-3.5.797-1.765 0-2.695-.625t-.93-1.782q0-.796.5-1.343.508-.54 1.414-.75a1.4 1.4 0 0 1-.609-.5 1.3 1.3 0 0 1-.235-.735q0-.484.274-.82.273-.336.812-.664a2.43 2.43 0 0 1-1.093-.937q-.414-.656-.414-1.532 0-1.406.882-2.18.891-.773 2.532-.773.367 0 .765.055.406.047.61.101zm-6.789 9.985q0 .593.531.914.539.32 1.508.32 1.5 0 2.234-.43.735-.429.735-1.14 0-.562-.407-.805-.398-.234-1.492-.234h-1.391q-.789 0-1.257.367-.462.375-.461 1.008m.789-7.188q0 .813.414 1.25.422.438 1.203.438 1.593 0 1.594-1.703 0-.844-.399-1.297-.39-.462-1.195-.461-.797 0-1.211.453-.406.453-.406 1.32m11.383 6q-2.016 0-3.157-1.172-1.133-1.18-1.133-3.242 0-2.116 1.055-3.328 1.054-1.21 2.899-1.21 1.71 0 2.703 1.038.992 1.04.992 2.86v.992h-5.758q.04 1.257.68 1.937.64.672 1.805.672.765 0 1.421-.14a7.7 7.7 0 0 0 1.422-.485v1.492a5.6 5.6 0 0 1-1.359.453 8.3 8.3 0 0 1-1.57.133m-.336-7.562q-.875 0-1.407.554-.523.556-.625 1.618h3.922q-.015-1.07-.515-1.618-.5-.555-1.375-.554M127.398 25h-1.843v-5.312q0-1-.407-1.493-.398-.492-1.273-.492-1.164 0-1.703.688t-.539 2.304V25h-1.836v-8.64h1.437l.258 1.132h.094q.39-.617 1.109-.953a3.7 3.7 0 0 1 1.594-.336q3.11 0 3.109 3.164zm6.04.156q-1.962 0-2.985-1.14-1.015-1.148-1.015-3.29 0-2.18 1.062-3.351 1.07-1.172 3.086-1.172 1.367 0 2.461.508l-.555 1.477q-1.164-.454-1.922-.454-2.241 0-2.242 2.977 0 1.454.555 2.187.563.727 1.64.727 1.227 0 2.321-.61v1.602a3.6 3.6 0 0 1-1.055.414q-.555.125-1.351.125m3.124-8.797h2l1.758 4.899q.399 1.047.532 1.969h.062q.07-.43.258-1.04.187-.617 1.984-5.828h1.985l-3.696 9.79q-1.007 2.694-3.359 2.695-.609 0-1.188-.133v-1.453q.415.094.946.094 1.328 0 1.867-1.54l.32-.812zM157.891 25l-1.141-3.172h-4.367L151.266 25h-1.969l4.273-11.469h2.032L159.875 25zm-1.633-4.781-1.07-3.11a24 24 0 0 1-.61-1.969q-.21.962-.617 2.102l-1.031 2.977zm8.414 4.937q-1.96 0-2.984-1.14-1.017-1.148-1.016-3.29 0-2.18 1.062-3.351 1.071-1.172 3.086-1.172 1.368 0 2.461.508l-.554 1.477q-1.164-.454-1.922-.454-2.243 0-2.243 2.977 0 1.454.555 2.187.563.727 1.641.727 1.227 0 2.32-.61v1.602a3.6 3.6 0 0 1-1.055.414q-.554.125-1.351.125m7.922 0q-1.961 0-2.985-1.14-1.015-1.148-1.015-3.29 0-2.18 1.062-3.351 1.07-1.172 3.086-1.172 1.368 0 2.461.508l-.555 1.477q-1.164-.454-1.921-.454-2.243 0-2.243 2.977 0 1.454.555 2.187.563.727 1.641.727 1.226 0 2.32-.61v1.602a3.6 3.6 0 0 1-1.055.414q-.554.125-1.351.125m8.211 0q-2.016 0-3.157-1.172-1.132-1.18-1.132-3.242 0-2.116 1.054-3.328 1.055-1.21 2.899-1.21 1.71 0 2.703 1.038.992 1.04.992 2.86v.992h-5.758q.04 1.257.68 1.937.64.672 1.805.672.765 0 1.421-.14a7.7 7.7 0 0 0 1.422-.485v1.492a5.6 5.6 0 0 1-1.359.453 8.3 8.3 0 0 1-1.57.133m-.336-7.562q-.875 0-1.407.554-.523.556-.624 1.618h3.921q-.015-1.07-.515-1.618-.5-.555-1.375-.554m11.586 4.945q0 1.266-.922 1.945-.922.672-2.641.672-1.726 0-2.773-.523v-1.586q1.523.703 2.836.703 1.695 0 1.695-1.023a.8.8 0 0 0-.188-.547q-.186-.219-.617-.453a11 11 0 0 0-1.195-.532q-1.492-.577-2.023-1.156-.524-.578-.524-1.5 0-1.11.891-1.719.898-.617 2.437-.617 1.524 0 2.883.617l-.594 1.383q-1.398-.578-2.351-.578-1.453 0-1.453.828 0 .406.375.688.382.28 1.656.773 1.07.414 1.555.758t.718.797q.235.445.235 1.07m7.797 0q0 1.266-.922 1.945-.922.672-2.641.672-1.726 0-2.773-.523v-1.586q1.523.703 2.836.703 1.695 0 1.695-1.023a.8.8 0 0 0-.188-.547q-.187-.219-.617-.453a11 11 0 0 0-1.195-.532q-1.492-.577-2.024-1.156-.523-.578-.523-1.5 0-1.11.891-1.719.898-.617 2.437-.617 1.524 0 2.883.617l-.594 1.383q-1.398-.578-2.351-.578-1.454 0-1.454.828 0 .406.376.688.382.28 1.656.773 1.07.414 1.554.758.485.344.719.797.235.445.235 1.07"/><path fill="#88959E" fill-rule="evenodd" d="M29 7c-6.628 0-12 5.365-12 11.984s5.372 11.983 12 11.983c6.627 0 12-5.365 12-11.983S35.627 7 29 7m5.917 2.684a11.1 11.1 0 0 1 3.394 3.389l-2.457 2.456a7.73 7.73 0 0 0-3.395-3.39zm-11.836 0 2.46 2.455a7.72 7.72 0 0 0-3.395 3.39l-2.459-2.456c.87-1.362 2.03-2.52 3.394-3.39m0 18.6a11.1 11.1 0 0 1-3.394-3.39l2.46-2.455a7.73 7.73 0 0 0 3.393 3.389zM29 25.693a6.715 6.715 0 0 1-6.72-6.71A6.715 6.715 0 0 1 29 12.272a6.715 6.715 0 0 1 6.72 6.71A6.715 6.715 0 0 1 29 25.694m5.917 2.59-2.458-2.456a7.73 7.73 0 0 0 3.393-3.39l2.46 2.456a11.1 11.1 0 0 1-3.395 3.39" clip-rule="evenodd"/></svg>