<svg xmlns="http://www.w3.org/2000/svg" width="60" height="40" fill="none"><path stroke="#264887" stroke-linecap="round" stroke-linejoin="round" stroke-width="1.25" d="M11.636 39.119H47.69M7 39.016h2.575m40.176 0h2.576"/><path fill="#fff" stroke="#264887" stroke-linecap="round" stroke-linejoin="round" stroke-width="1.25" d="M43.817 14.28V6.2a1.236 1.236 0 0 0-1.236-1.236h-3.458A1.236 1.236 0 0 0 37.887 6.2v2.948z"/><path fill="#fff" d="M45.34 39.056H15.695V21.48L30.517 8.624 45.34 21.479z"/><path fill="#B5D9F1" d="M30.518 8.626 15.696 21.48v2.973l13.36-11.59a2.23 2.23 0 0 1 2.922 0L45.34 24.451V21.48z"/><path stroke="#264887" stroke-linecap="round" stroke-linejoin="round" stroke-width="1.25" d="M45.34 39.056H15.695V21.48L30.517 8.624 45.34 21.479z"/><path fill="#D32D27" d="M14.255 22.01a2.223 2.223 0 0 1-1.442-3.914L29.077 4.013a2.215 2.215 0 0 1 2.885 0l16.26 14.08a2.224 2.224 0 1 1-2.885 3.386L30.517 8.626 15.696 21.48a2.2 2.2 0 0 1-1.44.53"/><path fill="#E78C89" d="m12.816 20.563 16.261-14.08a2.215 2.215 0 0 1 2.885 0l16.26 14.08q.229.203.396.458a2.2 2.2 0 0 0-.396-2.928L31.958 4.013a2.215 2.215 0 0 0-2.885 0l-16.257 14.08a2.2 2.2 0 0 0-.397 2.929q.166-.256.397-.459"/><path stroke="#264887" stroke-linecap="round" stroke-linejoin="round" stroke-width="1.25" d="M14.255 22.01a2.223 2.223 0 0 1-1.442-3.914L29.077 4.013a2.215 2.215 0 0 1 2.885 0l16.26 14.08a2.224 2.224 0 1 1-2.885 3.386L30.517 8.626 15.696 21.48a2.2 2.2 0 0 1-1.44.53"/><path fill="#E78C89" stroke="#264887" stroke-linecap="round" stroke-linejoin="round" stroke-width="1.25" d="M39.37 4.965h2.964V3.236A1.236 1.236 0 0 0 41.098 2h-.493a1.236 1.236 0 0 0-1.236 1.236z"/><path fill="#fff" stroke="#264887" stroke-linecap="round" stroke-linejoin="round" stroke-width="1.25" d="M30.477 39.056H18.62V37.12a1.03 1.03 0 0 1 1.03-1.03h9.798a1.03 1.03 0 0 1 1.03 1.03z"/><path fill="#264887" stroke="#264887" stroke-linecap="round" stroke-linejoin="round" stroke-width="1.25" d="M28.995 36.09h-8.893v-6.668a4.445 4.445 0 0 1 6.164-4.17 4.45 4.45 0 0 1 2.729 4.17z"/><path stroke="#fff" stroke-linecap="round" stroke-linejoin="round" stroke-width="1.604" d="M26.031 32.386v-1.483"/><path fill="#B5D9F1" d="M30.477 20.528a2.965 2.965 0 1 0 0-5.93 2.965 2.965 0 0 0 0 5.93"/><path fill="#fff" d="M32.574 15.469a2.965 2.965 0 0 0-4.193 4.191z"/><path stroke="#264887" stroke-linecap="round" stroke-linejoin="round" stroke-width="1.25" d="M30.477 20.528a2.965 2.965 0 1 0 0-5.93 2.965 2.965 0 0 0 0 5.93"/><path fill="#B5D9F1" d="M39.822 25.716h-3.869a1.03 1.03 0 0 0-1.03 1.03v6.834c0 .568.462 1.03 1.03 1.03h3.869a1.03 1.03 0 0 0 1.03-1.03v-6.833a1.03 1.03 0 0 0-1.03-1.03"/><path fill="#fff" d="M40.833 26.86a1.225 1.225 0 0 0-1.215-1.143h-3.459a1.236 1.236 0 0 0-1.236 1.236v5.818z"/><path stroke="#264887" stroke-linecap="round" stroke-linejoin="round" stroke-width="1.25" d="M39.822 25.716h-3.869a1.03 1.03 0 0 0-1.03 1.03v6.834c0 .568.462 1.03 1.03 1.03h3.869a1.03 1.03 0 0 0 1.03-1.03v-6.833a1.03 1.03 0 0 0-1.03-1.03"/><path stroke="#E78C89" stroke-linecap="round" stroke-linejoin="round" d="M54 11h2.5v2.5H54z"/><path stroke="#E78C89" d="M4.25 6.5a1.25 1.25 0 1 0 0-2.5 1.25 1.25 0 0 0 0 2.5Z" clip-rule="evenodd"/><path stroke="#E78C89" stroke-linecap="round" stroke-linejoin="round" d="M10 10.768 11.768 9l1.767 1.768-1.767 1.768z"/><path stroke="#E78C89" stroke-linecap="round" d="M17.104 2.104 19.48 4.48m-.084-2.376L17.02 4.48"/></svg>