<svg xmlns="http://www.w3.org/2000/svg" width="60" height="40" fill="none"><path fill="#B5D9F1" stroke="#264887" stroke-linecap="round" stroke-linejoin="round" stroke-width="1.25" d="M43.76 6.32H14v22.56h29.76z"/><path fill="#fff" stroke="#264887" stroke-linecap="round" stroke-linejoin="round" stroke-width="1.25" d="M28.88 9.2h-12V26h12z"/><path fill="#fff" d="M43.76 6.32H14V3.374A1.373 1.373 0 0 1 15.374 2h27.012a1.374 1.374 0 0 1 1.374 1.374z"/><path fill="#B5D9F1" d="M42.316 2H15.443a1.44 1.44 0 0 0-1.442 1.442v.425h29.76v-.425A1.44 1.44 0 0 0 42.316 2"/><path fill="#fff" stroke="#264887" stroke-linecap="round" stroke-linejoin="round" stroke-width="1.25" d="M43.073 37.519H14.687a.687.687 0 0 1-.687-.687v-7.955h29.76v7.955a.687.687 0 0 1-.687.687"/><path fill="#B5D9F1" stroke="#264887" stroke-linecap="round" stroke-linejoin="round" stroke-width="1.25" d="M37.04 33.2a1.44 1.44 0 0 1-1.44 1.44H22.16a1.44 1.44 0 1 1 0-2.88H35.6a1.44 1.44 0 0 1 1.44 1.44"/><path fill="#fff" d="M35.12 31.76H22.64s-.315 4.105-.947 6.168a.796.796 0 0 0 .764 1.03h12.846a.797.797 0 0 0 .764-1.03c-.63-2.063-.947-6.169-.947-6.169m8.64.739h4.2a1.44 1.44 0 1 0 0-2.88h-4.2z"/><path fill="#B5D9F1" d="M45.14 29.618h-1.38v2.88h1.38z"/><path stroke="#264887" stroke-linecap="round" stroke-linejoin="round" stroke-width="1.25" d="M43.76 32.498h4.2a1.44 1.44 0 1 0 0-2.88h-4.2z"/><path stroke="#264887" stroke-linecap="round" stroke-linejoin="round" stroke-width=".572" d="M47.96 29.617V19.545"/><path fill="#fff" stroke="#264887" stroke-linecap="round" stroke-linejoin="round" stroke-width="1.25" d="M40.88 9.2h-12V26h12z"/><path fill="#B5D9F1" stroke="#264887" stroke-linecap="round" stroke-linejoin="round" stroke-width="1.25" d="m14 6.32 2.88 2.88h24l2.88-2.88zM16.88 26 14 28.88h29.76L40.88 26z"/><path stroke="#D32D27" stroke-linecap="round" stroke-linejoin="round" stroke-width=".572" d="M25.04 36.079h7.68m-5.28-1.919h5.28"/><path stroke="#264887" stroke-linecap="round" stroke-linejoin="round" stroke-width="1.25" d="M35.12 31.76H22.64s-.315 4.105-.947 6.168a.796.796 0 0 0 .764 1.03h12.846a.797.797 0 0 0 .764-1.03c-.63-2.063-.947-6.169-.947-6.169M43.76 6.32H14V3.374A1.373 1.373 0 0 1 15.374 2h27.012a1.374 1.374 0 0 1 1.374 1.374z"/><path fill="#D32D27" d="M47.96 19.546a2.6 2.6 0 1 0 0-5.2 2.6 2.6 0 0 0 0 5.2"/><path stroke="#264887" stroke-linecap="round" stroke-linejoin="round" stroke-width="1.25" d="M47.96 19.546a2.6 2.6 0 1 0 0-5.2 2.6 2.6 0 0 0 0 5.2"/><path fill="#264887" fill-rule="evenodd" stroke="#264887" stroke-dasharray="43 1.66 0.24 0.95" stroke-linecap="round" stroke-width=".457" d="M25.697 14.8a3.08 3.08 0 0 0-3.088-3.071 3.08 3.08 0 0 0-3.089 3.07c0 1.406.951 2.587 2.246 2.952v.677l-.561.558.561.558v.559l-.561.558.561.558v.837l.843.838.842-.837V17.75a3.07 3.07 0 0 0 2.246-2.952Z" clip-rule="evenodd"/><path fill="#fff" fill-rule="evenodd" d="M23.202 14.46a.594.594 0 1 1-1.188 0 .594.594 0 0 1 1.188 0" clip-rule="evenodd"/><path fill="#264887" fill-rule="evenodd" stroke="#264887" stroke-dasharray="43 1.66 0.24 0.95" stroke-linecap="round" stroke-width=".457" d="M38.287 14.8a3.08 3.08 0 0 0-3.088-3.071 3.08 3.08 0 0 0-3.088 3.07c0 1.406.95 2.587 2.246 2.952v.677l-.562.558.562.558v.559l-.562.558.562.558v.837l.842.838.842-.837V17.75a3.07 3.07 0 0 0 2.246-2.952Z" clip-rule="evenodd"/><path fill="#fff" fill-rule="evenodd" d="M35.793 14.46a.594.594 0 1 1-1.188 0 .594.594 0 0 1 1.188 0" clip-rule="evenodd"/><path stroke="#B5D9F1" d="M4.25 36.5a1.25 1.25 0 1 0 0-2.5 1.25 1.25 0 0 0 0 2.5Z" clip-rule="evenodd"/><path stroke="#B5D9F1" stroke-linecap="round" stroke-linejoin="round" d="M56 14h2.5v2.5H56z"/><path stroke="#B5D9F1" stroke-linecap="round" d="M7.104 29.104 9.48 31.48m-.084-2.376L7.02 31.48M52.104 9.104l2.376 2.375m-.084-2.375L52.02 11.48"/></svg>