<svg xmlns="http://www.w3.org/2000/svg" width="18" height="14" fill="none"><path fill="#40526D" d="M11.6 5.669a.174.174 0 0 1-.15-.173v-.713a2.45 2.45 0 1 0-4.9 0v.713a.174.174 0 0 1-.15.173 1.05 1.05 0 0 0-.9 1.04v3.85a1.05 1.05 0 0 0 1.05 1.05h4.9a1.05 1.05 0 0 0 1.05-1.05v-3.85a1.05 1.05 0 0 0-.9-1.04M9.7 8.984a.7.7 0 1 1-1.4 0 .7.7 0 0 1 1.4 0m-1.75-4.2a1.05 1.05 0 0 1 2.1 0v.7a.175.175 0 0 1-.175.175h-1.75a.175.175 0 0 1-.175-.175z"/><path fill="#40526D" d="M9.7 8.984a.7.7 0 1 1-1.4 0 .7.7 0 0 1 1.4 0"/><rect width="13" height="13" x="2.5" y=".5" stroke="#40526D" rx="1.5"/><path fill="#40526D" d="M2.6 11.804a.197.197 0 0 1-.283 0L.65 10.07a.197.197 0 0 1 .142-.333h3.334c.174 0 .262.208.142.333zm12.816-9.657a.197.197 0 0 1 .283 0l1.668 1.733a.197.197 0 0 1-.142.333H13.89a.197.197 0 0 1-.141-.333z"/></svg>