<svg xmlns="http://www.w3.org/2000/svg" width="36" height="36" fill="none"><path fill="#fff" stroke="#EDEFF1" d="M3.31.5h29.38a2.81 2.81 0 0 1 2.81 2.81v29.38a2.81 2.81 0 0 1-2.81 2.81H3.31A2.81 2.81 0 0 1 .5 32.69V3.31A2.81 2.81 0 0 1 3.31.5Z"/><path fill="#4285F4" d="M7.636 26.789h3.819v-9.165L6 13.582v11.59c0 .893.733 1.617 1.636 1.617"/><path fill="#34A853" d="M24.545 26.789h3.818c.904 0 1.637-.724 1.637-1.618v-11.59l-5.455 4.043z"/><path fill="#FBBC04" d="M24.545 10.617v7.007L30 13.582v-2.156C30 10.086 28.9 9 27.545 9c-.531 0-1.048.17-1.473.486z"/><path fill="#EA4335" d="M11.455 17.624v-7.007L18 15.47l6.545-4.852v7.007L18 22.476z"/><path fill="#C5221F" d="M6.001 11.426v2.155l5.455 4.043v-7.007L9.929 9.485a2.474 2.474 0 0 0-3.437.485c-.319.42-.49.931-.49 1.456"/></svg>