<svg xmlns="http://www.w3.org/2000/svg" width="16" height="16" fill="none"><path fill="#3B70D4" d="M2.69 14.122 14.003 2.808 13.195 2 1.881 13.314zM8 3.118c.974 0 1.907.177 2.768.501L9.327 5.06a3.335 3.335 0 0 0-4.385 4.385l-1.908 1.908A7.9 7.9 0 0 1 .667 8.118c1.153-2.926 4-5 7.333-5"/><path fill="#3B70D4" d="M8 6.118q.129 0 .253.016L6.016 8.371A1.997 1.997 0 0 1 8 6.118M9.95 7.67l-2.4 2.398q.218.05.449.05A1.997 1.997 0 0 0 9.95 7.67"/><path fill="#3B70D4" d="M8 11.452a3.3 3.3 0 0 1-1.484-.348l-1.45 1.449A7.8 7.8 0 0 0 8 13.118c3.333 0 6.18-2.073 7.333-5a7.9 7.9 0 0 0-2.495-3.336l-1.853 1.852A3.335 3.335 0 0 1 8 11.451"/></svg>