<svg xmlns="http://www.w3.org/2000/svg" width="48" height="48" fill="none"><circle cx="24" cy="24" r="24" fill="#FAF4DE"/><g fill="#9B7C09" clip-path="url(#a)"><path d="M31.452 19.5H16.547a.5.5 0 0 0-.5.545l1.287 14.136A2 2 0 0 0 19.326 36h9.347a2 2 0 0 0 1.992-1.819l1.285-14.136a.5.5 0 0 0-.498-.545m-9.2 13a.75.75 0 0 1-1.5 0v-9a.75.75 0 1 1 1.5 0zm5 0a.75.75 0 0 1-1.5 0v-9a.75.75 0 1 1 1.5 0zM34 16h-4.75a.25.25 0 0 1-.25-.25V14.5a2.5 2.5 0 0 0-2.5-2.5h-5a2.5 2.5 0 0 0-2.5 2.5v1.25a.25.25 0 0 1-.25.25H14a1 1 0 0 0 0 2h20a1 1 0 0 0 0-2m-13-.25V14.5a.5.5 0 0 1 .5-.5h5a.5.5 0 0 1 .5.5v1.25a.25.25 0 0 1-.25.25h-5.5a.25.25 0 0 1-.25-.25"/></g><defs><clipPath id="a"><path fill="#fff" d="M12 12h24v24H12z"/></clipPath></defs></svg>