<svg xmlns="http://www.w3.org/2000/svg" width="40" height="40" fill="none"><g fill="#D32D27" clip-path="url(#a)"><path d="M22.5 15A9.96 9.96 0 0 0 20 8.393V4.167a4.167 4.167 0 0 0-8.333 0v.868a10 10 0 0 0-2.5 19.385v1.068L7.744 26.91a.83.83 0 0 0-.243.59.84.84 0 0 0 .243.59l1.423 1.423v.977l-1.423 1.423a.833.833 0 0 0 0 1.179l1.423 1.421v2.154a.83.83 0 0 0 .244.59l2.5 2.5a.835.835 0 0 0 1.18 0l2.5-2.5a.83.83 0 0 0 .243-.59V24.42A10.03 10.03 0 0 0 22.501 15m-10-5a1.666 1.666 0 1 1 0 3.332 1.666 1.666 0 0 1 0-3.332m3.334-8.333a2.5 2.5 0 0 1 2.5 2.5v2.716a10 10 0 0 0-3.333-1.566v3.016h-1.667V4.167a2.5 2.5 0 0 1 2.5-2.5"/><path d="m37.258 30.043-8.667-8.666a9.91 9.91 0 0 0-3.539-12.654.833.833 0 0 0-1.213 1.047 12.45 12.45 0 0 1-4.623 15.75.833.833 0 0 0 .448 1.535h.01a10 10 0 0 0 4.235-.982l1.084.962v2.132a.834.834 0 0 0 .833.833h2.143l.357.373V32.5a.833.833 0 0 0 .833.833h1.865l1.529 1.44a.83.83 0 0 0 .571.227h3.543a.833.833 0 0 0 .834-.833v-3.535a.83.83 0 0 0-.243-.589"/></g><defs><clipPath id="a"><path fill="#fff" d="M0 0h40v40H0z"/></clipPath></defs></svg>