<svg xmlns="http://www.w3.org/2000/svg" width="48" height="48" fill="none"><circle cx="24" cy="24" r="24" fill="#FAF4DE"/><g clip-path="url(#a)"><path fill="#9B7C09" d="M32.485 15.535a12.003 12.003 0 0 0-16.97 16.98 12.136 12.136 0 0 0 16.684.277 12.1 12.1 0 0 0 2.471-3.26 12 12 0 0 0 1.2-3.744q.13-.877.13-1.763a11.93 11.93 0 0 0-3.515-8.49m-15.193 1.758a9.62 9.62 0 0 1 12.23-1.023.263.263 0 0 1 .031.4L16.667 29.562a.265.265 0 0 1-.4-.031 9.5 9.5 0 0 1 1.025-12.238M30.75 30.757a9.52 9.52 0 0 1-12.23 1.023.264.264 0 0 1-.033-.4l12.887-12.893a.264.264 0 0 1 .4.03 9.5 9.5 0 0 1-1.023 12.24"/></g><defs><clipPath id="a"><path fill="#fff" d="M12 12h24v24H12z"/></clipPath></defs></svg>