<svg xmlns="http://www.w3.org/2000/svg" width="16" height="16" fill="none"><path fill="#40526D" d="m15.605 10.457-.578-.24a6.72 6.72 0 0 1 0-4.435l.578-.24a.64.64 0 1 0-.49-1.182l-.577.24A6.72 6.72 0 0 1 11.4 1.465l.24-.578a.64.64 0 1 0-1.183-.493l-.24.578a6.72 6.72 0 0 1-4.435 0l-.24-.578a.64.64 0 1 0-1.182.49l.24.578a6.72 6.72 0 0 1-3.134 3.134l-.58-.236a.64.64 0 1 0-.49 1.183l.578.239c.502 1.436.502 3 0 4.435l-.578.24a.64.64 0 0 0 .49 1.182l.578-.24A6.73 6.73 0 0 1 4.6 14.534l-.24.578a.64.64 0 0 0 .347.837.7.7 0 0 0 .245.052.64.64 0 0 0 .59-.396l.24-.577c1.436-.502 3-.502 4.436 0l.24.578a.64.64 0 1 0 1.182-.49l-.24-.578a6.72 6.72 0 0 1 3.138-3.134l.577.24a.64.64 0 1 0 .49-1.183zm-1.716-.711-1.102-.457a4.33 4.33 0 0 1 0-2.58l1.102-.456a7.7 7.7 0 0 0 0 3.493m-3.867-4.953c.33.456.73.856 1.186 1.186l-2.024.838zM8 6.327l-.838-2.024c.555.09 1.121.09 1.677 0zm-1.182.49L4.793 5.98c.456-.33.857-.73 1.186-1.186zM6.328 8l-2.025.838c.09-.556.09-1.122 0-1.677zm.49 1.182-.84 2.025a5.3 5.3 0 0 0-1.186-1.187zM8 9.672l.839 2.025a5.1 5.1 0 0 0-1.677 0zm1.183-.49 2.025.84a5.3 5.3 0 0 0-1.186 1.185zM9.673 8l2.025-.84a5.3 5.3 0 0 0 0 1.679zM13.4 5.07l-1.102.457a4.3 4.3 0 0 1-1.824-1.824L10.93 2.6a7.7 7.7 0 0 0 2.47 2.47M9.747 2.112 9.29 3.213c-.84.264-1.74.264-2.58 0l-.456-1.102a7.7 7.7 0 0 0 3.493 0M5.072 2.6l.456 1.102a4.33 4.33 0 0 1-1.824 1.825L2.6 5.071A7.7 7.7 0 0 0 5.072 2.6m-2.96 3.653 1.102.457c.262.84.262 1.74 0 2.58l-1.102.456a7.7 7.7 0 0 0 0-3.493M2.6 10.93l1.102-.457a4.33 4.33 0 0 1 1.825 1.825L5.072 13.4A7.7 7.7 0 0 0 2.6 10.928m3.652 2.96.457-1.102a4.3 4.3 0 0 1 2.58 0l.457 1.101a7.7 7.7 0 0 0-3.492 0zm4.676-.49-.456-1.102a4.3 4.3 0 0 1 1.824-1.825l1.102.457a7.66 7.66 0 0 0-2.468 2.47z"/></svg>