<svg xmlns="http://www.w3.org/2000/svg" width="16" height="24" fill="none"><path fill="#fff" d="M2.5 15.494a2 2 0 0 0 2 2h5.333a2 2 0 0 0 2-2v-3.355a.67.67 0 0 0-.196-.474.666.666 0 0 0-.946 0l-3.013 3.01a1.666 1.666 0 0 1-2.445-.098 1.737 1.737 0 0 1 .162-2.333l2.938-2.933a.666.666 0 0 0 0-.947l-.004-.005a.67.67 0 0 0-.474-.196H4.5a2 2 0 0 0-2 2z"/><path fill="#fff" d="M11.282 9.66a.167.167 0 0 1 .235 0l1.415 1.413a.333.333 0 0 0 .57-.235v-4a.333.333 0 0 0-.334-.333h-4a.333.333 0 0 0-.236.568l1.41 1.409a.165.165 0 0 1 0 .236l-4.314 4.304a.667.667 0 1 0 .942.944z"/></svg>