<svg xmlns="http://www.w3.org/2000/svg" width="60" height="40" fill="none"><path fill="#fff" d="M40.348 7.19H16.562A6.56 6.56 0 0 0 10 13.752v17.224a6.56 6.56 0 0 0 6.562 6.562h23.786a6.56 6.56 0 0 0 6.562-6.562V13.752a6.56 6.56 0 0 0-6.562-6.562"/><path fill="#D7DBE0" d="M42.496 37.381H13.803a4.223 4.223 0 0 1-4.22-4.22V11.22A4.223 4.223 0 0 1 13.803 7h23.63a.844.844 0 0 1 0 1.688h-23.63a2.535 2.535 0 0 0-2.532 2.531v21.943a2.535 2.535 0 0 0 2.531 2.531h28.694a2.535 2.535 0 0 0 2.532-2.531V12.908a.844.844 0 0 1 1.687 0v20.254a4.223 4.223 0 0 1-4.22 4.22"/><path fill="#D7DBE0" d="M29.681 30.63a.85.85 0 0 1-.598-.247L24.02 25.32a.844.844 0 0 1 1.193-1.194l4.466 4.466 4.466-4.466a.844.844 0 0 1 1.194 1.194l-5.064 5.063a.83.83 0 0 1-.594.247"/><path fill="#D7DBE0" d="M29.681 30.63a.844.844 0 0 1-.844-.844V26.41C28.837 15.708 37.545 7 48.247 7a.844.844 0 0 1 0 1.688c-9.772 0-17.722 7.95-17.722 17.722v3.376a.844.844 0 0 1-.844.844"/><path stroke="#D7DBE0" stroke-linecap="round" d="m48.104 2.104 2.376 2.375m-.084-2.375L48.02 4.479"/><path stroke="#D7DBE0" stroke-linecap="round" stroke-linejoin="round" d="M2 5h2.5v2.5H2z"/><path stroke="#D7DBE0" stroke-linecap="round" stroke-linejoin="round" d="M54 5.768 55.768 4l1.767 1.768-1.767 1.768z" clip-rule="evenodd"/><path stroke="#D7DBE0" d="M53.25 13.5a1.25 1.25 0 1 0 0-2.5 1.25 1.25 0 0 0 0 2.5Z" clip-rule="evenodd"/></svg>