<svg xmlns="http://www.w3.org/2000/svg" width="60" height="40" fill="none"><path stroke="#CACCEE" d="M53.5 20a1.5 1.5 0 1 0 0-3 1.5 1.5 0 0 0 0 3Z" clip-rule="evenodd"/><path stroke="#CACCEE" stroke-linecap="round" d="m46.103 3.102 2.336 2.337m-.082-2.337L46.02 5.44"/><path stroke="#CACCEE" stroke-linecap="round" stroke-linejoin="round" d="M12 2h3v3h-3z"/><path stroke="#CACCEE" stroke-linecap="round" d="m2.102 16.103 2.337 2.336m-.082-2.336L2.02 18.438"/><path fill="#fff" stroke="#264887" stroke-width="1.385" d="M30.028 9.2v.692H37.2a2.91 2.91 0 0 1 2.908 2.908v7.172h3.572a3.628 3.628 0 0 1 0 7.256h-3.572V34.4a2.91 2.91 0 0 1-2.908 2.908h-5.788V35.12a5.012 5.012 0 0 0-10.024 0v2.188H15.6a2.91 2.91 0 0 1-2.908-2.908v-5.788h2.188a5.012 5.012 0 0 0 0-10.024h-2.188V12.8A2.91 2.91 0 0 1 15.6 9.892h7.172V6.32a3.628 3.628 0 0 1 7.256 0z"/><path fill="#B5D9F1" d="M16.154 12.8a3.6 3.6 0 0 1 3.6-3.6H15.6a3.6 3.6 0 0 0-3.6 3.6v6.48h4.154zm3.6 25.2a3.6 3.6 0 0 1-3.6-3.6v-6.48H12v6.48a3.6 3.6 0 0 0 3.6 3.6z"/><path stroke="#264887" stroke-width="1.25" d="M30.095 9.2v.625H37.2a2.975 2.975 0 0 1 2.975 2.975v7.105h3.505a3.695 3.695 0 1 1 0 7.39h-3.505V34.4a2.975 2.975 0 0 1-2.975 2.975h-5.855V35.12a4.945 4.945 0 1 0-9.89 0v2.255H15.6a2.975 2.975 0 0 1-2.975-2.975v-5.855h2.255a4.945 4.945 0 0 0 0-9.89h-2.255V12.8A2.975 2.975 0 0 1 15.6 9.825h7.105V6.32a3.695 3.695 0 1 1 7.39 0z"/></svg>