<svg xmlns="http://www.w3.org/2000/svg" width="36" height="36" fill="none"><path fill="#0084B1" d="M36 0H0v36h36z"/><path fill="#fff" d="M8.473 5.468a3.025 3.025 0 0 1 3.005 3.02c-.004 1.735-1.444 3.043-3.026 3.005-1.604.032-3.014-1.307-3.013-3.017 0-1.657 1.365-3.01 3.034-3.008m1.751 25.061H6.692a.83.83 0 0 1-.83-.83v-15.07a.83.83 0 0 1 .83-.831h3.532a.83.83 0 0 1 .83.83v15.07a.83.83 0 0 1-.83.83m20.338-11.436a5.72 5.72 0 0 0-5.721-5.721h-.906a5.08 5.08 0 0 0-4.452 2.627l-.048-.005v-1.85a.345.345 0 0 0-.344-.345h-4.408a.345.345 0 0 0-.345.345v16.041c0 .19.155.345.345.345l4.503.001c.19 0 .345-.154.345-.344v-9.268c0-1.602 1.278-2.932 2.88-2.95a2.9 2.9 0 0 1 2.093.852c.527.527.854 1.256.854 2.06v9.307c0 .19.154.344.344.344l4.515.002c.19 0 .344-.155.344-.345z"/></svg>