<svg xmlns="http://www.w3.org/2000/svg" width="16" height="16" fill="none"><g fill="#5A6A81" clip-path="url(#a)"><path d="M4 1.667h9a.667.667 0 0 0 0-1.334H4a.667.667 0 1 0 0 1.334m0 4h9a.667.667 0 0 0 0-1.334H4a.667.667 0 1 0 0 1.334M6.667 9A.667.667 0 0 0 6 8.333H4a.667.667 0 1 0 0 1.334h2A.667.667 0 0 0 6.667 9m-5-8.667H1a.667.667 0 0 0 0 1.334h.667a.667.667 0 1 0 0-1.334m0 4H1a.667.667 0 0 0 0 1.334h.667a.667.667 0 1 0 0-1.334m0 4H1a.667.667 0 0 0 0 1.334h.667a.667.667 0 1 0 0-1.334m10-1a4.333 4.333 0 1 0 0 8.667 4.333 4.333 0 0 0 0-8.667m.5 6a.5.5 0 1 1-1 0v-1a.166.166 0 0 0-.167-.166h-1a.5.5 0 1 1 0-1h1a.166.166 0 0 0 .167-.167v-1a.5.5 0 0 1 1 0v1a.167.167 0 0 0 .167.167h1a.5.5 0 1 1 0 1h-1a.167.167 0 0 0-.167.166z"/></g><defs><clipPath id="a"><path fill="#fff" d="M0 0h16v16H0z"/></clipPath></defs></svg>