<svg xmlns="http://www.w3.org/2000/svg" width="98" height="16" fill="none"><path fill="#D32D27" fill-rule="evenodd" d="M96.729 4.075a.636.636 0 1 1 1.271 0V14.31a.636.636 0 0 1-1.271 0zm-20.337 7.546c1.193 0 2.16-.973 2.16-2.173s-.967-2.173-2.16-2.173-2.161.973-2.161 2.173.967 2.173 2.16 2.173m7.246 0c1.193 0 2.16-.973 2.16-2.173s-.967-2.173-2.16-2.173-2.161.973-2.161 2.173.967 2.173 2.16 2.173m7.246 0c1.193 0 2.16-.973 2.16-2.173s-.967-2.173-2.16-2.173-2.16.973-2.16 2.173.967 2.173 2.16 2.173m-20.098-.075q.015.773-.27 1.357a2.64 2.64 0 0 1-.796.97 3.6 3.6 0 0 1-1.215.582q-.702.195-1.525.21-.47.008-1-.03a12 12 0 0 1-1.06-.127 7 7 0 0 1-1.023-.243 5 5 0 0 1-.907-.38q-.296-.15-.145-.462l.45-1.09q.095-.175.191-.225.098-.05.314.043.709.315 1.572.485a7.4 7.4 0 0 0 1.527.156q.82-.015 1.226-.34a1 1 0 0 0 .395-.828q-.009-.56-.543-.88-.533-.317-1.595-.686a15 15 0 0 1-1.407-.555 4.1 4.1 0 0 1-.998-.63 2.5 2.5 0 0 1-.61-.791 2.4 2.4 0 0 1-.223-1.02 2.85 2.85 0 0 1 .216-1.173q.227-.536.684-.93a3.4 3.4 0 0 1 1.14-.629q.684-.233 1.582-.25.82-.013 1.644.117a8 8 0 0 1 1.59.426q.159.075.19.19a.55.55 0 0 1-.005.27l-.43 1.11q-.056.155-.144.176a.46.46 0 0 1-.245-.034 8 8 0 0 0-1.345-.344 7.5 7.5 0 0 0-1.242-.075q-.723.012-1.05.318t-.32.672q.004.27.115.462a1.1 1.1 0 0 0 .348.351q.238.16.622.327.384.168.934.351.63.221 1.23.471t1.066.61.758.856q.292.498.304 1.212m-9.04 1.357a2.64 2.64 0 0 1-.797.97 3.6 3.6 0 0 1-1.214.582q-.702.195-1.525.21-.47.008-1-.03a12 12 0 0 1-1.06-.127 7 7 0 0 1-1.024-.243 5 5 0 0 1-.907-.38q-.295-.15-.145-.462l.45-1.09q.095-.175.192-.225t.313.043q.71.315 1.572.485a7.4 7.4 0 0 0 1.528.156q.82-.015 1.225-.34a1 1 0 0 0 .396-.828q-.009-.56-.543-.88-.534-.317-1.595-.686a15 15 0 0 1-1.407-.555 4.1 4.1 0 0 1-.998-.63 2.5 2.5 0 0 1-.61-.791 2.4 2.4 0 0 1-.224-1.02 2.8 2.8 0 0 1 .216-1.173q.228-.536.684-.93a3.4 3.4 0 0 1 1.14-.629q.684-.233 1.583-.25.82-.013 1.644.117.823.131 1.59.426.157.075.19.19.03.115-.006.27l-.43 1.11q-.056.155-.143.176a.46.46 0 0 1-.245-.034 8 8 0 0 0-1.345-.344 7.5 7.5 0 0 0-1.243-.075q-.722.012-1.05.318-.327.306-.32.672.005.27.116.462a1.1 1.1 0 0 0 .348.351q.237.16.621.327.384.168.935.351.628.221 1.23.471.6.25 1.066.61.465.36.757.856.293.498.305 1.212.014.773-.27 1.357m-9.02 1.125q.372-.177.371-.649V7.487q0-1.73-.947-2.632-.948-.904-2.98-.904c-.574 0-1.728.19-2.276.399q-.254.098-.175.412l.273 1.12q.04.177.137.216.098.04.313-.02a5.2 5.2 0 0 1 1.356-.222q.625 0 1.017.128.39.127.615.364.224.235.303.55.078.313.078.687v.334h-2.188q-1.173 0-1.984.294-.81.296-1.319.776a2.8 2.8 0 0 0-.733 1.12q-.224.638-.224 1.326 0 .667.195 1.267t.694 1.04q.498.443 1.348.708t2.14.265q.468 0 .987-.03.517-.03 1.045-.107a9 9 0 0 0 1.026-.217q.499-.137.928-.334m-3.81-4.361h1.876v2.887q-.254.099-.557.157-.303.06-.577.099a5 5 0 0 1-.518.049q-.245.01-.38.01-.94 0-1.505-.334-.567-.335-.567-1.179 0-.589.225-.923t.566-.51a2 2 0 0 1 .723-.217q.381-.039.714-.039m-10.447 4.605q0 .29-.093.364c-.062.048-.317.072-.509.072h-1.292a.63.63 0 0 1-.35-.083q-.124-.083-.124-.353V1.951c0-.158.035-.427.062-.554.04-.184.038-.25.135-.369q.157-.19.48-.26c.125-.027.19 0 .35 0h3.926q1.03 0 1.887.321.855.322 1.464.913.607.592.948 1.41.34.82.34 1.795 0 .561-.175 1.338a4.1 4.1 0 0 1-.701 1.504q-.526.726-1.474 1.234-.95.51-2.495.509h-2.38zm4.754-9.665a2.05 2.05 0 0 0-.391-.758 2.1 2.1 0 0 0-.774-.57q-.495-.228-1.258-.228h-2.462v4.605h2.504q1.299 0 1.897-.643.597-.643.598-1.639 0-.352-.114-.767" clip-rule="evenodd"/><path fill="#1B283C" fill-rule="evenodd" d="M33.952 14.273q-.664.216-1.329.256t-1.035.04q-1.604 0-2.267-.689-.665-.688-.665-2.103l.051-5.581H27.27c-.132 0-.2-.034-.255-.093s-.083-.116-.058-.211c.026-.096.382-1.04.382-1.04.021-.035.117-.256.14-.287.04-.053.097-.089.251-.089h.962V2.573c0-.26.12-.306.178-.359a1 1 0 0 1 .303-.157l1.4-.392q.155-.04.254.03.096.068.097.284v2.497h1.964q.214 0 .264.089a.5.5 0 0 1 .049.226v1.07a.5.5 0 0 1-.05.256q-.048.08-.263.079h-1.964v5.286q0 .629.293.865t.9.236q.116 0 .312-.01a9 9 0 0 0 .81-.079l.343-.049q.195-.04.254.01.06.05.078.187l.215 1.258a.8.8 0 0 1 .01.206q-.01.09-.186.167m-7.275-2.855q.014.773-.27 1.357-.285.585-.797.97a3.6 3.6 0 0 1-1.214.582q-.702.195-1.525.21-.47.008-1-.03a12 12 0 0 1-1.06-.127 7 7 0 0 1-1.024-.243 5 5 0 0 1-.907-.38q-.295-.15-.145-.462l.45-1.09q.094-.175.192-.225.097-.05.313.043.71.315 1.573.485a7.4 7.4 0 0 0 1.527.157q.82-.015 1.225-.34a1 1 0 0 0 .396-.829q-.009-.56-.543-.88-.533-.317-1.595-.686a15 15 0 0 1-1.407-.555 4.1 4.1 0 0 1-.998-.63 2.5 2.5 0 0 1-.61-.791 2.4 2.4 0 0 1-.223-1.02 2.8 2.8 0 0 1 .215-1.173q.228-.535.684-.93a3.4 3.4 0 0 1 1.14-.629q.683-.233 1.583-.25.82-.013 1.644.117.823.131 1.59.426.157.075.19.19.03.116-.006.271l-.43 1.109q-.056.155-.143.176a.46.46 0 0 1-.245-.034 8 8 0 0 0-1.345-.344 7.5 7.5 0 0 0-1.243-.075q-.723.014-1.05.318-.327.306-.32.672.005.27.116.462.11.191.348.351.237.16.621.327.384.169.935.351.63.222 1.23.471.6.25 1.066.61.465.36.757.856.293.498.305 1.212M17.76 13.26q0 .472-.371.65a6 6 0 0 1-.928.333 9 9 0 0 1-1.027.217q-.527.078-1.045.108t-.987.03q-1.29-.001-2.14-.266t-1.348-.708a2.35 2.35 0 0 1-.694-1.042q-.195-.6-.195-1.268 0-.687.224-1.327.225-.638.733-1.12t1.32-.777q.81-.295 1.983-.295h2.188v-.334q0-.374-.078-.688a1.2 1.2 0 0 0-.303-.55 1.46 1.46 0 0 0-.615-.365q-.391-.127-1.016-.127-.665 0-1.446.118-.783.117-1.27.275-.216.06-.313.02-.099-.04-.137-.217l-.274-1.12q-.078-.314.176-.413a8 8 0 0 1 1.798-.443 14 14 0 0 1 1.837-.127q2.032 0 2.98.904t.948 2.635zm-2.306-3.715h-1.876q-.333 0-.713.04a2 2 0 0 0-.723.215 1.5 1.5 0 0 0-.567.512q-.225.334-.225.924 0 .844.567 1.18.567.333 1.505.333.136 0 .38-.01.245-.009.518-.049.274-.039.577-.098t.557-.157zM.116.585Q.232.5.485.5h1.58q.295 0 .4.074t.106.371v9.815q0 .827.411 1.167.411.339 1.128.339h3.694c.155 0 .332.013.438.102.106.09.082.145.152.374.07.228.21 1.322.21 1.322 0 .112 0 .195-.072.27-.073.075-.224.136-.345.17q-.18.05-.697.052H3.71q-1.097 0-1.813-.318-.717-.318-1.138-.848a3.1 3.1 0 0 1-.59-1.209A6 6 0 0 1 0 10.761V.944Q0 .67.116.585" clip-rule="evenodd"/></svg>