<svg xmlns="http://www.w3.org/2000/svg" width="60" height="40" fill="none"><path stroke="#B5D8FF" stroke-linecap="round" stroke-linejoin="round" d="M50.542 3h-2.5v2.669h2.5zM10.71 27.865 9 29.69l1.71 1.824 1.708-1.825zm34.802-14.357 2.376 2.536m-.084-2.536-2.376 2.536"/><g filter="url(#a)"><path fill="#fff" fill-rule="evenodd" d="M16.667 7.23c0-.677.534-1.23 1.188-1.23h23.402c.653 0 1.187.553 1.187 1.23v8.914c0 9.038-4.87 18.69-12.473 21.764a.86.86 0 0 1-.772 0c-7.484-3.074-12.473-12.726-12.473-21.764V7.23z" clip-rule="evenodd"/></g><path stroke="#264887" stroke-width="1.25" d="M16.667 7.23c0-.677.534-1.23 1.188-1.23h23.402c.653 0 1.187.553 1.187 1.23v8.914c0 9.038-4.87 18.69-12.473 21.764a.86.86 0 0 1-.772 0c-7.484-3.074-12.473-12.726-12.473-21.764V7.23z" clip-rule="evenodd"/><path fill="#D32D27" d="M17.827 8.158a1.77 1.77 0 0 1 1.333-1.33l2.667-.615a.221.221 0 0 0 0-.432l-2.667-.614a1.77 1.77 0 0 1-1.329-1.328l-.616-2.666a.22.22 0 0 0-.431 0l-.616 2.666a1.77 1.77 0 0 1-1.328 1.33l-2.667.614a.221.221 0 0 0 0 .432l2.666.615a1.77 1.77 0 0 1 1.33 1.33l.615 2.667a.22.22 0 0 0 .431 0zM37.079 34.01a1.24 1.24 0 0 1 .933-.93l1.867-.431a.155.155 0 0 0 .087-.248.16.16 0 0 0-.087-.054l-1.867-.43a1.24 1.24 0 0 1-.93-.93l-.431-1.866a.155.155 0 0 0-.248-.087.16.16 0 0 0-.054.087l-.431 1.866a1.24 1.24 0 0 1-.93.93l-1.867.43a.155.155 0 0 0 0 .303l1.866.431a1.24 1.24 0 0 1 .93.93l.431 1.868a.155.155 0 0 0 .303 0z"/><path fill="#B5D9F1" stroke="#264887" d="m29.574 14.71 1.136 3.633a1.3 1.3 0 0 0 1.255.912l3.806-.042a.3.3 0 0 1 .177.544l-3.103 2.203a1.3 1.3 0 0 0-.48 1.476l1.216 3.606a.3.3 0 0 1-.463.337l-3.054-2.271a1.3 1.3 0 0 0-1.552 0l-3.054 2.27a.3.3 0 0 1-.463-.336l1.216-3.606a1.3 1.3 0 0 0-.48-1.476l-3.103-2.203a.3.3 0 0 1 .177-.544l3.805.042a1.3 1.3 0 0 0 1.256-.912l1.136-3.633a.3.3 0 0 1 .572 0Z"/><defs><filter id="a" width="27.028" height="33.25" x="16.042" y="5.375" color-interpolation-filters="sRGB" filterUnits="userSpaceOnUse"><feFlood flood-opacity="0" result="BackgroundImageFix"/><feBlend in="SourceGraphic" in2="BackgroundImageFix" result="shape"/><feColorMatrix in="SourceAlpha" result="hardAlpha" values="0 0 0 0 0 0 0 0 0 0 0 0 0 0 0 0 0 0 127 0"/><feOffset dx="-3.54" dy="3.54"/><feComposite in2="hardAlpha" k2="-1" k3="1" operator="arithmetic"/><feColorMatrix values="0 0 0 0 0.709804 0 0 0 0 0.85098 0 0 0 0 0.945098 0 0 0 1 0"/><feBlend in2="shape" result="effect1_innerShadow_3759_3354"/></filter></defs></svg>