<svg xmlns="http://www.w3.org/2000/svg" width="36" height="36" fill="none"><path fill="#000" d="M32.69 0H3.31A3.31 3.31 0 0 0 0 3.31v29.38A3.31 3.31 0 0 0 3.31 36h29.38A3.31 3.31 0 0 0 36 32.69V3.31A3.31 3.31 0 0 0 32.69 0"/><path fill="#B1060F" fill-rule="evenodd" stroke="#000" stroke-width=".282" d="m19.93 5.807-.009 5.396-.01 5.397-.443-1.253-.001-.002-.574 12.014c.564 1.593.866 2.443.87 2.447s.326.023.714.043c1.177.058 2.636.183 3.742.32.256.033.477.049.49.037s.02-5.507.016-12.21l-.008-12.19H19.93Zm-8.656-.017v12.201c0 6.711.006 12.208.014 12.216s.424-.03.924-.087 1.19-.125 1.535-.155a82 82 0 0 1 2.289-.147c.053 0 .056-.274.064-5.168l.008-5.167.382 1.08.135.382.573-12.012-.197-.557-.884-2.497-.031-.089z" clip-rule="evenodd"/><path fill="url(#a)" fill-rule="evenodd" d="M11.274 5.79v6.85l4.824 12.797.002-.787.008-5.167.382 1.08c2.125 6.012 3.266 9.236 3.273 9.242.004.005.326.024.714.044 1.177.058 2.636.183 3.742.32.256.032.477.049.49.037.01-.008.015-2.703.017-6.503L19.924 9.897l-.003 1.306-.01 5.397-.443-1.253a11534 11534 0 0 1-3.35-9.468l-.032-.089z" clip-rule="evenodd"/><path fill="#E50914" fill-rule="evenodd" d="m11.274 5.79 4.834 13.7v-.007l.382 1.08c2.125 6.012 3.266 9.236 3.273 9.242.004.005.326.024.714.044 1.177.058 2.636.183 3.742.32.255.032.474.048.49.037l-4.797-13.609v.003l-.444-1.253a11534 11534 0 0 1-3.35-9.468l-.032-.089z" clip-rule="evenodd"/><path fill="#B1060F" fill-rule="evenodd" stroke="#000" stroke-width=".282" d="m19.93 5.807-.009 5.396-.01 5.397-.443-1.253-.001-.002-.574 12.014c.564 1.593.866 2.443.87 2.447s.326.023.714.043c1.177.058 2.636.183 3.742.32.256.033.477.049.49.037s.02-5.507.016-12.21l-.008-12.19H19.93Zm-8.656-.017v12.201c0 6.711.006 12.208.014 12.216s.424-.03.924-.087 1.19-.125 1.535-.155a82 82 0 0 1 2.289-.147c.053 0 .056-.274.064-5.168l.008-5.167.382 1.08.135.382.573-12.012-.197-.557-.884-2.497-.031-.089z" clip-rule="evenodd"/><path fill="url(#b)" fill-rule="evenodd" d="M11.274 5.79v6.85l4.824 12.797.002-.787.008-5.167.382 1.08c2.125 6.012 3.266 9.236 3.273 9.242.004.005.326.024.714.044 1.177.058 2.636.183 3.742.32.256.032.477.049.49.037.01-.008.015-2.703.017-6.503L19.924 9.897l-.003 1.306-.01 5.397-.443-1.253a11534 11534 0 0 1-3.35-9.468l-.032-.089z" clip-rule="evenodd"/><path fill="#E50914" fill-rule="evenodd" d="m11.274 5.79 4.834 13.7v-.007l.382 1.08c2.125 6.012 3.266 9.236 3.273 9.242.004.005.326.024.714.044 1.177.058 2.636.183 3.742.32.255.032.474.048.49.037l-4.797-13.609v.003l-.444-1.253a11534 11534 0 0 1-3.35-9.468l-.032-.089z" clip-rule="evenodd"/><defs><radialGradient id="a" cx="0" cy="0" r="1" gradientTransform="matrix(2.88115 -.99757 36.54034 105.53412 17.776 17.858)" gradientUnits="userSpaceOnUse"><stop/><stop offset="1" stop-opacity="0"/></radialGradient><radialGradient id="b" cx="0" cy="0" r="1" gradientTransform="matrix(2.88115 -.99757 36.54034 105.53412 17.776 17.858)" gradientUnits="userSpaceOnUse"><stop/><stop offset="1" stop-opacity="0"/></radialGradient></defs></svg>