<svg xmlns="http://www.w3.org/2000/svg" width="148" height="76" fill="none"><path stroke="#BAC0CA" stroke-linecap="round" stroke-linejoin="round" stroke-width="1.793" d="M0 0h4.48v4.48H0z" transform="scale(1.01512 .98466)rotate(-45 138.103 -113.3)"/><path stroke="#BAC0CA" stroke-linecap="round" stroke-linejoin="round" stroke-width="1.793" d="M16.315 52.12c1.256 0 2.274-.987 2.274-2.205s-1.018-2.206-2.274-2.206c-1.255 0-2.274.988-2.274 2.206s1.019 2.206 2.274 2.206m128.411-14.597c1.256 0 2.274-.987 2.274-2.206s-1.018-2.205-2.274-2.205-2.274.987-2.274 2.205c0 1.219 1.018 2.206 2.274 2.206" clip-rule="evenodd"/><path stroke="#BAC0CA" stroke-linecap="round" stroke-linejoin="round" stroke-width="1.793" d="M26.08 8.785h4.548v4.411H26.08zm97.466-1.795 3.542 3.435m-.125-3.435-3.542 3.435M1.155 22.56l3.542 3.435m-.125-3.435L1.03 25.994"/><path fill="#EBEEEF" stroke="#768498" stroke-width="2" d="M74 74.643c20.237 0 36.643-16.406 36.643-36.643S94.237 1.357 74 1.357 37.357 17.763 37.357 38 53.763 74.643 74 74.643Z"/><path fill="#fff" stroke="#768498" stroke-linecap="round" stroke-linejoin="round" d="M62.254 16.737a1.79 1.79 0 0 1 1.343-1.343l2.698-.622a.224.224 0 0 0 0-.437l-2.698-.622a1.79 1.79 0 0 1-1.343-1.343l-.622-2.694a.224.224 0 0 0-.437 0l-.622 2.698a1.79 1.79 0 0 1-1.343 1.34l-2.697.62a.224.224 0 0 0 0 .438l2.697.622a1.79 1.79 0 0 1 1.343 1.343l.622 2.698a.224.224 0 0 0 .438 0z"/><path fill="#BAC0CA" stroke="#768498" d="m95.598 57.471.035.06a1.3 1.3 0 0 1-1.375 1.871l-4.734-.801-.558-.094-.193.53-1.647 4.527v.002a1.302 1.302 0 0 1-2.341.224l-3.796-6.426a21.03 21.03 0 0 0 10.007-7.828zm-39.19-7.986a21.04 21.04 0 0 0 9.995 7.863l-3.806 6.441a1.3 1.3 0 0 1-1.24.632 1.3 1.3 0 0 1-1.101-.85l-1.65-4.529-.193-.531-.557.094-4.732.802a1.302 1.302 0 0 1-1.342-1.934z"/><path fill="#fff" d="M73.674 20.357a17.318 17.318 0 1 0 17.317 17.317 17.336 17.336 0 0 0-17.317-17.317m7.707 25.534a1.316 1.316 0 0 1-1.873 1.644l-5.56-3.128a.56.56 0 0 0-.546 0l-5.56 3.128a1.317 1.317 0 0 1-1.872-1.644l2.26-5.2a.55.55 0 0 0-.12-.621l-4.082-4.022a1.226 1.226 0 0 1 .862-2.145h4.664a.56.56 0 0 0 .507-.322l2.431-5.236a1.328 1.328 0 0 1 2.362 0l2.431 5.236a.55.55 0 0 0 .507.322h4.661a1.229 1.229 0 0 1 .87 2.145L79.24 40.07a.55.55 0 0 0-.12.62z"/><path fill="#fff" d="M81.38 45.89a1.316 1.316 0 0 1-1.872 1.645l-5.56-3.128a.56.56 0 0 0-.547 0l-5.559 3.128a1.317 1.317 0 0 1-1.872-1.644l2.26-5.2a.55.55 0 0 0-.12-.621l-4.082-4.022a1.226 1.226 0 0 1 .862-2.145h4.664a.56.56 0 0 0 .507-.322l2.431-5.236a1.327 1.327 0 0 1 2.362 0l2.431 5.236a.56.56 0 0 0 .507.322h4.661a1.229 1.229 0 0 1 .87 2.145L79.24 40.07a.55.55 0 0 0-.12.62z"/><path fill="#BAC0CA" stroke="#768498" d="m82.038 45.63-.005-.01-2.229-5.124 4.014-3.955a1.908 1.908 0 0 0-1.347-3.317h-4.574L75.5 28.06l-.005-.012-.007-.012a2.006 2.006 0 0 0-3.569 0l-.006.012-.006.012-2.398 5.164h-4.575a1.905 1.905 0 0 0-1.34 3.319l4.013 3.953-2.229 5.124-.004.01a1.994 1.994 0 0 0 2.834 2.495l.004-.002 5.494-3.092 5.495 3.092.003.002a1.993 1.993 0 0 0 2.834-2.494ZM64.46 23.84a16.64 16.64 0 0 1 9.244-2.804 16.66 16.66 0 0 1 16.639 16.64A16.637 16.637 0 1 1 64.46 23.84Z"/><path fill="#fff" fill-rule="evenodd" d="M67.934 52.57c-4.508-2.82-7.506-7.83-7.506-13.539 0-8.814 7.146-15.96 15.96-15.96 2.024 0 3.96.377 5.74 1.064a15.9 15.9 0 0 0-8.454-2.42c-8.814 0-15.96 7.145-15.96 15.96 0 6.79 4.242 12.59 10.22 14.896" clip-rule="evenodd"/></svg>