<svg xmlns="http://www.w3.org/2000/svg" width="20" height="20" fill="none"><g fill="#828284" clip-path="url(#a)"><path d="M4.506 10.115a.63.63 0 0 0-.547-.322h-.363a.417.417 0 0 1-.417-.471 6.875 6.875 0 0 1 12.213-3.378A.834.834 0 0 0 16.7 4.91a8.541 8.541 0 0 0-15.204 4.5.417.417 0 0 1-.417.378H.625a.625.625 0 0 0-.53.956l1.666 2.667a.626.626 0 0 0 1.061 0l1.667-2.667a.63.63 0 0 0 .017-.629m15.399-.655L18.24 6.795a.65.65 0 0 0-1.061 0L15.51 9.461a.626.626 0 0 0 .53.956h.363a.417.417 0 0 1 .417.47 6.875 6.875 0 0 1-12.213 3.378.833.833 0 0 0-1.307 1.034 8.542 8.542 0 0 0 15.204-4.504.417.417 0 0 1 .417-.378h.456a.626.626 0 0 0 .53-.956z"/><path d="M12.476 8.177a.166.166 0 0 1-.143-.165v-.679a2.334 2.334 0 0 0-4.666 0v.679a.166.166 0 0 1-.143.165 1 1 0 0 0-.857.99v3.666a1 1 0 0 0 1 1h4.666a1 1 0 0 0 1-1V9.167a1 1 0 0 0-.857-.99m-1.81 3.156a.667.667 0 1 1-1.333 0 .667.667 0 0 1 1.333 0M9 7.333a1 1 0 1 1 2 0V8a.166.166 0 0 1-.167.167H9.166A.167.167 0 0 1 9 8z"/></g><defs><clipPath id="a"><path fill="#fff" d="M0 0h20v20H0z"/></clipPath></defs></svg>