<svg xmlns="http://www.w3.org/2000/svg" width="36" height="36" fill="none"><rect width="35" height="35" x=".5" y=".5" fill="#fff" rx="3.5"/><path fill="#253B80" d="M26.104 12.2q.06-.495.061-1.007A5.193 5.193 0 0 0 20.973 6h-8.68c-.545 0-1.011.394-1.102.933L7.994 25.939a1.118 1.118 0 0 0 1.102 1.304h3.174c.546 0 2.774 0 1.111-.933 0 0-.03.035-.024 0 .173-1.026-.403 2.541-.403 2.541A.986.986 0 0 0 13.926 30h2.777a.985.985 0 0 0 .971-.822l.79-4.688c.135-.809.835-1.4 1.654-1.4h.73a7.174 7.174 0 0 0 7.174-7.175 4.55 4.55 0 0 0-1.918-3.714"/><path fill="#179BD7" d="M26.104 12.2a8.176 8.176 0 0 1-8.114 7.168h-2.422c-.546 0-1.018.364-1.166.88l-1.448 8.603A.986.986 0 0 0 13.926 30h2.777a.985.985 0 0 0 .971-.822l.79-4.688c.135-.809.835-1.4 1.654-1.4h.73a7.174 7.174 0 0 0 7.174-7.175 4.55 4.55 0 0 0-1.918-3.714"/><path fill="#222D65" d="M15.568 19.368h2.422a8.176 8.176 0 0 0 8.114-7.167 4.54 4.54 0 0 0-2.639-.843h-6.321c-.72 0-1.334.52-1.454 1.23l-1.288 7.66c.148-.516.62-.88 1.166-.88"/><rect width="35" height="35" x=".5" y=".5" stroke="#EDEFF1" rx="3.5"/></svg>