<svg xmlns="http://www.w3.org/2000/svg" width="60" height="40" fill="none"><path fill="#fff" stroke="#264887" stroke-linecap="round" stroke-linejoin="round" stroke-width="1.254" d="M21.045 15.839a1.882 1.882 0 0 0-.376 2.955l10.3 10.3a1.88 1.88 0 0 0 2.955-.376 9.43 9.43 0 0 0 1.016-6.948l8.189-5.211a1.88 1.88 0 0 0 .32-2.917l-7.328-7.328a1.88 1.88 0 0 0-2.917.32l-5.21 8.19a9.43 9.43 0 0 0-6.949 1.015"/><path fill="#B5D9F1" fill-rule="evenodd" d="M20.167 16.74c.158-.24.37-.44.617-.586a9.43 9.43 0 0 1 6.336-1.142 9.4 9.4 0 0 0-3.147 1.143 1.88 1.88 0 0 0-.377 2.954l10.012 10.012a1.883 1.883 0 0 1-2.9.289l-10.3-10.3a1.88 1.88 0 0 1-.242-2.37M36.15 6.92l-.29-.29a1.882 1.882 0 0 0-2.917.319l-5.069 7.965a9.4 9.4 0 0 1 3.046.225l5.21-8.19z" clip-rule="evenodd"/><path stroke="#264887" stroke-linecap="round" stroke-linejoin="round" stroke-width="1.254" d="M25.816 23.945 15.78 33.982m5.265-18.143a1.882 1.882 0 0 0-.376 2.955l10.3 10.3a1.88 1.88 0 0 0 2.955-.376 9.43 9.43 0 0 0 1.016-6.948l8.189-5.211a1.88 1.88 0 0 0 .32-2.917l-7.328-7.328a1.88 1.88 0 0 0-2.917.32l-5.21 8.19a9.43 9.43 0 0 0-6.949 1.015"/><path stroke="#B5D9F1" stroke-linecap="round" stroke-linejoin="round" d="M17.678 5.699h2.5v2.5h-2.5zM4 4.091l1.768-1.768 1.767 1.768L5.768 5.86zm4.022 10.89 2.376 2.375m-.084-2.375-2.376 2.375"/></svg>