<svg xmlns="http://www.w3.org/2000/svg" width="140" height="40" fill="none"><path fill="#000" fill-rule="evenodd" d="M134.813 40H5.187C2.328 40 0 37.746 0 35V5c0-2.756 2.328-5 5.187-5h129.626C137.669 0 140 2.244 140 5v30c0 2.746-2.331 5-5.187 5" clip-rule="evenodd"/><path fill="#fff" d="M73.752 13.232c-.934 0-1.723-.317-2.346-.94a3.15 3.15 0 0 1-.948-2.294c0-.91.32-1.681.948-2.292.62-.624 1.409-.94 2.344-.94.924 0 1.713.316 2.346.94.629.63.948 1.401.948 2.292-.01.912-.33 1.683-.948 2.291-.62.629-1.409.943-2.344.943m-27.818 0c-.914 0-1.707-.312-2.356-.928-.644-.613-.971-1.389-.971-2.304s.327-1.69.97-2.304c.637-.616 1.43-.928 2.357-.928q.682-.001 1.316.265a2.66 2.66 0 0 1 1.002.693l.062.072-.698.663-.072-.082c-.394-.454-.922-.676-1.62-.676-.623 0-1.167.215-1.615.639-.45.426-.68.985-.68 1.66 0 .676.23 1.235.68 1.661.448.424.992.639 1.615.639.664 0 1.223-.215 1.659-.639q.387-.375.474-1.04h-2.239v-.932h3.2l.012.085c.023.157.046.319.046.469 0 .86-.267 1.556-.798 2.07-.603.608-1.39.917-2.344.917m36.987-.132h-.986l-3.021-4.68.025.842v3.835h-.986V6.9h1.126l.03.048 2.841 4.409-.026-.84V6.9h.997zm-16.58 0h-1V7.833h-1.733V6.9h4.463v.933h-1.733V13.1zm-3.547 0h-.997V6.9h.997zm-5.602 0h-.997V7.833h-1.733V6.9h4.463v.933h-1.733zm-3.361-.01h-3.822V6.9h3.822v.933h-2.823v1.7h2.547v.924h-2.547v1.7h2.823zm18.307-1.439c.445.431.986.648 1.614.648.647 0 1.175-.212 1.615-.648.438-.424.66-.98.66-1.65 0-.672-.222-1.23-.657-1.652a2.25 2.25 0 0 0-1.615-.648c-.646 0-1.174.212-1.612.648-.438.424-.66.98-.66 1.651 0 .67.22 1.23.655 1.651"/><path fill="#fff" fill-rule="evenodd" d="M70.366 21.756c-2.434 0-4.407 1.788-4.407 4.254 0 2.444 1.986 4.255 4.407 4.255 2.434 0 4.406-1.801 4.406-4.255 0-2.466-1.972-4.254-4.406-4.254m0 6.823c-1.332 0-2.478-1.068-2.478-2.579 0-1.534 1.149-2.578 2.478-2.578 1.331 0 2.478 1.044 2.478 2.578.002 1.521-1.147 2.579-2.478 2.579m-9.615-6.823c-2.433 0-4.406 1.788-4.406 4.254 0 2.444 1.985 4.255 4.406 4.255 2.434 0 4.407-1.801 4.407-4.255 0-2.466-1.975-4.254-4.407-4.254m0 6.823c-1.331 0-2.477-1.068-2.477-2.579 0-1.534 1.148-2.578 2.477-2.578 1.332 0 2.478 1.044 2.478 2.578 0 1.521-1.146 2.579-2.478 2.579m-11.44-5.524v1.8h4.463c-.136 1.01-.481 1.756-1.01 2.267-.654.634-1.663 1.322-3.443 1.322-2.743 0-4.888-2.145-4.888-4.8 0-2.656 2.145-4.801 4.888-4.801 1.481 0 2.56.566 3.361 1.29l1.319-1.277c-1.113-1.033-2.594-1.824-4.67-1.824-3.762 0-6.92 2.968-6.92 6.602 0 3.643 3.155 6.6 6.92 6.6 2.033 0 3.557-.643 4.763-1.855 1.228-1.19 1.617-2.868 1.617-4.222 0-.421-.033-.8-.103-1.122h-6.3c.003-.003.003.02.003.02m46.795 1.401c-.369-.955-1.481-2.71-3.763-2.71-2.262 0-4.142 1.723-4.142 4.254 0 2.39 1.86 4.255 4.36 4.255a4.39 4.39 0 0 0 3.66-1.888l-1.49-.968c-.495.71-1.183 1.177-2.16 1.177-.986 0-1.676-.434-2.134-1.29l5.875-2.356c0 .003-.206-.474-.206-.474m-5.991 1.422c-.046-1.643 1.319-2.479 2.295-2.479.77 0 1.411.367 1.63.9zM85.343 30h1.928V17.501h-1.928zm-3.168-7.3h-.07c-.435-.5-1.262-.954-2.318-.954-2.192 0-4.21 1.868-4.21 4.267 0 2.389 2.008 4.234 4.21 4.234 1.043 0 1.883-.456 2.318-.968h.07v.611c0 1.624-.897 2.5-2.342 2.5-1.182 0-1.916-.824-2.215-1.512l-1.676.678a4.19 4.19 0 0 0 3.889 2.511c2.261 0 4.177-1.289 4.177-4.433V22h-1.823v.7zm-2.215 5.88c-1.332 0-2.445-1.078-2.445-2.566 0-1.502 1.113-2.589 2.445-2.589 1.318 0 2.34 1.1 2.34 2.589.014 1.488-1.02 2.566-2.34 2.566m25.178-11.08h-4.613V30h1.929v-4.734h2.686c2.136 0 4.235-1.499 4.235-3.878s-2.092-3.888-4.237-3.888m.057 6.02h-2.743v-4.289h2.743c1.444 0 2.261 1.155 2.261 2.145 0 .98-.827 2.144-2.261 2.144m11.911-1.788c-1.401 0-2.846.601-3.443 1.91l1.71.689c.368-.689 1.043-.923 1.757-.923.999 0 2.008.579 2.032 1.611v.132c-.346-.19-1.103-.479-2.009-.479-1.847 0-3.719.978-3.719 2.81 0 1.68 1.514 2.756 3.201 2.756 1.295 0 2.009-.566 2.454-1.221h.07v.967h1.86v-4.788c0-2.23-1.711-3.464-3.913-3.464m-.242 6.846c-.631 0-1.514-.3-1.514-1.068 0-.967 1.102-1.334 2.042-1.334.85 0 1.252.177 1.757.422-.139 1.122-1.118 1.97-2.285 1.98M127.802 22l-2.214 5.422h-.07L123.223 22h-2.076l3.444 7.579-1.963 4.212h2.009L129.935 22zm-17.364 8h1.929V17.501h-1.929z" clip-rule="evenodd"/><path fill="url(#a)" fill-rule="evenodd" d="M10.776 7.534c-.299.312-.471.788-.471 1.411v22.113c0 .623.172 1.1.481 1.399l.08.067 12.795-12.39v-.276L10.856 7.467z" clip-rule="evenodd"/><path fill="url(#b)" fill-rule="evenodd" d="m27.919 24.277-4.268-4.132v-.29l4.268-4.132.092.055 5.048 2.778c1.445.788 1.445 2.09 0 2.888l-5.048 2.778z" clip-rule="evenodd"/><path fill="url(#c)" fill-rule="evenodd" d="M28.011 24.222 23.651 20 10.776 32.467c.471.488 1.262.543 2.145.067z" clip-rule="evenodd"/><path fill="url(#d)" fill-rule="evenodd" d="m28.011 15.778-15.09-8.3c-.883-.488-1.676-.42-2.145.068L23.65 20z" clip-rule="evenodd"/><path fill="#000" fill-rule="evenodd" d="m27.919 24.132-14.987 8.244c-.838.467-1.584.434-2.066.01l-.08.078.08.067c.482.422 1.229.456 2.066-.01l15.09-8.3z" clip-rule="evenodd" opacity=".2"/><path fill="#000" fill-rule="evenodd" d="m33.06 21.3-5.154 2.832.093.09 5.048-2.778c.723-.399 1.079-.923 1.079-1.444-.044.479-.412.933-1.067 1.3" clip-rule="evenodd" opacity=".12"/><path fill="#fff" fill-rule="evenodd" d="M12.921 7.623 33.06 18.701c.655.356 1.023.823 1.08 1.299 0-.521-.356-1.045-1.08-1.444L12.921 7.48c-1.444-.8-2.616-.132-2.616 1.466v.145c0-1.601 1.172-2.257 2.616-1.467" clip-rule="evenodd" opacity=".25"/><defs><linearGradient id="a" x1="22.514" x2="2.108" y1="8.707" y2="14.322" gradientUnits="userSpaceOnUse"><stop stop-color="#00A0FF"/><stop offset=".007" stop-color="#00A1FF"/><stop offset=".26" stop-color="#00BEFF"/><stop offset=".512" stop-color="#00D2FF"/><stop offset=".76" stop-color="#00DFFF"/><stop offset="1" stop-color="#00E3FF"/></linearGradient><linearGradient id="b" x1="34.944" x2="9.953" y1="20" y2="20" gradientUnits="userSpaceOnUse"><stop stop-color="#FFE000"/><stop offset=".409" stop-color="#FFBD00"/><stop offset=".775" stop-color="orange"/><stop offset="1" stop-color="#FF9C00"/></linearGradient><linearGradient id="c" x1="25.64" x2="9.959" y1="22.297" y2="49.556" gradientUnits="userSpaceOnUse"><stop stop-color="#FF3A44"/><stop offset="1" stop-color="#C31162"/></linearGradient><linearGradient id="d" x1="7.534" x2="14.53" y1=".179" y2="12.353" gradientUnits="userSpaceOnUse"><stop stop-color="#32A071"/><stop offset=".069" stop-color="#2DA771"/><stop offset=".476" stop-color="#15CF74"/><stop offset=".801" stop-color="#06E775"/><stop offset="1" stop-color="#00F076"/></linearGradient></defs></svg>