<svg xmlns="http://www.w3.org/2000/svg" width="148" height="76" fill="none"><path stroke="#EDBF0E" stroke-linecap="round" stroke-linejoin="round" stroke-width="1.793" d="M0 0h4.48v4.48H0z" transform="scale(1.01512 .98466)rotate(-45 138.103 -113.3)"/><path stroke="#EDBF0E" stroke-linecap="round" stroke-linejoin="round" stroke-width="1.793" d="M16.316 52.12c1.256 0 2.274-.987 2.274-2.205s-1.018-2.206-2.274-2.206-2.274.988-2.274 2.206 1.018 2.206 2.274 2.206m128.41-14.597c1.256 0 2.274-.988 2.274-2.206s-1.018-2.206-2.274-2.206-2.274.988-2.274 2.206 1.018 2.206 2.274 2.206" clip-rule="evenodd"/><path stroke="#EDBF0E" stroke-linecap="round" stroke-linejoin="round" stroke-width="1.793" d="M26.08 8.785h4.548v4.411H26.08zm97.467-1.795 3.541 3.435m-.124-3.435-3.542 3.435M1.155 22.56l3.542 3.435m-.125-3.435-3.541 3.435"/><path fill="#F7DD7B" stroke="#264887" stroke-width="2" d="M74 74.643c20.237 0 36.643-16.406 36.643-36.643S94.237 1.357 74 1.357 37.357 17.763 37.357 38 53.763 74.643 74 74.643Z"/><path fill="#fff" stroke="#264887" stroke-linecap="round" stroke-linejoin="round" d="M96.388 25.447a2.27 2.27 0 0 1 1.704-1.7l3.414-.788a.285.285 0 0 0 .219-.276.28.28 0 0 0-.219-.276l-3.414-.79a2.27 2.27 0 0 1-1.701-1.7l-.787-3.412a.283.283 0 0 0-.553 0l-.787 3.412a2.27 2.27 0 0 1-1.704 1.7l-3.412.787a.284.284 0 0 0 0 .553l3.411.787a2.27 2.27 0 0 1 1.701 1.701l.788 3.414a.284.284 0 0 0 .553 0zm-40.919-2.944a1.79 1.79 0 0 1 1.343-1.344l2.697-.622a.224.224 0 0 0 0-.437l-2.697-.622a1.79 1.79 0 0 1-1.344-1.343l-.622-2.694a.224.224 0 0 0-.437 0l-.621 2.698a1.79 1.79 0 0 1-1.343 1.34l-2.697.62a.223.223 0 0 0 0 .438l2.697.622a1.79 1.79 0 0 1 1.343 1.344l.622 2.697a.224.224 0 0 0 .437 0zm15.088-8.586a1.43 1.43 0 0 1 1.076-1.073l2.151-.496a.178.178 0 0 0 0-.349l-2.15-.495a1.43 1.43 0 0 1-1.073-1.071l-.497-2.15a.178.178 0 0 0-.348 0l-.497 2.15a1.43 1.43 0 0 1-1.071 1.072l-2.152.496a.178.178 0 0 0 0 .348l2.151.497a1.43 1.43 0 0 1 1.072 1.072l.497 2.152a.178.178 0 0 0 .348 0z"/><path fill="#6CB4E4" stroke="#264887" d="m95.598 57.47.035.06a1.3 1.3 0 0 1-1.376 1.872l-4.733-.801-.558-.095-.193.532-1.647 4.526v.002a1.301 1.301 0 0 1-2.342.224l-3.796-6.426a21.03 21.03 0 0 0 10.008-7.828zm-39.19-7.985a21.04 21.04 0 0 0 9.995 7.863l-3.806 6.441a1.3 1.3 0 0 1-1.24.632 1.3 1.3 0 0 1-1.101-.85l-1.649-4.529-.193-.531-.558.094-4.732.802a1.302 1.302 0 0 1-1.342-1.934z"/><path fill="#fff" d="M73.674 20.357a17.318 17.318 0 1 0 17.317 17.317 17.337 17.337 0 0 0-17.317-17.317m7.707 25.534a1.316 1.316 0 0 1-1.873 1.644l-5.559-3.128a.56.56 0 0 0-.547 0l-5.56 3.128a1.317 1.317 0 0 1-1.872-1.644l2.261-5.2a.55.55 0 0 0-.12-.621l-4.083-4.022a1.226 1.226 0 0 1 .863-2.145h4.663a.56.56 0 0 0 .507-.322l2.431-5.236a1.327 1.327 0 0 1 2.362 0l2.431 5.236a.56.56 0 0 0 .507.322h4.662a1.229 1.229 0 0 1 .869 2.145L79.24 40.07a.55.55 0 0 0-.12.62z"/><path fill="#fff" d="M81.38 45.89a1.316 1.316 0 0 1-1.871 1.645l-5.56-3.128a.56.56 0 0 0-.547 0l-5.56 3.128a1.317 1.317 0 0 1-1.872-1.644l2.261-5.2a.55.55 0 0 0-.12-.621l-4.083-4.022a1.226 1.226 0 0 1 .862-2.145h4.664a.56.56 0 0 0 .507-.322l2.431-5.236a1.327 1.327 0 0 1 2.362 0l2.431 5.236a.56.56 0 0 0 .507.322h4.662a1.228 1.228 0 0 1 .869 2.145L79.24 40.07a.55.55 0 0 0-.12.62z"/><path fill="#6CB4E4" stroke="#264887" d="m82.037 45.63-.004-.01-2.229-5.124 4.014-3.955a1.907 1.907 0 0 0-1.348-3.317h-4.573L75.5 28.06l-.006-.012-.006-.012a2.007 2.007 0 0 0-3.569 0l-.006.011-.006.012-2.398 5.165h-4.575a1.906 1.906 0 0 0-1.34 3.319l4.013 3.953-2.229 5.124-.004.01a1.994 1.994 0 0 0 2.834 2.495l.003-.002 5.495-3.092 5.494 3.092.004.002a1.995 1.995 0 0 0 2.834-2.495ZM64.46 23.84a16.64 16.64 0 0 1 9.243-2.804 16.66 16.66 0 0 1 16.64 16.639A16.638 16.638 0 1 1 64.46 23.84Z"/><path fill="#fff" fill-rule="evenodd" d="M67.934 52.571c-4.508-2.82-7.506-7.83-7.506-13.54 0-8.814 7.146-15.96 15.96-15.96 2.024 0 3.96.377 5.74 1.064a15.9 15.9 0 0 0-8.454-2.42c-8.814 0-15.96 7.145-15.96 15.96 0 6.79 4.242 12.59 10.22 14.896" clip-rule="evenodd"/></svg>