<svg xmlns="http://www.w3.org/2000/svg" width="220" height="220" fill="none"><path fill="#F1F2FA" fill-rule="evenodd" d="M110 220c60.751 0 110-49.249 110-110S170.751 0 110 0 0 49.249 0 110s49.249 110 110 110" clip-rule="evenodd"/><path stroke="#CACCEE" stroke-linecap="round" stroke-linejoin="round" stroke-width="1.793" d="m187 91.614 5.185-5.185 5.185 5.185-5.185 5.185zM89.571 27.186l5.186-5.185 5.185 5.185-5.185 5.185z"/><path stroke="#CACCEE" stroke-linecap="round" stroke-linejoin="round" stroke-width="1.793" d="M22.874 128.682a3.666 3.666 0 1 0 0-7.332 3.666 3.666 0 0 0 0 7.332" clip-rule="evenodd"/><path stroke="#CACCEE" stroke-linecap="round" stroke-linejoin="round" stroke-width="1.793" d="m120.378 16.663 5.711 5.711m-.202-5.711-5.711 5.711"/><path stroke="#264887" stroke-width="4" d="M145.245 54.8h25.235v25.235h-25.235zM54.8 145.245h25.235v25.235H54.8z"/><path fill="#264887" d="M150.554 60.107h14.617v14.617h-14.617zm-90.445 90.447h14.617v14.617H60.109zM59.84 61.6h14.617v14.617H59.84zM52.8 85.69h9.136v5.482H52.8zm12.791 21.926h9.136v4.568h-9.136zM52.8 123.148h9.136v17.358H52.8z"/><path fill="#264887" d="M57.368 91.171h4.568v11.877h-4.568zM52.8 103.047h4.568v4.568H52.8zm9.136 0h4.568v4.568h-4.568zM77.467 85.69h4.568v4.568h-4.568zm4.568 4.567h4.568v4.568h-4.568zm8.222-3.653h4.568v8.222h-4.568z"/><path fill="#264887" d="M93.912 78.379h4.568v20.099h-4.568zm4.568 11.878h4.568v8.222H98.48zM85.689 78.379h4.568v8.222h-4.568zm4.568-16.443h4.568v12.79h-4.568zm-4.568-8.221h9.136v4.568h-9.136z"/><path fill="#264887" d="M93.912 57.369h4.568v4.568h-4.568zm8.222 0h4.568v4.568h-4.568zm8.222 0h4.568v4.568h-4.568zm12.79 9.134h4.568v4.568h-4.568z"/><path fill="#264887" d="M106.702 53.715h4.568v4.568h-4.568zm11.876 0h4.568v4.568h-4.568z"/><path fill="#264887" d="M118.578 58.282h9.136v3.654h-9.136zm-3.654 3.654h8.222v4.568h-8.222zm-16.444 0h11.877v4.568H98.48z"/><path fill="#264887" d="M106.702 66.503h12.79v4.568h-12.79zm28.321-.913h4.568v4.568h-4.568zm0 12.789h4.568v4.568h-4.568zm8.222 8.225h4.568v4.568h-4.568z"/><path fill="#264887" d="M147.813 90.257h8.222v9.136h-8.222z"/><path fill="#264887" d="M143.245 98.478h4.568v21.012h-4.568zm16.445-8.221h4.568v9.136h-4.568z"/><path fill="#264887" d="M146.9 106.701h21.926v4.568H146.9zm17.358-16.444h4.568v4.568h-4.568zm3.654 37.456h4.568v4.568h-4.568zm-24.667 16.445h4.568v4.568h-4.568zm-8.222 16.446h4.568v4.568h-4.568zm0 7.307h4.568v4.568h-4.568zm8.222-3.654h4.568v8.222h-4.568zm-3.654-11.876h4.568v8.222h-4.568zm24.667-16.445h4.568v4.568h-4.568zm-4.568-4.567h4.568v9.136h-4.568zm-24.667 3.653h21.012v5.482h-21.012zm-3.654 9.136h4.568v16.445h-4.568z"/><path fill="#264887" d="M135.023 140.505h4.568v16.445h-4.568zm16.445-42.027h9.136v4.568h-9.136zm-12.79 12.792h13.704v4.568h-13.704z"/><path fill="#264887" d="M138.678 114.925h4.568v4.568h-4.568zm-7.309-3.655h4.568v16.445h-4.568zm36.543-12.792h4.568v21.926h-4.568zm-8.222 12.792h4.568v9.136h-4.568z"/><path fill="#264887" d="M155.122 118.579h5.482v4.568h-5.482z"/><path fill="#264887" d="M151.468 114.925h5.482v4.568h-5.482zm-17.359 3.654h5.482v4.568h-5.482zm25.581 4.569h9.136v4.568h-9.136zm-11.877 37.456h8.222v4.568h-8.222z"/><path fill="#264887" d="M151.468 164.257h12.79v4.568h-12.79zm-7.309-11.876h16.445v4.568h-16.445zm23.753-4.569h4.568v21.012h-4.568z"/><path fill="#264887" d="M164.258 156.036h4.568v8.222h-4.568zm-4.568 4.568h4.568v3.654h-4.568zm-7.309-37.456h3.654v32.889h-3.654zm3.655 4.565h3.654v21.012h-3.654zm-24.667-45.678h4.568v4.568h-4.568zm-4.568-28.32h4.568v4.568h-4.568zm8.222 44.763h4.568v4.568h-4.568zm4.568-8.221h4.568v9.136h-4.568zm-21.013 12.79h4.568v4.568h-4.568zm12.791 0h8.222v4.568h-8.222zm-12.791-24.668h4.568v4.568h-4.568zm4.568 8.225h8.222v4.568h-8.222z"/><path fill="#264887" d="M118.578 90.257h17.358v4.568h-17.358zm-4.568 8.221h17.358v4.568H114.01zm1.827 8.223h15.531v4.568h-15.531zm-10.049-11.876h4.568v4.568h-4.568zm62.124-8.221h4.568v4.568h-4.568zM61.023 135.936h4.568v4.568h-4.568z"/><path fill="#264887" d="M110.356 98.478h4.568v9.136h-4.568zm-3.654-16.443h4.568v4.568h-4.568z"/><path fill="#264887" d="M110.356 73.811h4.568v9.136h-4.568zm4.568 8.224h4.568v37.457h-4.568zm-12.79-3.656h4.568v4.568h-4.568zm-3.654-4.568h8.222v4.568H98.48zm28.321-3.654h4.568v12.79h-4.568zm4.568-12.788h4.568v17.358h-4.568zm-4.568 4.567h4.568v4.568h-4.568zM77.467 94.825h4.568v4.568h-4.568zm-15.531 32.888h21.012v4.568H61.936z"/><path fill="#264887" d="M73.813 123.148h4.568v4.568h-4.568zm0 9.134h4.568v4.568h-4.568zm8.222 0H98.48v4.568H82.035zm-4.568 4.569h9.136v4.568h-9.136z"/><path fill="#264887" d="M85.689 139.59h17.358v4.568H85.689zm0 16.446h12.79v4.568h-12.79zm-8.222-37.457h4.568v4.568h-4.568zm9.136 0h4.568v4.568h-4.568zm3.654 4.569h8.222v9.136h-8.222zm-8.222-8.223h4.568v4.568h-4.568z"/><path fill="#264887" d="M90.257 114.925h4.568v4.568h-4.568zm8.223 12.788h4.568v4.568H98.48zm-4.568 16.445h9.136v4.568h-9.136zm0-8.222h4.568v4.568h-4.568zm21.012-.914h4.568v29.235h-4.568z"/><path fill="#264887" d="M90.257 147.812h4.568v4.568h-4.568zm16.445-8.222h4.568v9.136h-4.568z"/><path fill="#264887" d="M110.356 147.812h4.568v4.568h-4.568zm16.445 16.445h4.568v4.568h-4.568zm-4.568-36.544h4.568v4.568h-4.568zm17.358 0h9.136v12.79h-9.136zm-32.889-8.221h4.568v4.568h-4.568zm-12.79-.913h9.136v4.568h-9.136zm4.568-4.569h8.222v4.568H98.48z"/><path fill="#264887" d="M103.047 111.27h8.222v4.568h-8.222zm-4.567-4.569h8.222v4.568H98.48zm-21.013 4.569h17.358v4.568H77.467zm4.568-12.792h21.012v4.568H82.035zm-4.568 4.569h17.358v4.568H77.467z"/><path fill="#264887" d="M85.689 107.616h9.136v4.568h-9.136zM73.813 90.257h4.568v12.79h-4.568z"/><path fill="#264887" d="M64.677 85.69h10.05v5.482h-10.05zm66.692 42.023h4.568v4.568h-4.568zm-24.667 0h12.79v4.568h-12.79z"/><path fill="#264887" d="M114.924 123.148h29.235v4.568h-29.235zm-12.79 9.134h9.136v4.568h-9.136zm17.358 7.308h11.877v4.568h-11.877zm2.741-4.568h9.136v4.568h-9.136zm.913 12.79h4.568v9.136h-4.568zm-3.654 12.792h8.222v3.654h-8.222zm-29.235 0h4.568v4.568h-4.568zm-4.568 3.653h4.568v8.222h-4.568zm4.568 4.569h4.568v3.654h-4.568zm8.223 0h12.79v3.654H98.48zm3.654-8.222h9.136v3.654h-9.136zm3.654-4.568h9.136v4.568h-9.136z"/><path fill="#264887" d="M93.912 164.257h9.136v4.568h-9.136zm-8.223-12.788h4.568v9.136h-4.568zm-15.531-39.286h4.568v3.654h-4.568zm-4.567 10.965h4.568v4.568h-4.568zm0-3.656h8.222v3.654h-8.222zm-8.223-11.876h4.568v4.568h-4.568zm-4.568 4.567h4.568v7.309H52.8zm4.568 3.654h20.099v3.654H57.368z"/><path stroke="#264887" stroke-width="4" d="M54.8 56.56h25.235v25.235H54.8z"/></svg>