<svg xmlns="http://www.w3.org/2000/svg" width="15" height="15" fill="none"><path fill="#283952" stroke="#283952" d="M7.094 1.406c0 .224.183.407.406.407 1.523 0 2.945.589 4.022 1.665A5.64 5.64 0 0 1 13.187 7.5a5.62 5.62 0 0 1-1.624 3.981v-1.137a.407.407 0 0 0-.407-.406.407.407 0 0 0-.406.406v2.437h2.438a.407.407 0 0 0 .406-.406.407.407 0 0 0-.406-.406h-.976A6.42 6.42 0 0 0 14 7.5c0-1.727-.67-3.372-1.91-4.59A6.4 6.4 0 0 0 7.5 1a.407.407 0 0 0-.406.406ZM2.91 12.09A6.5 6.5 0 0 0 7.5 14a.407.407 0 0 0 .406-.406.407.407 0 0 0-.406-.406 5.64 5.64 0 0 1-4.022-1.666A5.64 5.64 0 0 1 1.812 7.5c0-1.503.57-2.905 1.626-3.981v1.137c0 .224.182.407.406.407a.407.407 0 0 0 .406-.407V2.22H1.813a.407.407 0 0 0-.407.406c0 .223.183.406.407.406h.975A6.42 6.42 0 0 0 1 7.5c0 1.727.67 3.372 1.91 4.59Z"/></svg>