<svg xmlns="http://www.w3.org/2000/svg" width="80" height="80" fill="none"><path fill="#ECF5FB" d="M40 80c22.091 0 40-17.909 40-40S62.091 0 40 0 0 17.909 0 40s17.909 40 40 40"/><g opacity=".9"><g stroke="#264887" opacity=".9"><path fill="#fff" d="M66.962 40.258c0 14.75-11.959 26.704-26.704 26.704-14.752 0-26.704-11.954-26.704-26.704s11.952-26.704 26.704-26.704c14.745 0 26.704 11.954 26.704 26.704Z" opacity=".9"/><path fill="#fff" d="M66.962 40.258c0 14.75-11.959 26.704-26.704 26.704-14.752 0-26.704-11.954-26.704-26.704s11.952-26.704 26.704-26.704c14.745 0 26.704 11.954 26.704 26.704Z" opacity=".9"/><path stroke-dasharray="190 7 1 5" stroke-linecap="round" stroke-width="2" d="M67.462 40.258c0 15.026-12.183 27.204-27.204 27.204-15.029 0-27.204-12.178-27.204-27.204s12.175-27.204 27.204-27.204c15.021 0 27.204 12.178 27.204 27.204Z" opacity=".9"/></g><path fill="#00A878" d="M51.206 31.035a1.29 1.29 0 0 1 1.76 1.887L35.224 49.48a1.29 1.29 0 0 1-1.792-.031l-5.914-5.914a1.29 1.29 0 0 1 1.824-1.825l5.033 5.033z" opacity=".9"/></g><path stroke="#B5D9F1" stroke-dasharray="1.11 6.67 182.22 5.56" stroke-linecap="round" stroke-width="2.222" d="M12.387 13.42a2.065 2.065 0 1 0 0-4.13 2.065 2.065 0 0 0 0 4.13Z"/><path stroke="#B5D9F1" stroke-dasharray="1.11 6.67 182.22 5.56" stroke-linecap="round" stroke-width="2.222" d="m72.258 37.651 2.555-2.554 2.555 2.554-2.555 2.555z" clip-rule="evenodd"/><path stroke="#B5D9F1" stroke-dasharray="1.11 6.67 182.22 5.56" stroke-linecap="round" stroke-width="2.222" d="m60.516 12.516 2.943 2.943m-.104-2.943-2.942 2.943"/></svg>