<svg xmlns="http://www.w3.org/2000/svg" width="180" height="180" fill="none"><circle cx="90" cy="90" r="90" fill="#EBF2FA"/><path fill="#D32D27" d="M83.157 37.305c.105-.422.336-.807.667-1.113.33-.306.746-.519 1.2-.615l3.734-.8a.3.3 0 0 0 .174-.101.28.28 0 0 0 .068-.18.28.28 0 0 0-.068-.18.3.3 0 0 0-.174-.1l-3.733-.799a2.54 2.54 0 0 1-1.198-.615 2.27 2.27 0 0 1-.664-1.112l-.861-3.466a.3.3 0 0 0-.109-.161.33.33 0 0 0-.387 0 .3.3 0 0 0-.109.162l-.862 3.465a2.26 2.26 0 0 1-.663 1.112c-.328.306-.743.52-1.197.617l-3.733.798a.3.3 0 0 0-.174.102.28.28 0 0 0-.068.18c0 .065.024.128.068.179a.3.3 0 0 0 .174.101l3.732.8c.454.097.868.31 1.198.616s.559.691.663 1.112l.862 3.468a.3.3 0 0 0 .109.162.325.325 0 0 0 .387 0 .3.3 0 0 0 .109-.161zm21.698-9.599a5.14 5.14 0 0 1 3.859-3.846l7.715-1.78a.64.64 0 0 0 0-1.25l-7.715-1.775a5.13 5.13 0 0 1-3.846-3.843l-1.78-7.712a.64.64 0 0 0-1.025-.36.64.64 0 0 0-.225.36l-1.78 7.712a5.13 5.13 0 0 1-3.843 3.846L88.5 20.835a.64.64 0 0 0 0 1.25l7.712 1.78a5.13 5.13 0 0 1 3.846 3.846l1.78 7.718a.64.64 0 0 0 .625.5.64.64 0 0 0 .625-.5z"/><path fill="#fff" d="m132.761 117.498-9.106-15.7a.94.94 0 0 0-.791-.471.94.94 0 0 0-.818.421 39 39 0 0 1-19.255 15.12.95.95 0 0 0-.574.572.96.96 0 0 0 .076.806l7.494 12.684a3.793 3.793 0 0 0 5.587 1.057 3.8 3.8 0 0 0 1.243-1.71l3.157-8.677 9.075 1.536a3.792 3.792 0 0 0 3.912-5.645z"/><path fill="#D2E4FB" d="M113 129c-1.2 2-2.833.833-3.5 0l2 3 4-.5 4.5-10 3 1h8l2-3-5-9c.833 2.5 2.3 7.8 1.5 9-1 1.5-4 0-6-.5-1.94-.485-4.5-1-6.5.5s-2.5 7-4 9.5"/><path fill="#0D4D9C" fill-rule="evenodd" d="M122.494 100.458a1.8 1.8 0 0 1 .793.024l.022.006.022.006.008.002.003.001.038.012q.02.005.038.012a1.8 1.8 0 0 1 .682.405l.016.016.017.016.008.008.028.029.027.029q.136.147.237.321l.013.024.542.999.029.058.033.056.015.028a1 1 0 0 1 .048.104q.033.045.061.096l1.083 1.998.029.058.033.056.015.029a1 1 0 0 1 .048.103q.033.046.061.097l1.083 1.998.029.058.033.056.015.028a1 1 0 0 1 .048.104q.033.045.061.096l1.083 1.998.029.058.033.056.015.029a1 1 0 0 1 .048.103q.033.046.061.097l1.083 1.998.029.058.033.056.015.028a1 1 0 0 1 .048.104q.033.045.061.096l.541.999.014.026.427.854.023.05.026.048.012.024a1 1 0 0 1 .038.088 1 1 0 0 1 .047.083l.413.826c.078.131.234.368.451.697l.049.074.03.049.033.047.016.024a1 1 0 0 1 .05.087q.031.039.06.081a31 31 0 0 1 1.14 1.855l.015.027q.026.05.046.099.03.045.056.094c.112.217.216.438.292.644.067.181.152.453.141.735a4.7 4.7 0 0 1-.229 1.271 1 1 0 0 1-.042.106 1 1 0 0 1-.034.108 4.7 4.7 0 0 1-1.278 1.846l-.05.041-.049.043-.025.021a1 1 0 0 1-.092.066 1 1 0 0 1-.086.074 4.7 4.7 0 0 1-.982.561c-.35.148-.715.252-1.087.311l-.065.008-.063.011-.033.004a1 1 0 0 1-.113.007 1 1 0 0 1-.112.015 4.7 4.7 0 0 1-1.13-.052l-.969-.164-.055-.011-.056-.008-.028-.005a1 1 0 0 1-.096-.021 1 1 0 0 1-.097-.011l-1.937-.328-.055-.011-.056-.008-.028-.005q-.048-.008-.096-.021a1 1 0 0 1-.097-.012l-1.937-.327q-.028-.005-.055-.012l-.056-.007-.028-.005a1 1 0 0 1-.096-.022 1 1 0 0 1-.097-.011l-1.937-.328-.055-.011-.056-.007-.028-.005a1 1 0 0 1-.095-.022 1 1 0 0 1-.098-.011l-.229-.039-.081.221-.02.053-.018.053-.01.027a1 1 0 0 1-.038.09 1 1 0 0 1-.029.095l-.674 1.852-.021.052-.017.054-.01.026a1 1 0 0 1-.039.091 1 1 0 0 1-.028.094l-.674 1.852-.021.052-.017.054-.01.026a1 1 0 0 1-.039.091 1 1 0 0 1-.028.095l-.674 1.852-.021.052-.018.053-.009.027-.039.091a1 1 0 0 1-.029.094l-.336.924v.001a4.7 4.7 0 0 1-.581 1.113l-.018.027a1 1 0 0 1-.072.087 1 1 0 0 1-.065.093 4.67 4.67 0 0 1-1.889 1.425l-.03.012a1 1 0 0 1-.107.036 1 1 0 0 1-.104.044 4.7 4.7 0 0 1-2.39.187 1 1 0 0 1-.11-.027 1 1 0 0 1-.112-.019 4.7 4.7 0 0 1-2.046-1.058l-.049-.041-.024-.022a1 1 0 0 1-.078-.082 1 1 0 0 1-.085-.075 4.7 4.7 0 0 1-.689-.894l-.002-.002-.533-.903-.029-.052-.032-.051-.015-.026a1 1 0 0 1-.048-.093 1 1 0 0 1-.059-.087l-1.066-1.805-.029-.052-.032-.051-.015-.026a1 1 0 0 1-.048-.093 1 1 0 0 1-.059-.087l-1.066-1.805-.029-.052-.032-.051-.015-.026a1 1 0 0 1-.048-.093 1 1 0 0 1-.059-.087l-1.066-1.805-.028-.052-.033-.051-.015-.026a1 1 0 0 1-.048-.093 1 1 0 0 1-.058-.087l-1.067-1.805-.028-.052-.033-.051-.015-.026a1 1 0 0 1-.048-.093 1 1 0 0 1-.058-.087l-1.067-1.805-.028-.052-.032-.051-.016-.026a1 1 0 0 1-.048-.093 1 1 0 0 1-.058-.087l-.533-.901v-.001a2 2 0 0 1-.148-.313l-.007-.019-.006-.019-.001-.003-.002-.006-.011-.033-.01-.034a1.9 1.9 0 0 1-.065-.688l.002-.02.002-.02.001-.01.005-.034.005-.034a1.8 1.8 0 0 1 .235-.651l.01-.017.01-.017.005-.008.02-.029.019-.03a1.8 1.8 0 0 1 .506-.499l.017-.011.008-.005.03-.018.029-.018q.15-.089.313-.147a37 37 0 0 0 1.027-.385l.054-.024.028-.011a1 1 0 0 1 .098-.032 1 1 0 0 1 .095-.045 38 38 0 0 0 1.904-.828q.027-.013.054-.023l.053-.028.027-.012a1 1 0 0 1 .096-.039q.044-.027.091-.05a37 37 0 0 0 1.848-.949l.053-.026.051-.031.026-.014a1 1 0 0 1 .094-.045 1 1 0 0 1 .087-.056 39 39 0 0 0 1.884-1.128l.025-.016a1 1 0 0 1 .09-.051 1 1 0 0 1 .084-.061 39 39 0 0 0 1.761-1.209l.047-.037.024-.018a1 1 0 0 1 .087-.056 1 1 0 0 1 .08-.067 38 38 0 0 0 1.68-1.319l.044-.039.023-.019a1 1 0 0 1 .084-.062 1 1 0 0 1 .075-.072 38 38 0 0 0 1.548-1.384l.045-.039.041-.043.022-.02a1 1 0 0 1 .079-.067q.033-.04.071-.077a38 38 0 0 0 1.457-1.48l.041-.042.039-.045.021-.021a1 1 0 0 1 .074-.073q.03-.04.066-.08.7-.766 1.359-1.57l.04-.045.036-.047.018-.023q.034-.04.07-.077.028-.043.061-.085.65-.807 1.256-1.653l.036-.047.05-.074.065-.081q.025-.045.055-.088.299-.425.586-.857l.002-.002q.112-.168.256-.306l.016-.016.017-.016.004-.003.004-.004.031-.026.03-.026a1.8 1.8 0 0 1 .705-.364l.022-.005.022-.006.005-.001.006-.002.039-.008zm-.379 2.771a1 1 0 0 1-.058.092l-.018.026-.038.049q-.016.026-.035.052-.635.885-1.315 1.731a1 1 0 0 1-.073.081q-.03.046-.064.088l-.02.024-.04.047-.038.05q-.69.842-1.424 1.644a1 1 0 0 1-.078.075 1 1 0 0 1-.069.085l-.021.023-.044.044-.041.047a40 40 0 0 1-1.525 1.549 1 1 0 0 1-.083.071 1 1 0 0 1-.074.08l-.023.021-.046.041q-.021.023-.044.045-.791.747-1.621 1.449a1 1 0 0 1-.087.065 1 1 0 0 1-.08.075l-.024.02-.049.038-.046.042q-.837.694-1.71 1.343-.045.032-.092.059a1 1 0 0 1-.083.07l-.025.018-.052.035-.049.038a41 41 0 0 1-1.792 1.232 1 1 0 0 1-.095.053 1 1 0 0 1-.088.064l-.026.017-.054.032-.051.035q-.918.582-1.868 1.114a1 1 0 0 1-.098.048 1 1 0 0 1-.092.058l-.027.015-.055.028q-.026.017-.054.032-.953.522-1.935.993a1 1 0 0 1-.1.041 1 1 0 0 1-.096.052l-.028.013-.057.025-.055.028a40 40 0 0 1-1.995.868 1 1 0 0 1-.103.034 1 1 0 0 1-.127.058l-.059.021-.057.025q-.505.198-1.018.383l-.003.001-.008.004-.002.001-.001.001-.007.005-.006.007-.001.002v.001l-.004.008-.003.009v.012l.002.009v.002l.001.001.004.009.533.903a1 1 0 0 1 .049.094 1 1 0 0 1 .058.087l.015.025q.016.026.029.053l.032.051 1.066 1.804a1 1 0 0 1 .048.094 1 1 0 0 1 .059.087l.015.025.029.053.032.051 1.066 1.804a1 1 0 0 1 .048.094 1 1 0 0 1 .059.087l.015.026.029.052.032.051 1.066 1.804a1 1 0 0 1 .048.094 1 1 0 0 1 .059.087l.015.026.029.052.032.051 1.066 1.804a1 1 0 0 1 .048.094 1 1 0 0 1 .059.087l.015.026.029.052q.017.025.032.051l1.066 1.804a1 1 0 0 1 .048.094 1 1 0 0 1 .059.087l.015.026.029.052q.017.025.032.051l.532.9v.001q.18.301.425.549l.047.052.053.045.015.014.029.027.03.026a2.9 2.9 0 0 0 1.232.625l.068.018q.035.004.069.01l.02.003.039.008.039.005a2.9 2.9 0 0 0 1.376-.131l.066-.021.064-.029.019-.007.037-.014.036-.017a2.9 2.9 0 0 0 1.091-.847l.046-.054.038-.058.012-.016.024-.032.021-.034q.193-.29.313-.621l.001-.002.337-.926a1 1 0 0 1 .039-.091 1 1 0 0 1 .028-.095l.01-.026.021-.052.017-.054.674-1.852a1 1 0 0 1 .039-.091 1 1 0 0 1 .028-.094l.01-.026.021-.053.018-.053.673-1.852q.018-.047.039-.091a1 1 0 0 1 .029-.094l.009-.027.021-.052.018-.054.673-1.851q.018-.048.039-.091a1 1 0 0 1 .029-.095l.009-.026.021-.052.018-.054.337-.926a.9.9 0 0 1 .996-.58l.968.164a1 1 0 0 1 .096.022q.049.003.098.011l.028.005.055.011q.028.002.055.008l1.937.328a1 1 0 0 1 .096.021q.049.003.098.011l.028.005.055.011.055.008 1.937.328a1 1 0 0 1 .096.021 1 1 0 0 1 .098.012l.028.004.055.011.055.008 1.937.328a1 1 0 0 1 .096.022 1 1 0 0 1 .098.011l.027.004.056.011.055.008.968.164q.348.058.696.032l.07-.002.07-.012.019-.002.04-.005.039-.007a2.9 2.9 0 0 0 1.276-.538l.058-.039.068-.06.031-.024.029-.028a2.9 2.9 0 0 0 .789-1.138l.027-.064.019-.067.006-.019.013-.038.011-.039q.09-.312.109-.64a1 1 0 0 0-.029-.088 4 4 0 0 0-.202-.44 1 1 0 0 1-.037-.082 1 1 0 0 1-.048-.078l-.008-.015-.005-.009-.023-.046-.027-.046a30 30 0 0 0-1.016-1.64 1 1 0 0 1-.05-.086 1 1 0 0 1-.058-.079l-.016-.024-.03-.048-.032-.047-.069-.104a19 19 0 0 1-.497-.775l-.027-.05-.427-.853a1 1 0 0 1-.038-.088 1 1 0 0 1-.047-.083l-.012-.024-.023-.05-.026-.048-.42-.84-.535-.986a1 1 0 0 1-.048-.103 1 1 0 0 1-.06-.097l-.016-.028-.029-.059-.033-.056-1.083-1.998a1 1 0 0 1-.048-.103 1 1 0 0 1-.06-.096l-.016-.029-.029-.058-.033-.056-1.083-1.998a1 1 0 0 1-.048-.103 1 1 0 0 1-.06-.097l-.016-.028-.029-.059-.033-.055-1.083-1.998a1 1 0 0 1-.048-.104 1 1 0 0 1-.06-.096l-.016-.029-.029-.058-.033-.056-1.083-1.998a1 1 0 0 1-.048-.103 1 1 0 0 1-.06-.097l-.016-.028-.029-.058-.032-.056-.531-.98-.004-.004-.001-.001v-.001l-.001-.001-.009-.006-.009-.004-.001-.001h-.003l-.01-.002-.011.001h-.001l-.001.001h-.001l-.01.004-.009.005v.001l-.001.001-.001.001-.007.007q-.3.453-.613.897a1 1 0 0 1-.067.085" clip-rule="evenodd"/><path fill="#fff" d="M57.275 101.653a.94.94 0 0 0-.82-.426.95.95 0 0 0-.793.472l-9.152 15.803a3.794 3.794 0 0 0 3.916 5.642l9.072-1.537 3.16 8.682a3.794 3.794 0 0 0 6.83.637l7.513-12.715a.947.947 0 0 0-.493-1.373 39.02 39.02 0 0 1-19.233-15.185"/><path fill="#D2E4FB" d="m59 119-12 3.5h12.5l2.5 7 4.5 3.5 3-2 7-13.5c-1.667-1.333-4.8-3.5-4-1.5 1 2.5-1 5-2 6.5-.555.832-3 5-4 5-.8 0-4.5-9.5-7.5-8.5"/><path fill="#0D4D9C" fill-rule="evenodd" d="M56.25 100.489c.134-.004.448-.155.58-.13l.022.005.022.005.011.002.04.01.038.009a1.8 1.8 0 0 1 .724.383l.017.015.009.007.029.028.03.027q.143.14.254.308m-2.03-.766.038-.01c.13-.033.082.11.216.107m-.255-.097-.039.011-.01.003-.022.007-.022.007a1.9 1.9 0 0 0-.684.407l-.029.028-.036.036-.016.017-.016.017q-.136.147-.237.322l-.559.964a1 1 0 0 0-.05.1q-.033.045-.061.093l-.016.028-.03.056-.034.054-1.116 1.927a1 1 0 0 0-.05.1 1 1 0 0 0-.062.093l-.016.027-.03.056-.033.054-1.116 1.928a1 1 0 0 0-.05.099q-.034.045-.062.093l-.016.028-.03.056-.034.054-1.116 1.927a1 1 0 0 0-.05.1 1 1 0 0 0-.062.093l-.015.027-.03.057-.034.054-1.116 1.927a1 1 0 0 0-.05.1 1 1 0 0 0-.062.093l-.016.027-.03.056-.034.054-1.116 1.927a1 1 0 0 0-.05.1 1 1 0 0 0-.061.093l-.016.028-.03.056-.034.054-1.116 1.927a1 1 0 0 0-.05.1 1 1 0 0 0-.062.093l-.016.027-.03.056-.033.054-.559.964q-.286.495-.444 1.04a1 1 0 0 0-.025.11 1 1 0 0 0-.033.109l-.008.031-.012.064-.015.063a4.7 4.7 0 0 0 .092 2.243q.015.056.038.107a1 1 0 0 0 .03.109l.011.031.024.06.02.061a4.7 4.7 0 0 0 1.28 1.845 1 1 0 0 0 .09.069 1 1 0 0 0 .084.076l.01.009.016.012.052.038.05.04a4.7 4.7 0 0 0 2.07.871 1 1 0 0 0 .112.011 1 1 0 0 0 .112.019l.032.004.065.004.065.007q.564.042 1.129-.053l.968-.164a1 1 0 0 0 .096-.021q.049-.003.098-.011l.028-.005.055-.011.055-.008 1.937-.328a1 1 0 0 0 .095-.021 1 1 0 0 0 .098-.012l.028-.004.055-.011.055-.008 1.937-.328a1 1 0 0 0 .095-.022 1 1 0 0 0 .098-.011l.028-.004.055-.011.055-.008 1.937-.328a1 1 0 0 0 .095-.022 1 1 0 0 0 .098-.011l.028-.005.055-.011.055-.007.229-.039.08.222a1 1 0 0 0 .04.09 1 1 0 0 0 .028.095l.01.026.02.053.018.053.675 1.853q.017.046.039.091a1 1 0 0 0 .028.094l.01.027.02.052.018.053.675 1.853a1 1 0 0 0 .039.091 1 1 0 0 0 .029.094l.01.027.02.052.018.054.674 1.852a1 1 0 0 0 .039.091 1 1 0 0 0 .029.095l.01.026.02.053.018.053.337.926q.196.537.51 1.006a1 1 0 0 0 .069.09 1 1 0 0 0 .08.121l.041.05.039.052a4.7 4.7 0 0 0 1.773 1.369q.052.024.106.04.05.026.103.047l.012.004.018.007q.03.012.061.021l.06.023a4.7 4.7 0 0 0 2.23.208 1 1 0 0 0 .111-.023 1 1 0 0 0 .207-.037l.064-.012a4.7 4.7 0 0 0 1.995-1.018 1 1 0 0 0 .081-.079 1 1 0 0 0 .087-.072l.023-.023.045-.046.047-.045q.396-.404.688-.894l.535-.906a1 1 0 0 0 .048-.093 1 1 0 0 0 .059-.088l.015-.025.029-.053.032-.051 1.069-1.809a1 1 0 0 0 .048-.093 1 1 0 0 0 .059-.088l.015-.025.029-.053q.017-.025.032-.051l1.069-1.809a1 1 0 0 0 .048-.093 1 1 0 0 0 .059-.088l.015-.026.029-.052.032-.051 1.069-1.809q.027-.047.048-.093a1 1 0 0 0 .059-.088l.015-.026.029-.052.032-.051 1.07-1.809a1 1 0 0 0 .047-.094 1 1 0 0 0 .059-.087l.015-.026.03-.052.031-.051 1.07-1.809a1 1 0 0 0 .047-.094 1 1 0 0 0 .06-.087l.014-.026.03-.053.031-.05.536-.906a2 2 0 0 0 .169-.379l.003-.009.005-.019.006-.019a1.85 1.85 0 0 0 .057-.754l-.001-.01-.003-.02-.003-.019a1.8 1.8 0 0 0-.25-.679l-.019-.029-.005-.009-.011-.016-.011-.017a1.9 1.9 0 0 0-.489-.488l-.029-.019-.029-.019-.003-.002-.005-.003-.017-.01-.017-.01a1.7 1.7 0 0 0-.311-.146 40 40 0 0 1-.97-.369 1 1 0 0 0-.1-.032 1 1 0 0 0-.094-.044l-.027-.011-.056-.021-.054-.024a38 38 0 0 1-1.904-.834 1 1 0 0 0-.097-.039 1 1 0 0 0-.118-.063l-.054-.024-.053-.027q-.937-.453-1.847-.954a1 1 0 0 0-.093-.045 1 1 0 0 0-.088-.056l-.026-.014-.053-.028-.05-.03a39 39 0 0 1-1.783-1.07 1 1 0 0 0-.09-.051 1 1 0 0 0-.085-.061l-.003-.002-.022-.015-.05-.03-.05-.034a38 38 0 0 1-1.71-1.181 1 1 0 0 0-.087-.057 1 1 0 0 0-.08-.067l-.024-.017-.049-.034-.046-.037q-.834-.622-1.632-1.288a1 1 0 0 0-.083-.062 1 1 0 0 0-.076-.072l-.023-.019-.046-.037-.044-.04a39 39 0 0 1-1.546-1.389 1 1 0 0 0-.08-.068 1 1 0 0 0-.136-.136l-.041-.043a38 38 0 0 1-1.454-1.485 1 1 0 0 0-.075-.072 1 1 0 0 0-.066-.081l-.02-.022-.042-.042-.038-.046a38 38 0 0 1-1.357-1.575 1 1 0 0 0-.07-.076 1 1 0 0 0-.06-.085l-.019-.023-.039-.045-.035-.048q-.648-.81-1.253-1.658a1 1 0 0 0-.066-.082 1 1 0 0 0-.107-.16q-.015-.025-.033-.049-.297-.425-.584-.86m-2.205 2.048a1 1 0 0 1-.05.1l-.016.028-.033.054-.03.056-1.116 1.927a1 1 0 0 1-.062.093 1 1 0 0 1-.05.1l-.016.027-.034.054-.03.056-1.116 1.928q-.029.048-.062.093a1 1 0 0 1-.05.099l-.015.028-.034.054-.03.056-1.116 1.927a1 1 0 0 1-.062.093 1 1 0 0 1-.05.1l-.016.028-.034.053-.03.057-1.116 1.927q-.028.048-.061.093a1 1 0 0 1-.05.1l-.016.027-.034.054-.03.056-1.116 1.927a1 1 0 0 1-.062.093 1 1 0 0 1-.05.1l-.016.028-.033.054-.03.056-1.116 1.927a1 1 0 0 1-.062.093 1 1 0 0 1-.05.1l-.016.027-.034.054-.03.056-.558.964a3 3 0 0 0-.274.641l-.022.066-.014.069-.004.019-.01.039-.007.039a2.9 2.9 0 0 0 .057 1.383l.017.068a1 1 0 0 1 .044.122l.015.037a2.9 2.9 0 0 0 .79 1.138l.05.048.056.041.016.013.03.025.033.023a2.9 2.9 0 0 0 1.276.537l.069.014q.034.001.07.005l.012.001.007.001.04.005.04.002q.348.026.696-.032l.968-.164a1 1 0 0 1 .098-.012 1 1 0 0 1 .095-.021l.028-.005q.028-.005.056-.007.027-.007.055-.012l1.936-.328q.05-.008.097-.011a1 1 0 0 1 .096-.021l.028-.005.056-.008.055-.011 1.936-.328q.05-.008.097-.011a1 1 0 0 1 .096-.021l.028-.005.056-.008.055-.011 1.936-.328q.049-.008.098-.011a1 1 0 0 1 .096-.022l.027-.004.056-.008.055-.011.968-.164a.9.9 0 0 1 .996.579l.337.927q.017.047.029.094a1 1 0 0 1 .038.091l.01.027.018.053.02.052.675 1.853a1 1 0 0 1 .029.095 1 1 0 0 1 .039.09l.01.027.017.053.02.053.675 1.852q.017.047.03.095a1 1 0 0 1 .038.091l.01.026.017.054.021.052.674 1.853a1 1 0 0 1 .03.094q.021.044.038.091l.01.026.017.054q.012.026.021.052l.337.927q.12.33.315.62l.037.06q.023.025.044.054l.011.016.024.033.025.03a2.9 2.9 0 0 0 1.093.844q.033.015.063.031l.066.022.019.008.037.015.038.012a2.9 2.9 0 0 0 1.375.128l.07-.008.087-.02.039-.007.038-.01a2.9 2.9 0 0 0 1.285-.671l.05-.05.014-.013.029-.027.027-.029a3 3 0 0 0 .424-.551l.534-.904a1 1 0 0 1 .059-.088 1 1 0 0 1 .048-.093l.015-.026.032-.051.03-.052 1.068-1.809a1 1 0 0 1 .059-.088 1 1 0 0 1 .048-.093l.015-.026q.015-.026.032-.051l.03-.053 1.068-1.808a1 1 0 0 1 .059-.088 1 1 0 0 1 .048-.093l.015-.026.033-.051.028-.053 1.07-1.809q.026-.045.058-.087a1 1 0 0 1 .048-.093l.015-.026.033-.051.028-.053 1.07-1.809q.026-.045.058-.087a1 1 0 0 1 .048-.094l.016-.025.032-.051.029-.053 1.069-1.809q.027-.045.058-.087a1 1 0 0 1 .048-.094l.016-.025.032-.051.029-.053.533-.903.005-.009v-.003l.002-.02v-.003l-.002-.009-.004-.008v-.001l-.001-.001-.002-.003-.003-.003-.006-.005-.001-.001h-.001l-.007-.004-.005-.001q-.511-.187-1.018-.386a1 1 0 0 1-.099-.046 1 1 0 0 1-.103-.035l-.029-.012-.057-.025-.058-.021a41 41 0 0 1-1.994-.873 1 1 0 0 1-.096-.053 1 1 0 0 1-.1-.041l-.029-.013-.055-.029q-.028-.011-.057-.025a40 40 0 0 1-1.934-.999 1 1 0 0 1-.092-.058 1 1 0 0 1-.098-.047l-.027-.015q-.028-.016-.053-.033l-.056-.028a40 40 0 0 1-1.866-1.121 1 1 0 0 1-.088-.064 1 1 0 0 1-.095-.053l-.026-.017-.051-.036-.054-.032a39 39 0 0 1-1.79-1.237 1 1 0 0 1-.085-.069 1 1 0 0 1-.091-.06l-.025-.018-.049-.039-.05-.036a40 40 0 0 1-1.71-1.348 1 1 0 0 1-.079-.075q-.045-.03-.087-.065l-.024-.02-.046-.042-.048-.039a40 40 0 0 1-1.62-1.455 1 1 0 0 1-.074-.079 1 1 0 0 1-.083-.071l-.022-.022-.044-.044-.046-.042a40 40 0 0 1-1.522-1.555 1 1 0 0 1-.07-.085 1 1 0 0 1-.078-.076l-.021-.022-.04-.048-.044-.044a39 39 0 0 1-1.42-1.65 1 1 0 0 1-.064-.088 1 1 0 0 1-.073-.081l-.02-.024-.037-.05-.04-.047a40 40 0 0 1-1.312-1.737 1 1 0 0 1-.058-.092 1 1 0 0 1-.068-.085l-.018-.026-.034-.052-.038-.05a41 41 0 0 1-.612-.9l-.007-.009-.001-.001-.001-.001-.01-.006-.009-.004h-.002l-.001-.001h-.01l-.011.001h-.001l-.001.001h-.002l-.01.004-.008.007-.001.001-.001.001-.007.009-.557.963a1 1 0 0 1-.062.092" clip-rule="evenodd"/><path fill="#fff" d="M122.4 80.2c0 18.336-14.864 33.2-33.2 33.2S56 98.536 56 80.2 70.864 47 89.2 47s33.2 14.864 33.2 33.2"/><path fill="#D2E4FB" d="M88 110.5c-11-.094-21-8-26-12.5l10.5 11 8 2.5 13 2 5.5-2 10-4.5 8.5-9 3.5-7 1.5-9c-.5-4.333-1.5-12.1-1.5-8.5 0 4.5-2.5 17.5-8 24.5s-13.955 12.594-25 12.5"/><path fill="#0D4D9C" fill-rule="evenodd" d="M67.135 54.07A34.07 34.07 0 0 1 89.2 46a34.07 34.07 0 0 1 22.066 8.07c.33.28.434.728.292 1.112a1 1 0 0 1 1.137.166q.175.164.347.332a1 1 0 0 1-1.395 1.434q-.162-.158-.326-.313a1 1 0 0 1-.25-1.075 1 1 0 0 1-1.097-.129A32.07 32.07 0 0 0 89.2 48a32.07 32.07 0 0 0-20.774 7.597 1 1 0 0 1-1.291-1.528m-1.04 2.269a1 1 0 0 1 .019 1.414q-.158.162-.313.326a1 1 0 0 1-1.075.25 1 1 0 0 1-.129 1.097A32.07 32.07 0 0 0 57 80.2a32.07 32.07 0 0 0 7.597 20.774 1 1 0 0 1-1.527 1.292A34.07 34.07 0 0 1 55 80.2c0-8.408 3.036-16.11 8.07-22.065a1 1 0 0 1 1.112-.293 1 1 0 0 1 .166-1.137q.165-.175.332-.347a1 1 0 0 1 1.414-.02m47.826 1.677a1 1 0 0 1 1.409.119A34.07 34.07 0 0 1 123.4 80.2a34.07 34.07 0 0 1-8.07 22.066c-.279.33-.728.434-1.112.292a1 1 0 0 1-.166 1.137q-.165.175-.332.347a1 1 0 0 1-1.434-1.395q.157-.162.313-.326a1 1 0 0 1 1.075-.25 1 1 0 0 1 .129-1.097A32.07 32.07 0 0 0 121.4 80.2a32.07 32.07 0 0 0-7.597-20.774 1 1 0 0 1 .118-1.41m-48.582 45.29a1 1 0 0 1 1.414-.02q.162.157.326.313a1 1 0 0 1 .25 1.075 1 1 0 0 1 1.097.129A32.07 32.07 0 0 0 89.2 112.4a32.07 32.07 0 0 0 20.774-7.597 1.001 1.001 0 0 1 1.292 1.527A34.07 34.07 0 0 1 89.2 114.4a34.07 34.07 0 0 1-22.065-8.07 1 1 0 0 1-.293-1.112 1 1 0 0 1-1.137-.166q-.175-.165-.347-.332a1 1 0 0 1-.02-1.414" clip-rule="evenodd"/><path fill="#D2E4FB" d="m88.252 90.134-7.937 5.771a.377.377 0 0 0 .385.645l9.34-4.497a1.5 1.5 0 0 1 1.535.14l6.908 5.032a1.5 1.5 0 0 0 1.537.138l1.781-.863a1.5 1.5 0 0 0 .829-1.574l-1.587-10.499a1.5 1.5 0 0 1 .502-1.358l6.587-5.705a.833.833 0 0 0-1.038-1.301l-8.507 6.245a1.5 1.5 0 0 0-.6 1.398l1.18 9.291c.028.22.122.43.207.635.75 1.806-7.71-4.344-8.92-4.344-.4 0-.705.027-.935.067-.473.082-.879.496-1.267.779"/><path fill="#D32D27" d="M124.407 47.471a4.09 4.09 0 0 1 3.062-3.057l6.136-1.416a.51.51 0 0 0 .395-.497.51.51 0 0 0-.395-.496l-6.136-1.42a4.08 4.08 0 0 1-3.057-3.056l-1.415-6.134a.51.51 0 0 0-.993 0l-1.415 6.134a4.08 4.08 0 0 1-3.062 3.056l-6.132 1.416a.508.508 0 0 0-.284.814c.071.09.172.153.284.18l6.131 1.415a4.08 4.08 0 0 1 3.056 3.057l1.417 6.138a.51.51 0 0 0 .993 0z"/><path fill="#C2E0F4" fill-rule="evenodd" d="M42 142a1 1 0 0 1 1-1h.267a1 1 0 0 1 0 2H43a1 1 0 0 1-1-1m3.472 0a1 1 0 0 1 1-1h87.59a1 1 0 1 1 0 2h-87.59a1 1 0 0 1-1-1m90.261 0a1 1 0 0 1 1-1H137a1 1 0 0 1 0 2h-.267a1 1 0 0 1-1-1" clip-rule="evenodd"/><path fill="#B5D9F1" fill-rule="evenodd" d="M142.1 92.95a3.85 3.85 0 1 1 7.702 0 3.85 3.85 0 0 1-7.702 0m3.851-2.05a2.05 2.05 0 1 0 0 4.101 2.05 2.05 0 0 0 0-4.101M44.364 36.81a.9.9 0 0 1 0-1.273l4.173-4.173a.9.9 0 0 1 1.273 0l4.173 4.173a.9.9 0 0 1 0 1.273l-4.173 4.173a.9.9 0 0 1-1.273 0zm1.909-.637 2.9 2.9 2.9-2.9-2.9-2.9zm-5.196 57.396a.9.9 0 0 1 1.273 1.272l-1.618 1.618 1.782 1.782a.9.9 0 1 1-1.273 1.273l-1.782-1.782-1.782 1.782a.9.9 0 0 1-1.273-1.273l1.782-1.782-1.617-1.618a.9.9 0 0 1 1.272-1.272l1.618 1.617z" clip-rule="evenodd"/><path fill="#0D4D9C" fill-rule="evenodd" d="m93.813 69.562-2.16-6.65c-.63-1.935-3.367-1.935-3.995 0l-2.161 6.65a5.7 5.7 0 0 1-5.421 3.939h-6.993c-2.034 0-2.88 2.603-1.234 3.798l5.657 4.11a5.7 5.7 0 0 1 2.07 6.373l-2.16 6.65c-.629 1.935 1.586 3.544 3.232 2.349l5.657-4.11a5.7 5.7 0 0 1 6.7 0l5.657 4.11c1.646 1.195 3.861-.414 3.232-2.348l-2.16-6.65a5.7 5.7 0 0 1 2.07-6.373l5.657-4.11c1.646-1.196.8-3.8-1.234-3.8h-6.993a5.7 5.7 0 0 1-5.421-3.938m-.449-7.206c-1.167-3.594-6.25-3.594-7.418 0l-2.16 6.65a3.9 3.9 0 0 1-3.71 2.695h-6.993c-3.778 0-5.348 4.834-2.292 7.055l5.657 4.11a3.9 3.9 0 0 1 1.417 4.36l-2.16 6.65c-1.168 3.593 2.944 6.581 6 4.36l5.658-4.11a3.9 3.9 0 0 1 4.584 0l5.657 4.11c3.057 2.221 7.169-.767 6.002-4.36l-2.161-6.65a3.9 3.9 0 0 1 1.417-4.36l5.657-4.11c3.056-2.22 1.486-7.055-2.292-7.055h-6.993a3.9 3.9 0 0 1-3.71-2.695z" clip-rule="evenodd"/></svg>