<svg xmlns="http://www.w3.org/2000/svg" width="56" height="56" fill="none"><g opacity=".2"><circle cx="28" cy="28" r="27" fill="#A2DFCD" stroke="#264887" stroke-width="2"/><path fill="#fff" stroke="#264887" stroke-linecap="round" stroke-linejoin="round" d="M19.346 12.333a1.32 1.32 0 0 1 .989-.99l1.988-.458a.165.165 0 0 0 0-.323l-1.988-.458a1.32 1.32 0 0 1-.99-.99l-.458-1.984a.165.165 0 0 0-.323 0l-.457 1.987a1.32 1.32 0 0 1-.99.988l-1.987.457a.165.165 0 0 0 0 .323l1.987.458a1.32 1.32 0 0 1 .99.99l.458 1.987a.165.165 0 0 0 .322 0z"/><path fill="#6CB4E4" stroke="#264887" d="m43.94 42.39-.026-.043-3.39-5.847a15.5 15.5 0 0 1-7.374 5.769l2.797 4.734a.959.959 0 0 0 1.724-.165l.001-.001 1.213-3.335.143-.392.41.07 3.488.59zm0 0a.96.96 0 0 1-1.013 1.38zm-21.214-.547a15 15 0 0 1-7.392-5.837.365.365 0 0 0-.491-.112zm0 0a.36.36 0 0 1 .238.376zm-7.689-5.38a15.5 15.5 0 0 0 7.365 5.793l-2.804 4.746a.96.96 0 0 1-1.725-.16l-1.215-3.337-.143-.392-.41.07-3.487.59a.959.959 0 0 1-.99-1.425z"/><path fill="#fff" d="M27.76 15a12.76 12.76 0 1 0 12.76 12.76A12.775 12.775 0 0 0 27.76 15m5.679 18.814a.97.97 0 0 1-1.38 1.212l-4.096-2.305a.41.41 0 0 0-.404 0l-4.096 2.305a.97.97 0 0 1-1.38-1.212l1.666-3.831a.41.41 0 0 0-.089-.458l-3.008-2.964a.903.903 0 0 1 .636-1.58h3.436a.41.41 0 0 0 .374-.237l1.791-3.858a.978.978 0 0 1 1.74 0l1.792 3.858a.41.41 0 0 0 .373.237h3.435a.905.905 0 0 1 .64 1.58l-3.008 2.964a.41.41 0 0 0-.089.458z"/><path fill="#fff" d="M33.439 33.814a.97.97 0 0 1-1.38 1.212l-4.096-2.305a.41.41 0 0 0-.404 0l-4.096 2.305a.97.97 0 0 1-1.38-1.212l1.666-3.831a.41.41 0 0 0-.089-.458l-3.008-2.964a.903.903 0 0 1 .636-1.58h3.436a.41.41 0 0 0 .374-.237l1.791-3.858a.978.978 0 0 1 1.74 0l1.792 3.858a.41.41 0 0 0 .373.237h3.435a.905.905 0 0 1 .64 1.58l-3.008 2.964a.41.41 0 0 0-.089.458z"/><path fill="#6CB4E4" stroke="#264887" d="m33.922 33.623-.003-.008-1.642-3.776 2.957-2.914a1.405 1.405 0 0 0-.993-2.444h-3.37l-1.766-3.806-.005-.008-.004-.01a1.478 1.478 0 0 0-2.63 0l-.005.01-.004.008-1.767 3.806h-3.37a1.404 1.404 0 0 0-.987 2.445l2.956 2.913-1.642 3.776-.003.008a1.47 1.47 0 0 0 2.089 1.838l.002-.002 4.049-2.278 4.048 2.278.003.002a1.47 1.47 0 0 0 2.088-1.838ZM23.798 29.74a.4.4 0 0 0-.116-.215l-.197 5.5a.97.97 0 0 1-1.38-1.211l1.666-3.831a.4.4 0 0 0 .027-.243ZM20.97 17.566a12.26 12.26 0 0 1 6.811-2.066 12.275 12.275 0 0 1 12.26 12.26 12.26 12.26 0 1 1-19.07-10.194Z"/><path fill="#fff" fill-rule="evenodd" d="M23.53 38.737A11.75 11.75 0 0 1 18 28.76C18 22.265 23.265 17 29.76 17c1.49 0 2.917.277 4.23.784A11.7 11.7 0 0 0 27.76 16C21.265 16 16 21.265 16 27.76c0 5.004 3.125 9.278 7.53 10.976" clip-rule="evenodd"/></g></svg>