<svg xmlns="http://www.w3.org/2000/svg" width="60" height="40" fill="none"><path fill="#fff" fill-rule="evenodd" d="M25.035 23.732a8.54 8.54 0 0 0 8.398.051l1.664 1.474v2.318h2.322l.774.811v2.28h2.038l1.644 1.545h3.283v-3.278l-8.442-8.427c1.81-3.234 1.345-7.399-1.409-10.148a8.5 8.5 0 0 0-7.113-2.42" clip-rule="evenodd"/><path stroke="#D7DBE0" stroke-dasharray="109.7 4.54" stroke-linecap="round" stroke-width="1.25" d="M25.035 23.732a8.54 8.54 0 0 0 8.398.051l1.664 1.474v2.318h2.322l.774.811v2.28h2.038l1.644 1.545h3.283v-3.278l-8.442-8.427c1.81-3.234 1.345-7.399-1.409-10.148a8.5 8.5 0 0 0-7.113-2.42"/><path fill="#fff" fill-rule="evenodd" stroke="#D7DBE0" stroke-dasharray="117.49 4.54 0.65 2.6" stroke-linecap="round" stroke-width="1.25" d="M30.877 14.636c0-4.635-3.779-8.39-8.438-8.39S14 10 14 14.636c0 3.839 2.598 7.068 6.137 8.065v1.85l-1.534 1.524 1.534 1.527v1.525l-1.534 1.526 1.534 1.525v2.288l2.302 2.288 2.301-2.288V22.701c3.54-.997 6.137-4.226 6.137-8.065Z" clip-rule="evenodd"/><path stroke="#D7DBE0" stroke-linecap="round" stroke-linejoin="round" stroke-width="1.298" d="M24.061 13.71a1.623 1.623 0 1 1-3.246 0 1.623 1.623 0 0 1 3.246 0" clip-rule="evenodd"/><path stroke="#D7DBE0" stroke-linecap="round" stroke-linejoin="round" stroke-width="1.947" d="M22.439 13.71V5.996C22.439 4.342 23.893 3 25.684 3s3.246 1.342 3.246 2.996v1.508"/><path stroke="#D7DBE0" d="M52.303 26.92a1.25 1.25 0 1 0 0-2.499 1.25 1.25 0 0 0 0 2.5Z" clip-rule="evenodd"/><path stroke="#D7DBE0" stroke-linecap="round" stroke-linejoin="round" d="M4 25.395h2.5v2.5H4z"/><path stroke="#D7DBE0" stroke-linecap="round" d="m43.885 3.35 2.375 2.374m-.084-2.374-2.375 2.374"/><path fill="#fff" d="M36.562 16.093a.97.97 0 0 0-.726-.182.97.97 0 0 0-.64.393L30.56 22.69l-2.948-2.395a.97.97 0 0 0-1.36.168 1.004 1.004 0 0 0 .137 1.384l3.742 3.039a.98.98 0 0 0 1.107.076 1 1 0 0 0 .292-.263l5.243-7.218a1 1 0 0 0-.21-1.389"/></svg>