<svg xmlns="http://www.w3.org/2000/svg" width="238" height="38" fill="none"><path fill="#3C4B53" d="M0 0h238v38H0z"/><path fill="#88959E" d="M68.094 21.898q0 1.524-1.102 2.391-1.101.867-3.039.867t-3.172-.601v-1.766q.781.368 1.657.578.882.21 1.64.211 1.11 0 1.633-.422.531-.422.531-1.133a1.42 1.42 0 0 0-.484-1.085q-.485-.446-2-1.055-1.563-.633-2.203-1.445t-.64-1.954q0-1.43 1.015-2.25 1.016-.82 2.726-.82 1.64 0 3.266.719l-.594 1.523q-1.524-.64-2.719-.64-.906 0-1.375.398-.468.39-.468 1.04 0 .444.187.765.187.312.617.593t1.547.743q1.258.523 1.844.976.585.453.86 1.024.273.57.273 1.343m5.789 3.258q-2.016 0-3.156-1.172-1.133-1.18-1.133-3.242 0-2.116 1.054-3.328 1.056-1.21 2.899-1.21 1.71 0 2.703 1.038.993 1.04.992 2.86v.992h-5.758q.04 1.257.68 1.937.64.672 1.805.672.765 0 1.422-.14.663-.149 1.421-.485v1.492a5.6 5.6 0 0 1-1.359.453 8.3 8.3 0 0 1-1.57.133m-.336-7.562q-.876 0-1.406.554-.525.556-.625 1.618h3.921q-.015-1.07-.515-1.618-.5-.555-1.375-.554m9.266 7.562q-1.962 0-2.985-1.14-1.016-1.148-1.016-3.29 0-2.18 1.063-3.351 1.07-1.172 3.086-1.172 1.367 0 2.46.508l-.554 1.477q-1.163-.454-1.922-.454-2.242 0-2.242 2.977 0 1.454.555 2.187.563.727 1.64.727 1.227 0 2.32-.61v1.602a3.6 3.6 0 0 1-1.054.414q-.555.125-1.352.125M93.343 25l-.257-1.133h-.094a2.6 2.6 0 0 1-1.094.945q-.702.345-1.609.344-1.57 0-2.344-.781-.773-.78-.773-2.367v-5.649h1.851v5.328q0 .993.407 1.493.405.492 1.273.492 1.156 0 1.695-.688.547-.695.547-2.32V16.36h1.844V25zm8.446-8.797q.555 0 .914.078l-.18 1.711a3.5 3.5 0 0 0-.812-.094q-1.101 0-1.79.72-.678.717-.679 1.866V25h-1.836v-8.64h1.438l.242 1.523h.094a3.44 3.44 0 0 1 1.117-1.227 2.7 2.7 0 0 1 1.492-.453M106.148 25h-1.836v-8.64h1.836zm-1.945-10.93q0-.491.266-.758.273-.265.773-.265.484 0 .75.265.273.267.274.758 0 .47-.274.742-.266.267-.75.266-.5 0-.773-.265-.266-.274-.266-.743M112 23.672q.672 0 1.344-.211v1.383a3.6 3.6 0 0 1-.789.218 5 5 0 0 1-.993.094q-2.609 0-2.609-2.75V17.75h-1.18v-.812l1.266-.672.625-1.828h1.133v1.921h2.461v1.391h-2.461v4.625q0 .664.328.984.336.313.875.313m1.766-7.313h2l1.757 4.899q.399 1.047.532 1.969h.062q.07-.43.258-1.04.187-.617 1.984-5.828h1.985l-3.696 9.79q-1.007 2.694-3.359 2.695-.61 0-1.187-.133v-1.453a4.3 4.3 0 0 0 .945.094q1.328 0 1.867-1.54l.32-.812zm23.531 2.82q0 2.829-1.57 4.329Q134.157 25 131.203 25h-3.195V13.578h3.531q2.727 0 4.242 1.469t1.516 4.133m-1.969.063q0-4.101-3.836-4.101h-1.617v8.289h1.328q4.125 0 4.125-4.188M144.969 25l-.367-1.203h-.063q-.625.789-1.258 1.078-.632.281-1.625.281-1.274 0-1.992-.687-.711-.688-.711-1.946 0-1.335.992-2.015.993-.68 3.024-.742l1.492-.047v-.461q0-.828-.391-1.235-.382-.414-1.195-.414-.664 0-1.273.196a10 10 0 0 0-1.172.46l-.594-1.312q.704-.367 1.539-.555a7 7 0 0 1 1.578-.195q1.648 0 2.485.719.843.719.843 2.258V25zm-2.735-1.25q1 0 1.602-.555.609-.562.609-1.57v-.75l-1.109.047q-1.297.047-1.891.437-.585.384-.586 1.18 0 .578.344.898.344.313 1.031.313m12.414-1.21q0 1.264-.921 1.944-.922.672-2.641.672-1.727 0-2.774-.523v-1.586q1.524.703 2.836.703 1.696 0 1.696-1.023a.8.8 0 0 0-.188-.547q-.187-.219-.617-.453a11 11 0 0 0-1.195-.532q-1.493-.577-2.024-1.156-.523-.578-.523-1.5 0-1.11.891-1.719.898-.617 2.437-.617 1.524 0 2.883.617l-.594 1.383q-1.398-.578-2.352-.578-1.453 0-1.453.828 0 .406.375.688.384.28 1.657.773 1.07.414 1.554.758.485.344.719.797.234.445.234 1.07m9.594 2.46h-1.844v-5.312q0-1-.406-1.493-.398-.492-1.273-.492-1.157 0-1.703.695-.54.689-.539 2.313V25h-1.836V12.844h1.836v3.086q0 .741-.094 1.586h.117q.375-.625 1.039-.97.672-.343 1.563-.343 3.14 0 3.14 3.164zm6.969-8.797q1.617 0 2.516 1.172.906 1.172.906 3.29 0 2.124-.914 3.312-.915 1.18-2.539 1.18-1.641 0-2.547-1.18h-.125L168.172 25h-1.375V12.844h1.836v2.89q0 .321-.031.954-.032.632-.047.804h.078q.875-1.29 2.578-1.289m-.477 1.5q-1.109 0-1.601.656-.485.65-.5 2.18v.125q0 1.578.5 2.29.5.702 1.633.702.977 0 1.476-.773.508-.773.508-2.235 0-2.945-2.016-2.945m13.696 2.961q0 2.118-1.086 3.305t-3.024 1.187q-1.211 0-2.14-.547a3.6 3.6 0 0 1-1.43-1.57q-.5-1.023-.5-2.375 0-2.102 1.078-3.281t3.039-1.18q1.875 0 2.969 1.211 1.094 1.203 1.094 3.25m-6.289 0q0 2.992 2.211 2.992 2.187 0 2.187-2.992 0-2.96-2.203-2.96-1.156 0-1.68.765-.516.765-.515 2.195M191.953 25l-.367-1.203h-.063q-.624.789-1.257 1.078-.633.281-1.625.281-1.273 0-1.993-.687-.71-.688-.71-1.946 0-1.335.992-2.015t3.023-.742l1.492-.047v-.461q0-.828-.39-1.235-.384-.414-1.196-.414-.663 0-1.273.196-.61.195-1.172.46l-.594-1.312q.703-.367 1.539-.555a7 7 0 0 1 1.579-.195q1.648 0 2.484.719.844.719.844 2.258V25zm-2.734-1.25q1 0 1.601-.555.61-.562.61-1.57v-.75l-1.11.047q-1.296.047-1.89.437-.586.384-.586 1.18 0 .578.344.898.343.313 1.031.313m10.992-7.547q.555 0 .914.078l-.18 1.711a3.5 3.5 0 0 0-.812-.094q-1.102 0-1.789.72-.68.717-.68 1.866V25h-1.836v-8.64h1.438l.242 1.523h.094a3.4 3.4 0 0 1 1.117-1.227 2.7 2.7 0 0 1 1.492-.453m5.437 8.953q-1.617 0-2.523-1.172-.906-1.17-.906-3.289 0-2.125.914-3.304.921-1.188 2.547-1.188 1.703 0 2.593 1.258h.094q-.132-.93-.133-1.469v-3.148h1.844V25h-1.437l-.321-1.133h-.086q-.882 1.29-2.586 1.29m.493-1.484q1.132 0 1.648-.633.516-.64.531-2.07v-.258q0-1.633-.531-2.32-.531-.688-1.664-.688-.969 0-1.492.79-.524.78-.524 2.234 0 1.437.508 2.195.509.75 1.524.75M38 10.545a1.55 1.55 0 0 0-1.548-1.541H20.55a1.55 1.55 0 0 0-1.54 1.55L19 16.367a11.99 11.99 0 0 0 9.39 11.613.8.8 0 0 0 .313-.001 11.99 11.99 0 0 0 9.287-11.695zm-5.315 5.99-1.773 1.44a.2.2 0 0 0-.056.234l.987 2.27a.571.571 0 0 1-.812.712l-2.434-1.369a.2.2 0 0 0-.194 0l-2.436 1.369a.57.57 0 0 1-.812-.713l.987-2.266a.2.2 0 0 0-.057-.233l-1.77-1.443a.532.532 0 0 1 .375-.931h2.044a.2.2 0 0 0 .183-.123l1.07-2.612a.579.579 0 0 1 1.03 0l1.066 2.612a.2.2 0 0 0 .184.123h2.044a.533.533 0 0 1 .374.93"/></svg>