<svg xmlns="http://www.w3.org/2000/svg" width="238" height="152" fill="none"><path fill="#3598DB" d="M4 0h230v80H4z"/><g filter="url(#a)"><path fill="#fff" d="M4 80h230v50H4z"/></g><path fill="#526278" d="M22.078 104h2.099l1.32-5.182h.04L26.863 104h2.126l1.942-7.328h-1.97l-1.113 5.434h-.041L26.5 96.672h-1.914l-1.299 5.434h-.04l-1.108-5.434h-2.01zm12.859.15c2.091 0 3.103-1.237 3.329-2.317l.02-.075h-1.832l-.014.041c-.143.41-.642.861-1.462.861-1.019 0-1.655-.683-1.675-1.852h5.045v-.616c0-2.214-1.347-3.67-3.493-3.67s-3.521 1.49-3.521 3.821v.007c0 2.344 1.36 3.8 3.603 3.8m-.048-6.138c.827 0 1.421.526 1.545 1.538h-3.11c.13-.991.744-1.538 1.565-1.538m8.832 6.138c1.845 0 2.987-1.435 2.987-3.814v-.007c0-2.386-1.142-3.807-2.98-3.807-1.046 0-1.86.533-2.263 1.421h-.041v-3.807h-1.996V104h1.996v-1.251h.04c.397.868 1.204 1.401 2.257 1.401m-.663-1.654c-.971 0-1.634-.834-1.634-2.16v-.007c0-1.32.67-2.153 1.634-2.153.99 0 1.62.813 1.62 2.153v.007c0 1.333-.63 2.16-1.62 2.16m7.69 1.654c1.887 0 3.206-.943 3.206-2.379v-.006c0-1.08-.629-1.682-2.16-2.003l-1.244-.267c-.738-.157-.991-.403-.991-.78v-.006c0-.472.43-.78 1.12-.78.739 0 1.17.397 1.238.924l.007.054h1.839v-.068c-.048-1.285-1.135-2.317-3.083-2.317-1.867 0-3.07.902-3.07 2.296v.007c0 1.094.718 1.805 2.14 2.106l1.244.259c.718.158.964.383.964.773v.007c0 .471-.458.765-1.21.765-.8 0-1.23-.335-1.36-.909l-.014-.061h-1.948l.007.061c.157 1.388 1.285 2.324 3.315 2.324m5.23-8.422a1.05 1.05 0 0 0 1.066-1.038 1.05 1.05 0 0 0-1.066-1.04 1.05 1.05 0 0 0-1.067 1.04 1.05 1.05 0 0 0 1.066 1.038M54.98 104h1.996v-7.328H54.98zm6.248.15c.416 0 .738-.041.963-.075v-1.463c-.123.014-.253.034-.43.034-.602 0-.91-.232-.91-.916v-3.554h1.34v-1.504h-1.34V94.88h-2.016v1.79h-1.019v1.505h1.019v3.773c0 1.572.766 2.201 2.392 2.201m5.29 0c2.092 0 3.104-1.237 3.33-2.317l.02-.075h-1.832l-.014.041c-.143.41-.642.861-1.462.861-1.019 0-1.655-.683-1.675-1.852h5.045v-.616c0-2.214-1.347-3.67-3.494-3.67-2.146 0-3.52 1.49-3.52 3.821v.007c0 2.344 1.36 3.8 3.603 3.8m-.047-6.138c.827 0 1.422.526 1.545 1.538h-3.11c.13-.991.744-1.538 1.565-1.538m5.53 6.104c.615 0 1.107-.492 1.107-1.107a1.1 1.1 0 0 0-1.107-1.108c-.622 0-1.107.486-1.107 1.108 0 .615.485 1.107 1.107 1.107m5.373.034c1.955 0 3.22-1.216 3.316-2.816v-.041h-1.86l-.007.061c-.136.739-.635 1.231-1.435 1.231-.985 0-1.6-.814-1.6-2.249v-.007c0-1.401.615-2.242 1.593-2.242.827 0 1.312.533 1.435 1.23l.014.062h1.853v-.048c-.076-1.586-1.34-2.81-3.33-2.81-2.194 0-3.595 1.457-3.595 3.801v.007c0 2.365 1.38 3.821 3.616 3.821m7.643 0c2.214 0 3.63-1.421 3.63-3.814v-.014c0-2.372-1.443-3.8-3.637-3.8-2.188 0-3.623 1.442-3.623 3.8v.014c0 2.386 1.401 3.814 3.63 3.814m.006-1.565c-.984 0-1.606-.814-1.606-2.249v-.014c0-1.415.629-2.235 1.593-2.235.97 0 1.606.82 1.606 2.235v.014c0 1.429-.622 2.249-1.593 2.249M89.68 104h1.996v-4.423c0-.827.513-1.401 1.271-1.401.739 0 1.183.465 1.183 1.25V104h1.92v-4.457c0-.814.5-1.367 1.259-1.367.772 0 1.196.465 1.196 1.312V104h1.996v-5.01c0-1.477-.964-2.468-2.4-2.468-1.073 0-1.948.587-2.276 1.51h-.04c-.247-.964-.992-1.51-2.017-1.51-.985 0-1.75.546-2.051 1.38h-.041v-1.23H89.68zm-68.964 16h1.02v-8.455h-1.02zm4.178.117c.814 0 1.546-.439 1.904-1.107h.023v.99h1.02v-4.213c0-1.219-.902-1.998-2.344-1.998-1.435 0-2.308.809-2.396 1.811l-.006.064h.984l.012-.053c.117-.545.61-.92 1.394-.92.85 0 1.336.452 1.336 1.196v.509l-1.746.1c-1.4.082-2.209.733-2.209 1.77v.011c0 1.108.815 1.84 2.028 1.84m-.985-1.84v-.011c0-.569.469-.932 1.283-.979l1.63-.099v.498c0 .884-.739 1.546-1.7 1.546-.732 0-1.213-.369-1.213-.955m7.389 1.84c1.36 0 2.367-.75 2.367-1.816v-.006c0-.867-.445-1.354-1.676-1.652l-.966-.235c-.674-.164-.95-.451-.95-.867v-.006c0-.539.457-.896 1.196-.896.755 0 1.207.392 1.289.984l.005.041h.973l-.006-.076c-.076-1.02-.926-1.799-2.261-1.799-1.319 0-2.239.744-2.239 1.793v.006c0 .879.557 1.412 1.705 1.687l.967.235c.692.17.92.416.92.855v.006c0 .551-.492.897-1.318.897-.832 0-1.283-.358-1.407-.967l-.011-.059h-1.02l.006.053c.123 1.09.99 1.822 2.426 1.822m5.408 0c.2 0 .416-.023.545-.041v-.826c-.088.006-.205.023-.328.023-.545 0-.832-.181-.832-.832v-3.691h1.16v-.844h-1.16v-1.646h-1.055v1.646h-.89v.844h.89v3.697c0 1.166.55 1.67 1.67 1.67m1.64 1.934h1.02v-3.071h.024c.38.704 1.09 1.137 1.95 1.137 1.53 0 2.573-1.236 2.573-3.158v-.006c0-1.922-1.031-3.164-2.59-3.164-.873 0-1.553.44-1.933 1.149h-.024v-1.032h-1.02zm2.778-2.836c-1.025 0-1.764-.897-1.764-2.256v-.006c0-1.365.733-2.262 1.764-2.262 1.078 0 1.746.862 1.746 2.262v.006c0 1.389-.668 2.256-1.746 2.256m5.602.902c.814 0 1.547-.439 1.904-1.107h.023v.99h1.02v-4.213c0-1.219-.902-1.998-2.344-1.998-1.435 0-2.309.809-2.396 1.811l-.006.064h.984l.012-.053c.117-.545.61-.92 1.394-.92.85 0 1.336.452 1.336 1.196v.509l-1.746.1c-1.4.082-2.209.733-2.209 1.77v.011c0 1.108.815 1.84 2.028 1.84m-.985-1.84v-.011c0-.569.469-.932 1.283-.979l1.63-.099v.498c0 .884-.739 1.546-1.7 1.546-.732 0-1.213-.369-1.213-.955m7.389 1.84c1.36 0 2.367-.75 2.367-1.816v-.006c0-.867-.445-1.354-1.676-1.652l-.967-.235c-.673-.164-.949-.451-.949-.867v-.006c0-.539.457-.896 1.196-.896.755 0 1.207.392 1.289.984l.005.041h.973l-.006-.076c-.076-1.02-.925-1.799-2.261-1.799-1.319 0-2.239.744-2.239 1.793v.006c0 .879.557 1.412 1.705 1.687l.967.235c.692.17.92.416.92.855v.006c0 .551-.492.897-1.318.897-.832 0-1.283-.358-1.407-.967l-.011-.059h-1.02l.006.053c.123 1.09.99 1.822 2.426 1.822m5.59 0c1.36 0 2.367-.75 2.367-1.816v-.006c0-.867-.445-1.354-1.676-1.652l-.967-.235c-.673-.164-.949-.451-.949-.867v-.006c0-.539.457-.896 1.196-.896.755 0 1.207.392 1.288.984l.006.041h.973l-.006-.076c-.076-1.02-.926-1.799-2.261-1.799-1.319 0-2.239.744-2.239 1.793v.006c0 .879.557 1.412 1.705 1.687l.967.235c.692.17.92.416.92.855v.006c0 .551-.492.897-1.318.897-.832 0-1.284-.358-1.407-.967l-.011-.059h-1.02l.006.053c.123 1.09.99 1.822 2.426 1.822m5.508 0c.925 0 1.546-.416 1.875-.984h.023V120h1.02v-6.094h-1.02v3.586c0 1.037-.627 1.723-1.588 1.723-.937 0-1.4-.545-1.4-1.535v-3.774h-1.02v3.955c0 1.389.774 2.256 2.11 2.256m6.41 0c1.36 0 2.367-.75 2.367-1.816v-.006c0-.867-.445-1.354-1.676-1.652l-.967-.235c-.674-.164-.949-.451-.949-.867v-.006c0-.539.457-.896 1.195-.896.756 0 1.207.392 1.29.984l.005.041h.973l-.006-.076c-.076-1.02-.926-1.799-2.262-1.799-1.318 0-2.238.744-2.238 1.793v.006c0 .879.557 1.412 1.705 1.687l.967.235c.691.17.92.416.92.855v.006c0 .551-.492.897-1.318.897-.832 0-1.284-.358-1.407-.967l-.011-.059h-1.02l.006.053c.123 1.09.99 1.822 2.426 1.822m5.935 0c1.33 0 2.326-.797 2.526-1.805l.011-.058h-1.002l-.017.053c-.176.521-.72.908-1.494.908-1.084 0-1.776-.733-1.8-1.986h4.39v-.375c0-1.829-1.014-3.065-2.678-3.065s-2.742 1.295-2.742 3.182v.006c0 1.916 1.054 3.14 2.806 3.14m-.07-5.426c.89 0 1.547.557 1.646 1.741h-3.334c.112-1.137.803-1.741 1.688-1.741M80.217 120h1.02v-3.809c0-.861.515-1.429 1.306-1.429.246 0 .463.029.545.058v-.99c-.082-.012-.234-.041-.41-.041-.715 0-1.278.428-1.477 1.102h-.023v-.985h-.961zm8.555 1.377c.755 0 1.464-.106 1.98-.287v-.797c-.38.17-1.184.281-1.969.281-2.32 0-4.06-1.441-4.06-4.072v-.006c0-2.408 1.629-4.101 3.879-4.101 2.314 0 3.89 1.417 3.89 3.685v.006c0 1.43-.422 2.15-1.037 2.15-.463 0-.78-.392-.78-1.201v-2.853h-.884v.714h-.047c-.222-.498-.79-.826-1.418-.826-1.201 0-2.039.991-2.039 2.426v.006c0 1.482.82 2.478 2.04 2.478.75 0 1.353-.345 1.628-1.054h.053l.017.053c.194.585.68 1.054 1.418 1.054 1.09 0 1.934-1.013 1.934-2.953v-.006c0-2.754-1.98-4.476-4.7-4.476-2.847 0-4.84 1.992-4.84 4.892v.006c0 3.147 2.081 4.881 4.935 4.881m-.311-3.223c-.768 0-1.236-.621-1.236-1.646v-.006c0-1.02.463-1.623 1.248-1.623.79 0 1.306.627 1.306 1.629v.006c0 1.002-.515 1.64-1.318 1.64m8.467 1.963c1.33 0 2.326-.797 2.525-1.805l.012-.058h-1.002l-.018.053c-.175.521-.72.908-1.494.908-1.084 0-1.775-.733-1.799-1.986h4.389v-.375c0-1.829-1.014-3.065-2.678-3.065s-2.742 1.295-2.742 3.182v.006c0 1.916 1.055 3.14 2.807 3.14m-.07-5.426c.89 0 1.546.557 1.646 1.741H95.17c.111-1.137.803-1.741 1.687-1.741m3.714 5.309h1.02v-3.82c0-.85.586-1.489 1.394-1.489.756 0 1.248.487 1.248 1.225V120h1.02v-3.873c0-.832.568-1.436 1.377-1.436.803 0 1.265.498 1.265 1.336V120h1.02v-4.207c0-1.213-.779-2.004-1.986-2.004-.856 0-1.571.44-1.91 1.172h-.024c-.264-.744-.879-1.172-1.711-1.172-.785 0-1.394.404-1.67 1.008h-.023v-.891h-1.02zm11.426.117c.814 0 1.547-.439 1.904-1.107h.024v.99h1.019v-4.213c0-1.219-.902-1.998-2.343-1.998-1.436 0-2.309.809-2.397 1.811l-.006.064h.985l.011-.053c.117-.545.61-.92 1.395-.92.849 0 1.336.452 1.336 1.196v.509l-1.746.1c-1.401.082-2.209.733-2.209 1.77v.011c0 1.108.814 1.84 2.027 1.84m-.984-1.84v-.011c0-.569.468-.932 1.283-.979l1.629-.099v.498c0 .884-.738 1.546-1.699 1.546-.733 0-1.213-.369-1.213-.955m5.8-5.402a.636.636 0 0 0 .639-.639.63.63 0 0 0-.639-.638.636.636 0 0 0-.638.638.64.64 0 0 0 .638.639m-.509 7.125h1.019v-6.094h-1.019zm2.461 0h1.019v-8.455h-1.019zm3.023.082a.66.66 0 0 0 .668-.668.66.66 0 0 0-.668-.668.66.66 0 0 0-.668.668.66.66 0 0 0 .668.668m4.125.035c1.377 0 2.379-.896 2.543-2.056l.006-.041h-1.002l-.012.046c-.17.68-.703 1.149-1.535 1.149-1.055 0-1.781-.838-1.781-2.256v-.006c0-1.383.709-2.262 1.769-2.262.897 0 1.389.539 1.541 1.149l.012.047h.996l-.006-.047c-.129-1.043-1.025-2.051-2.543-2.051-1.693 0-2.812 1.231-2.812 3.152v.006c0 1.94 1.096 3.17 2.824 3.17m6.012 0c1.681 0 2.818-1.219 2.818-3.164v-.012c0-1.945-1.142-3.152-2.824-3.152s-2.818 1.213-2.818 3.152v.012c0 1.94 1.13 3.164 2.824 3.164m.006-.902c-1.078 0-1.787-.826-1.787-2.262v-.012c0-1.423.714-2.25 1.775-2.25 1.078 0 1.781.821 1.781 2.25v.012c0 1.43-.697 2.262-1.769 2.262m3.843.785h1.02v-3.82c0-.85.586-1.489 1.394-1.489.756 0 1.249.487 1.249 1.225V120h1.019v-3.873c0-.832.568-1.436 1.377-1.436.803 0 1.266.498 1.266 1.336V120h1.019v-4.207c0-1.213-.779-2.004-1.986-2.004-.856 0-1.571.44-1.91 1.172h-.024c-.263-.744-.879-1.172-1.711-1.172-.785 0-1.394.404-1.67 1.008h-.023v-.891h-1.02z"/><path fill="#fff" d="M134 36h-1.5v-5.5a13.499 13.499 0 0 0-23.046-9.546A13.5 13.5 0 0 0 105.5 30.5V36H104a4 4 0 0 0-4 4v21a3.997 3.997 0 0 0 4 4h30a4 4 0 0 0 4-4V40a3.997 3.997 0 0 0-4-4m-15 18a4 4 0 1 1 0-8 4 4 0 0 1 0 8m8.5-19a1 1 0 0 1-1 1h-15a1 1 0 0 1-1-1v-4.5a8.5 8.5 0 0 1 17 0z"/><path fill="#2C405A" d="M4 0h230v80H4z" opacity=".7"/><rect width="191" height="45" x="23.5" y="18.5" fill="#526278" stroke="#fff" opacity=".8" rx="3.5"/><path fill="#fff" d="M97.957 46h5.988v-1.107h-4.757v-8.757h-1.231zm9.235.137c.951 0 1.805-.513 2.222-1.292h.027V46h1.19v-4.915c0-1.422-1.053-2.331-2.735-2.331-1.674 0-2.693.943-2.795 2.112l-.007.075h1.148l.014-.061c.137-.636.711-1.073 1.627-1.073.991 0 1.558.526 1.558 1.394v.595l-2.037.116c-1.633.096-2.577.855-2.577 2.065v.013c0 1.292.95 2.147 2.365 2.147m-1.148-2.147v-.013c0-.663.547-1.087 1.497-1.142l1.9-.116v.58c0 1.033-.861 1.806-1.982 1.806-.855 0-1.415-.431-1.415-1.115m8.524 2.147c1.08 0 1.805-.486 2.188-1.149h.027V46h1.19v-7.11h-1.19v4.184c0 1.21-.731 2.01-1.852 2.01-1.094 0-1.634-.636-1.634-1.791v-4.402h-1.19v4.614c0 1.62.903 2.632 2.461 2.632m4.956-.137h1.19v-4.184c0-1.21.731-2.01 1.852-2.01 1.094 0 1.634.636 1.634 1.792V46h1.19v-4.614c0-1.62-.903-2.632-2.461-2.632-1.08 0-1.805.485-2.188 1.148h-.027v-1.011h-1.19zm10.33.137c1.606 0 2.775-1.046 2.966-2.4l.007-.047h-1.169l-.013.054c-.199.793-.821 1.34-1.791 1.34-1.231 0-2.079-.978-2.079-2.632v-.007c0-1.613.828-2.638 2.065-2.638 1.046 0 1.62.628 1.798 1.34l.013.054h1.162l-.006-.054c-.151-1.217-1.197-2.393-2.967-2.393-1.976 0-3.281 1.436-3.281 3.678v.006c0 2.263 1.278 3.699 3.295 3.699m4.128-.137h1.19v-4.15c0-1.21.731-2.043 1.832-2.043 1.107 0 1.764.758 1.764 2.044V46h1.189v-4.355c0-1.722-1.032-2.891-2.543-2.891-1.06 0-1.832.472-2.215 1.271h-.027v-3.89h-1.19z"/><rect width="25" height="25" x="192.5" y="94.5" fill="#EDEFF1" stroke="#DCDFE4" rx="1.5"/><path fill="#41536B" fill-rule="evenodd" d="M204.778 107.258c.93-.673 1.555-1.93 1.555-3.369 0-2.148-1.393-3.889-3.111-3.889s-3.111 1.741-3.111 3.889c0 1.446.631 2.707 1.568 3.377l-.012.512c-4.667.778-4.667 4.666-4.667 4.666h12.444s0-3.888-4.666-4.666z" clip-rule="evenodd"/><mask id="b" width="14" height="14" x="199.111" y="100.556" fill="#000" maskUnits="userSpaceOnUse"><path fill="#fff" d="M199.111 100.556h14v14h-14z"/><path fill-rule="evenodd" d="M207.889 108.813c.93-.672 1.555-1.929 1.555-3.369 0-2.147-1.392-3.888-3.111-3.888-1.718 0-3.111 1.741-3.111 3.888 0 1.446.631 2.708 1.568 3.378l-.012.511c-4.667.778-4.667 4.667-4.667 4.667h12.445s0-3.889-4.667-4.667z" clip-rule="evenodd"/></mask><path fill="#41536B" fill-rule="evenodd" d="M207.889 108.813c.93-.672 1.555-1.929 1.555-3.369 0-2.147-1.392-3.888-3.111-3.888-1.718 0-3.111 1.741-3.111 3.888 0 1.446.631 2.708 1.568 3.378l-.012.511c-4.667.778-4.667 4.667-4.667 4.667h12.445s0-3.889-4.667-4.667z" clip-rule="evenodd"/><path fill="#EDEFF1" d="m207.889 108.813-.293-.405-.207.15v.255zm-3.099.009.5.012.006-.265-.215-.154zm-.012.511.082.494.408-.068.01-.414zM200.111 114h-.5v.5h.5zm12.445 0v.5h.5v-.5zm-4.667-4.667h-.5v.424l.418.07zm1.055-3.889c0 1.304-.567 2.399-1.348 2.964l.586.81c1.078-.78 1.762-2.198 1.762-3.774zm-2.611-3.388c1.344 0 2.611 1.407 2.611 3.388h1c0-2.314-1.518-4.388-3.611-4.388zm-2.611 3.388c0-1.981 1.268-3.388 2.611-3.388v-1c-2.092 0-3.611 2.074-3.611 4.388zm1.359 2.971c-.787-.563-1.359-1.661-1.359-2.971h-1c0 1.583.69 3.007 1.777 3.784zm.197.93.012-.511-1-.024-.012.511zM200.111 114l.5.001v.001-.004l.001-.022.006-.103a4.4 4.4 0 0 1 .515-1.675c.513-.939 1.55-2.009 3.727-2.371l-.164-.987c-2.491.415-3.786 1.679-4.441 2.879a5.5 5.5 0 0 0-.562 1.566 5 5 0 0 0-.08.651l-.002.043v.02zm6.222-.5h-6.222v1h6.222zm6.223 0h-6.223v1h6.223zm-4.749-3.673c2.176.362 3.214 1.432 3.726 2.371.262.479.393.938.459 1.277a4 4 0 0 1 .063.501v.022l.001.004v-.001l.5-.001.5-.001v-.002l-.001-.005v-.013l-.001-.043-.009-.147a5 5 0 0 0-.071-.504 5.5 5.5 0 0 0-.563-1.566c-.654-1.2-1.95-2.464-4.44-2.879zm-.418-1.014v.52h1v-.52z" mask="url(#b)"/><path fill="#fff" stroke="#264887" stroke-linecap="round" stroke-linejoin="round" stroke-width="3" d="m201.313 150.494-7.7-10.264a3.066 3.066 0 0 1 4.292-4.292l3.4 2.556V119a3 3 0 1 1 6 0v12l8.348 1.856a6.004 6.004 0 0 1 4.673 6.4l-1.021 11.244z"/><defs><filter id="a" width="238" height="58" x="0" y="77" color-interpolation-filters="sRGB" filterUnits="userSpaceOnUse"><feFlood flood-opacity="0" result="BackgroundImageFix"/><feColorMatrix in="SourceAlpha" values="0 0 0 0 0 0 0 0 0 0 0 0 0 0 0 0 0 0 127 0"/><feOffset dy="1"/><feGaussianBlur stdDeviation="2"/><feColorMatrix values="0 0 0 0 0 0 0 0 0 0 0 0 0 0 0 0 0 0 0.25 0"/><feBlend in2="BackgroundImageFix" result="effect1_dropShadow"/><feBlend in="SourceGraphic" in2="effect1_dropShadow" result="shape"/></filter></defs></svg>