<svg xmlns="http://www.w3.org/2000/svg" width="60" height="40" fill="none"><path stroke="#73CFB5" stroke-linecap="round" stroke-linejoin="round" d="M3.1 10 1 11.358l1.383 2.127 2.1-1.356z"/><path fill="#B5D9F1" d="m11.128 11.288 3.308.732z"/><path stroke="#73CFB5" stroke-linecap="round" d="m11.128 11.288 3.308.732"/><path fill="#B5D9F1" d="m13.051 10.046-.68 3.308z"/><path stroke="#73CFB5" stroke-linecap="round" d="m13.051 10.046-.68 3.308"/><path stroke="#73CFB5" stroke-linecap="round" stroke-linejoin="round" d="m54.618 8.762-1.856-1.675-1.668 1.849 1.856 1.675z"/><path stroke="#73CFB5" d="M55.25 17.5a1.25 1.25 0 1 0 0-2.5 1.25 1.25 0 0 0 0 2.5Z" clip-rule="evenodd"/><g clip-path="url(#a)"><path fill="#fff" stroke="#264887" stroke-linecap="round" stroke-width="1.25" d="M43.536 13.983v.625h1.409c.388 0 .76.155 1.036.432.275.277.43.653.43 1.045V27.12c0 .393-.155.77-.43 1.046a1.46 1.46 0 0 1-1.036.431h-15.68a1.46 1.46 0 0 1-1.035-.431l-.443.44.443-.44a1.48 1.48 0 0 1-.43-1.046V16.085c0-.393.155-.769.43-1.045a1.46 1.46 0 0 1 1.035-.432h1.409v-3.515a6.5 6.5 0 0 1 1.885-4.575 6.4 6.4 0 0 1 4.547-1.893c1.704 0 3.34.68 4.546 1.893a6.5 6.5 0 0 1 1.884 4.576zm-5.39 4.838-.24.577.24-.577a2.7 2.7 0 0 0-2.962.592 2.73 2.73 0 0 0-.588 2.969c.205.498.553.924 1 1.224a2.71 2.71 0 0 0 3.43-.34 2.733 2.733 0 0 0-.88-4.445Zm3.692-4.55c.215-.217.335-.509.335-.813v-2.364c0-1.35-.533-2.644-1.483-3.6a5.06 5.06 0 0 0-3.584-1.492 5.06 5.06 0 0 0-3.585 1.493 5.1 5.1 0 0 0-1.483 3.599v2.364a1.15 1.15 0 0 0 1.148 1.15h7.84c.305 0 .597-.122.812-.338Z"/></g><path fill="#B5D9F1" d="M50.772 24.617a2.2 2.2 0 0 0-.852.168l-10.035 4.077a3.4 3.4 0 0 1-1.254.245h-1.016a2.22 2.22 0 0 0 1.547-.67 2.245 2.245 0 0 0 0-3.136 2.22 2.22 0 0 0-1.547-.67h-4.304c-3.586 0-2.747-3.918-9.055-3.918h-6.123v12.334a13.2 13.2 0 0 1 5.138.616l2.467.875a19.1 19.1 0 0 0 10.576.632c.63-.048 14.7-5.995 15.31-6.25a2.23 2.23 0 0 0 1.113-1.012 2.25 2.25 0 0 0-.552-2.787 2.22 2.22 0 0 0-1.413-.507z"/><path fill="#DAECF8" d="M23.316 23.094c6.309 0 5.47 3.917 9.056 3.917h4.304c.502 0 .989.17 1.383.484.393.314.67.752.785 1.243a2.25 2.25 0 0 0 .1-3.663 2.22 2.22 0 0 0-1.328-.442H33.31c-3.586 0-2.747-3.917-9.056-3.917h-6.122v2.378z"/><path fill="#DAECF8" d="M53 26.854a2.25 2.25 0 0 0-.99-1.86 2.22 2.22 0 0 0-2.089-.206l-10.035 4.077a3.3 3.3 0 0 1-1.255.245H27.944c0 .552.214 1.082.596 1.478a2.1 2.1 0 0 0 1.45.646c9.723.318 10.322-.108 19.02-4.023a2.21 2.21 0 0 1 2.564.645c.2.246.346.531.428.838h.046a2.24 2.24 0 0 0 .952-1.84"/><path stroke="#264887" stroke-linecap="round" stroke-miterlimit="10" stroke-width="1.25" d="M37.616 29.11h-9.464"/><path stroke="#264887" stroke-linecap="round" stroke-linejoin="round" stroke-width="1.25" d="M50.772 24.617a2.2 2.2 0 0 0-.852.168l-10.035 4.077a3.4 3.4 0 0 1-1.254.245h-1.016a2.22 2.22 0 0 0 1.547-.67 2.245 2.245 0 0 0 0-3.136 2.22 2.22 0 0 0-1.547-.67h-4.304c-3.586 0-2.747-3.918-9.055-3.918h-6.123v12.334a13.2 13.2 0 0 1 5.138.616l2.467.875a19.1 19.1 0 0 0 10.576.632c.63-.048 14.7-5.995 15.31-6.25a2.23 2.23 0 0 0 1.113-1.012 2.25 2.25 0 0 0-.552-2.787 2.22 2.22 0 0 0-1.413-.507z"/><path fill="#fff" d="M13.957 18h-6.12a.84.84 0 0 0-.837.84v15.667c0 .465.374.841.836.841h6.12a.84.84 0 0 0 .837-.84V18.84a.84.84 0 0 0-.836-.841"/><path stroke="#264887" stroke-linecap="round" stroke-linejoin="round" stroke-width="1.25" d="M13.957 18h-6.12a.84.84 0 0 0-.837.84v15.667c0 .465.374.841.836.841h6.12a.84.84 0 0 0 .837-.84V18.84a.84.84 0 0 0-.836-.841"/><path fill="#fff" stroke="#264887" stroke-linecap="round" stroke-linejoin="round" stroke-width="1.25" d="M14.793 34.228h2.504a.83.83 0 0 0 .591-.246.84.84 0 0 0 .245-.595V19.96a.84.84 0 0 0-.245-.594.83.83 0 0 0-.591-.246h-2.504z"/><defs><clipPath id="a"><path fill="#fff" d="M24.562 4H49.65v25.221H24.562z"/></clipPath></defs></svg>