<svg xmlns="http://www.w3.org/2000/svg" width="60" height="40" fill="none"><path stroke="#B5D9F1" stroke-linecap="round" stroke-linejoin="round" d="m10.577 4-2.1 1.356L9.86 7.483l2.1-1.356z"/><path fill="#B5D9F1" d="m1.267 10.717 3.307.732z"/><path stroke="#B5D9F1" stroke-linecap="round" d="m1.267 10.717 3.307.732"/><path fill="#B5D9F1" d="m3.19 9.475-.68 3.308z"/><path stroke="#B5D9F1" stroke-linecap="round" d="m3.19 9.475-.68 3.308"/><path stroke="#B5D9F1" stroke-linecap="round" stroke-linejoin="round" d="m55.618 32.762-1.856-1.675-1.668 1.849 1.856 1.675z"/><path fill="#fff" d="M44.679 24.309a1.233 1.233 0 0 1-1.216 1.246l-18.887.243a1.233 1.233 0 0 1-1.247-1.216l-.187-14.58a1.23 1.23 0 0 1 1.216-1.247l2.818-.035c.341.014.665.154.91.393l1.492 1.624c.245.238.569.378.91.393l12.789-.164a1.23 1.23 0 0 1 1.25 1.218z"/><path fill="#B5D9F1" d="M44.645 12.418a1.233 1.233 0 0 0-1.22-1.244l-12.79-.116a1.4 1.4 0 0 1-.904-.413l-1.455-1.658a1.4 1.4 0 0 0-.9-.413l-2.818-.026a1.233 1.233 0 0 0-1.243 1.22l-.023 2.465a1.23 1.23 0 0 1 1.244-1.22l2.817.026c.34.022.662.169.901.412l1.456 1.659c.24.244.56.39.902.413l12.788.114a1.233 1.233 0 0 1 1.22 1.243z"/><path stroke="#264887" stroke-linecap="round" stroke-linejoin="round" stroke-width="1.25" d="M44.533 24.543a1.233 1.233 0 0 1-1.244 1.22l-18.887-.17a1.23 1.23 0 0 1-1.22-1.243l.131-14.58a1.233 1.233 0 0 1 1.243-1.22l2.818.026c.341.022.662.169.9.413l1.457 1.656c.24.243.56.39.902.413l12.789.115a1.23 1.23 0 0 1 1.223 1.245z"/><path fill="#B5D9F1" d="M50.772 21.65c-.292 0-.582.057-.852.169l-10.035 4.077a3.4 3.4 0 0 1-1.254.245h-1.016a2.22 2.22 0 0 0 1.547-.671 2.245 2.245 0 0 0 0-3.135 2.22 2.22 0 0 0-1.547-.671h-4.304c-3.586 0-2.747-3.917-9.055-3.917h-6.123V30.08a13.2 13.2 0 0 1 5.138.617l2.467.875a19.1 19.1 0 0 0 10.576.632c.63-.048 14.7-5.995 15.31-6.25a2.23 2.23 0 0 0 1.113-1.013 2.25 2.25 0 0 0-.552-2.786 2.22 2.22 0 0 0-1.413-.507z"/><path fill="#DAECF8" d="M23.316 20.128c6.309 0 5.47 3.917 9.056 3.917h4.304c.502 0 .989.17 1.383.484.393.313.67.751.785 1.243a2.25 2.25 0 0 0 .1-3.663 2.22 2.22 0 0 0-1.328-.443H33.31c-3.586 0-2.747-3.916-9.056-3.916h-6.122v2.378z"/><path fill="#DAECF8" d="M53 23.888a2.25 2.25 0 0 0-.99-1.86 2.22 2.22 0 0 0-2.089-.207L39.886 25.9a3.3 3.3 0 0 1-1.255.244H27.944c0 .552.214 1.083.596 1.48a2.1 2.1 0 0 0 1.45.645c9.723.318 10.322-.109 19.02-4.023a2.21 2.21 0 0 1 2.564.645c.2.245.346.531.428.838h.046a2.24 2.24 0 0 0 .952-1.84"/><path stroke="#264887" stroke-linecap="round" stroke-miterlimit="10" stroke-width="1.25" d="M37.616 26.143h-9.464"/><path stroke="#264887" stroke-linecap="round" stroke-linejoin="round" stroke-width="1.25" d="M50.772 21.65c-.292 0-.582.057-.852.169l-10.035 4.077a3.4 3.4 0 0 1-1.254.245h-1.016a2.22 2.22 0 0 0 1.547-.671 2.245 2.245 0 0 0 0-3.135 2.22 2.22 0 0 0-1.547-.671h-4.304c-3.586 0-2.747-3.917-9.055-3.917h-6.123V30.08a13.2 13.2 0 0 1 5.138.617l2.467.875a19.1 19.1 0 0 0 10.576.632c.63-.048 14.7-5.995 15.31-6.25a2.23 2.23 0 0 0 1.113-1.013 2.25 2.25 0 0 0-.552-2.786 2.22 2.22 0 0 0-1.413-.507z"/><path fill="#fff" stroke="#264887" stroke-linecap="round" stroke-linejoin="round" stroke-width="1.25" d="M13.957 14.974h-6.12a.84.84 0 0 0-.837.84v15.667c0 .464.374.84.836.84h6.12a.84.84 0 0 0 .837-.84V15.814a.84.84 0 0 0-.836-.84"/><path fill="#fff" stroke="#264887" stroke-linecap="round" stroke-linejoin="round" stroke-width="1.25" d="M14.793 31.202h2.504a.834.834 0 0 0 .836-.84V16.933a.834.834 0 0 0-.836-.84h-2.504z"/></svg>