<svg xmlns="http://www.w3.org/2000/svg" width="215" height="143" fill="none"><path fill="#B5D9F1" d="M120.353 114.528v-.54c0-5.002-1.992-9.799-5.537-13.337a18.93 18.93 0 0 0-13.368-5.524 18.93 18.93 0 0 0-13.368 5.524 18.84 18.84 0 0 0-5.538 13.337v.54a3.78 3.78 0 0 0-2.627 1.129 3.77 3.77 0 0 0 2.627 6.414c.08 0 .155-.017.232-.023 1.362 9.077 9.19 14.63 18.674 14.63s17.312-5.547 18.674-14.63c.078 0 .151.023.231.023a3.78 3.78 0 0 0 3.559-2.311 3.76 3.76 0 0 0-.838-4.153 3.77 3.77 0 0 0-2.721-1.079" class="kid"/><path fill="#90C6EB" d="M90.577 123.973a2.36 2.36 0 0 0 2.363-2.358 2.36 2.36 0 0 0-2.363-2.357 2.36 2.36 0 0 0-2.363 2.357 2.36 2.36 0 0 0 2.363 2.358m21.741-.014a2.36 2.36 0 0 0 2.363-2.358 2.36 2.36 0 0 0-2.363-2.357 2.36 2.36 0 0 0-2.362 2.357 2.36 2.36 0 0 0 2.362 2.358" class="kid"/><path stroke="#264887" stroke-linecap="round" stroke-linejoin="round" stroke-width="2" d="M95.76 126.41a8.26 8.26 0 0 0 11.376 0m-10.413-10.925a3.083 3.083 0 0 0-5.688 0m20.826-.014a3.083 3.083 0 0 0-5.688 0" class="kid"/><path fill="#90C6EB" d="M118.919 106.77a26 26 0 0 0-15.235-6.601 17.3 17.3 0 0 0-4.472 0 26 26 0 0 0-15.234 6.601 18.9 18.9 0 0 1 6.966-8.462 18.945 18.945 0 0 1 21.008 0 18.9 18.9 0 0 1 6.967 8.462" class="kid"/><path stroke="#264887" stroke-linecap="round" stroke-linejoin="round" stroke-width="2" d="M120.353 114.528v-.54c0-5.002-1.992-9.799-5.537-13.337a18.93 18.93 0 0 0-13.368-5.524 18.93 18.93 0 0 0-13.368 5.524 18.84 18.84 0 0 0-5.538 13.337v.54a3.78 3.78 0 0 0-2.627 1.129 3.77 3.77 0 0 0 2.627 6.414c.08 0 .155-.017.232-.023 1.362 9.077 9.19 14.63 18.674 14.63s17.312-5.547 18.674-14.63c.078 0 .151.023.231.023a3.78 3.78 0 0 0 3.559-2.311 3.76 3.76 0 0 0-.838-4.153 3.77 3.77 0 0 0-2.721-1.079" class="kid"/><path fill="#315CAE" stroke="#264887" stroke-linecap="round" stroke-linejoin="round" stroke-width="2" d="M101.449 101.316c3.032 0 5.491-2.18 5.491-4.87s-2.459-4.87-5.491-4.87-5.49 2.18-5.49 4.87 2.457 4.87 5.49 4.87" class="kid"/><path fill="#614B44" d="M99.608 90.277a16 16 0 0 0-.164-4.786 11.66 11.66 0 0 0-3.104-6.038.47.47 0 0 1 .475-.78 6.26 6.26 0 0 1 2.757 1.879 13 13 0 0 1 2.344 4.718 19.8 19.8 0 0 1 1.01 5.21" class="kid"/><path stroke="#264887" stroke-linecap="round" stroke-linejoin="round" stroke-width="2" d="M99.608 90.277a16 16 0 0 0-.164-4.786 11.66 11.66 0 0 0-3.104-6.038.47.47 0 0 1 .475-.78 6.26 6.26 0 0 1 2.757 1.879 13 13 0 0 1 2.344 4.718 19.8 19.8 0 0 1 1.01 5.21" class="kid"/><path fill="#D7403A" stroke="#264887" stroke-linecap="round" stroke-linejoin="round" stroke-width="2" d="M101.447 92.42a13.5 13.5 0 0 1 4.711-4.252 2.48 2.48 0 0 1 2.968.638c.235.279.406.605.5.957a9.9 9.9 0 0 1 0 5.312 2.47 2.47 0 0 1-1.359 1.61 2.49 2.49 0 0 1-2.109-.016 13.5 13.5 0 0 1-4.711-4.25" class="kid"/><path fill="#D7403A" stroke="#264887" stroke-linecap="round" stroke-linejoin="round" stroke-width="2" d="M101.449 92.422a13.5 13.5 0 0 0-4.71-4.252 2.49 2.49 0 0 0-2.97.638 2.5 2.5 0 0 0-.5.956 9.9 9.9 0 0 0 0 5.313 2.47 2.47 0 0 0 1.36 1.61 2.49 2.49 0 0 0 2.11-.016 13.5 13.5 0 0 0 4.71-4.25" class="kid"/><path fill="#D7403A" stroke="#264887" stroke-linecap="round" stroke-linejoin="round" stroke-width="2" d="M101.446 94.854c1.348 0 2.44-1.09 2.44-2.434a2.437 2.437 0 0 0-2.44-2.434 2.437 2.437 0 0 0-2.44 2.434 2.437 2.437 0 0 0 2.44 2.434" class="kid"/><path fill="#B5D9F1" stroke="#264887" stroke-linecap="round" stroke-linejoin="round" stroke-width="2" d="M96.423 59.936a5.83 5.83 0 0 0-1.356-3.686 5.85 5.85 0 0 0-3.39-1.995v-3.79a28.38 28.38 0 0 0-8.343-20.094 28.52 28.52 0 0 0-20.14-8.322 28.52 28.52 0 0 0-20.14 8.322 28.38 28.38 0 0 0-8.342 20.093v3.791a5.82 5.82 0 0 0-3.507 2.11 5.79 5.79 0 0 0 .4 7.639 5.82 5.82 0 0 0 3.708 1.734 28.4 28.4 0 0 0 9.916 16.246 28.52 28.52 0 0 0 17.965 6.366 28.52 28.52 0 0 0 17.966-6.366 28.4 28.4 0 0 0 9.916-16.245 5.9 5.9 0 0 0 3.796-1.872 5.86 5.86 0 0 0 1.551-3.93" class="mom"/><path fill="#90C6EB" d="M47.758 67.04a3.557 3.557 0 0 0 3.56-3.553 3.556 3.556 0 0 0-3.56-3.552 3.556 3.556 0 0 0-3.56 3.552 3.556 3.556 0 0 0 3.56 3.552m30.856.001a3.557 3.557 0 0 0 3.56-3.553 3.556 3.556 0 0 0-3.56-3.552 3.556 3.556 0 0 0-3.56 3.552 3.556 3.556 0 0 0 3.56 3.552" class="mom"/><path stroke="#264887" stroke-linecap="round" stroke-linejoin="round" stroke-width="2" d="M56.067 71.993a12.86 12.86 0 0 0 14.24 0" class="mom"/><path fill="#264887" d="M50.028 34.405s14.24-7.104 21.361 0l14.238 14.208s7.12 7.104 16.614-2.368l-4.743-2.368 7.12-4.736s-4.747 0-9.494-7.104-11.867-21.312-28.478-21.312c-23.735 0-26.095 14.208-26.095 14.208z" class="mom"/><path fill="#B5D9F1" d="M66.643 17.64c16.61 0 23.731 14.208 28.478 21.312a21.5 21.5 0 0 0 3.539 4.147l5.955-3.958s-4.747 0-9.494-7.104-11.867-21.312-28.478-21.312c-23.735 0-26.094 14.208-26.094 14.208l2.18 2.179c2.856-4.133 9.373-9.472 23.914-9.472" class="mom"/><path fill="#264887" stroke="#264887" stroke-linecap="round" stroke-linejoin="round" stroke-width="2" d="M50.028 34.405s14.24-7.104 21.361 0l14.238 14.208s7.12 7.104 16.614-2.368l-4.743-2.368 7.12-4.736s-4.747 0-9.494-7.104-11.867-21.312-28.478-21.312c-23.735 0-26.095 14.208-26.095 14.208z" class="mom"/><path fill="#264887" d="M40.534 24.94s-11.867 0-11.867 14.207c0 11.84 5.959 15.018 5.959 15.018s5.908-15.018 15.402-19.754z" class="mom"/><path fill="#fff" d="m47.265 31.648-6.73-6.709s-11.868 0-11.868 14.208c0 .942.04 1.83.11 2.668 3.743-8.167 13.884-10.599 18.488-10.167" class="mom"/><path stroke="#264887" stroke-linecap="round" stroke-linejoin="round" stroke-width="2" d="M40.534 24.94s-11.867 0-11.867 14.207c0 11.84 5.959 15.018 5.959 15.018s5.908-15.018 15.402-19.754z" class="mom"/><path fill="#264887" d="M52.504 57.765c1.966 0 3.56-1.59 3.56-3.552a3.556 3.556 0 0 0-3.56-3.552 3.556 3.556 0 0 0-3.56 3.552 3.556 3.556 0 0 0 3.56 3.552m21.364-.002c1.966 0 3.56-1.59 3.56-3.552a3.556 3.556 0 0 0-3.56-3.552 3.556 3.556 0 0 0-3.56 3.552 3.556 3.556 0 0 0 3.56 3.552" class="mom"/><path fill="#B5D9F1" stroke="#264887" stroke-linecap="round" stroke-linejoin="round" stroke-width="2" d="M175.584 60.244a5.83 5.83 0 0 0-1.356-3.687 5.85 5.85 0 0 0-3.391-1.994v-3.791a28.38 28.38 0 0 0-8.343-20.093 28.52 28.52 0 0 0-20.139-8.323 28.52 28.52 0 0 0-20.14 8.323 28.38 28.38 0 0 0-8.342 20.093v3.79a5.8 5.8 0 0 0-3.499 2.114 5.79 5.79 0 0 0 .399 7.628 5.82 5.82 0 0 0 3.7 1.738 28.4 28.4 0 0 0 9.916 16.246 28.53 28.53 0 0 0 17.966 6.366 28.52 28.52 0 0 0 17.965-6.366 28.4 28.4 0 0 0 9.916-16.246 5.88 5.88 0 0 0 3.797-1.868 5.86 5.86 0 0 0 1.551-3.93" class="dad"/><path fill="#90C6EB" d="M126.918 67.348a3.556 3.556 0 0 0 3.561-3.552 3.556 3.556 0 0 0-3.561-3.552 3.556 3.556 0 0 0-3.56 3.552 3.556 3.556 0 0 0 3.56 3.552m30.855 0c1.966 0 3.56-1.59 3.56-3.552a3.556 3.556 0 0 0-3.56-3.552 3.556 3.556 0 0 0-3.56 3.552 3.556 3.556 0 0 0 3.56 3.552" class="dad"/><path stroke="#264887" stroke-linecap="round" stroke-linejoin="round" stroke-width="2" d="M155.178 55.508a4.04 4.04 0 0 0-5.719 0m-19.946 0a4.04 4.04 0 0 1 2.86-1.185 4.04 4.04 0 0 1 2.86 1.185m14.233 16.558a11.89 11.89 0 0 1-14.241 0" class="dad"/><path fill="#264887" d="M173.2 35.69a22.77 22.77 0 0 0-6.692-16.119 22.88 22.88 0 0 0-16.156-6.676h-29.033c-.983 0-1.942.305-2.744.873a4.735 4.735 0 0 0-1.816 5.169 4.73 4.73 0 0 0 1.597 2.392l2.456 1.961a14.2 14.2 0 0 0-6.754 5.18 14.15 14.15 0 0 0-2.569 8.105v14.207a2.373 2.373 0 0 0 2.374 2.368c5.004-2.999 12.993-10.317 14.109-16.133a1.44 1.44 0 0 1 .651-.897 1.45 1.45 0 0 1 1.096-.173 7.82 7.82 0 0 1 4.353 2.244 7.8 7.8 0 0 1 2.157 4.39 1.428 1.428 0 0 0 1.891 1.069 15.2 15.2 0 0 0 9.333-6.722 1.32 1.32 0 0 1 1.576-.881c12.297 3.858 8.1 15.335 21.569 16.626a2.38 2.38 0 0 0 1.823-.606 2.37 2.37 0 0 0 .779-1.752z" class="dad"/><path fill="#B5D9F1" d="M150.352 12.884H121.32a4.75 4.75 0 0 0-2.745.874 4.735 4.735 0 0 0-1.816 5.169 4.73 4.73 0 0 0 1.597 2.391l1.559 1.241a5 5 0 0 1 1.405-.203h29.032c6.06 0 11.872 2.402 16.156 6.677a22.77 22.77 0 0 1 6.693 16.118v-9.46a22.78 22.78 0 0 0-6.689-16.126 22.9 22.9 0 0 0-16.16-6.68" class="dad"/><path fill="#264887" stroke="#264887" stroke-linecap="round" stroke-linejoin="round" stroke-width="2" d="M173.2 35.69a22.77 22.77 0 0 0-6.692-16.119 22.88 22.88 0 0 0-16.156-6.676h-29.033c-.983 0-1.942.305-2.744.873a4.735 4.735 0 0 0-1.816 5.169 4.73 4.73 0 0 0 1.597 2.392l2.456 1.961a14.2 14.2 0 0 0-6.754 5.18 14.15 14.15 0 0 0-2.569 8.105v14.207a2.373 2.373 0 0 0 2.374 2.368c5.004-2.999 12.993-10.317 14.109-16.133a1.44 1.44 0 0 1 .651-.897 1.45 1.45 0 0 1 1.096-.173 7.82 7.82 0 0 1 4.353 2.244 7.8 7.8 0 0 1 2.157 4.39 1.428 1.428 0 0 0 1.891 1.069 15.2 15.2 0 0 0 9.333-6.722 1.32 1.32 0 0 1 1.576-.881c12.297 3.858 8.1 15.335 21.569 16.626a2.38 2.38 0 0 0 1.823-.606 2.37 2.37 0 0 0 .779-1.752z" class="dad"/><path stroke="#CACCEE" stroke-linecap="round" stroke-linejoin="round" stroke-width="2" d="m46.097 108.582-7.415-5.429-5.465 7.549 7.415 5.428zm-27.139-97.06-8.876 2.329 2.29 9.048 8.876-2.328z"/><path stroke="#CACCEE" stroke-linecap="round" stroke-width="2" d="m163.58 113.811 8.172-9.417m-8.802 1.02 9.48 7.998" class="decor"/><path stroke="#CACCEE" stroke-width="2" d="M201 60a6 6 0 1 0 0-12 6 6 0 0 0 0 12Z" clip-rule="evenodd"/></svg>