<svg xmlns="http://www.w3.org/2000/svg" width="60" height="40" fill="none"><rect width="34.75" height="10.75" x="9.625" y="11.625" fill="#fff" stroke="#6CB4E4" stroke-width="1.25" rx="1.375"/><rect width="34.75" height="10.75" x="9.625" y="24.625" fill="#fff" stroke="#264887" stroke-width="1.25" rx="1.375"/><circle cx="15" cy="17" r="1" fill="#264887"/><circle cx="19" cy="17" r="1" fill="#264887"/><circle cx="23" cy="17" r="1" fill="#264887"/><circle cx="27" cy="17" r="1" fill="#264887"/><circle cx="31" cy="17" r="1" fill="#264887"/><circle cx="35" cy="17" r="1" fill="#264887"/><circle cx="39" cy="17" r="1" fill="#264887"/><path fill="#264887" d="M13.372 32h.756v-1.834h2.057V32h.753v-4.227h-.753v1.757h-2.057v-1.758h-.756zm4.626-3.55a.4.4 0 1 0 0-.8.4.4 0 0 0-.407.4c0 .218.178.4.407.4M17.632 32h.73v-3.105h-.73zm1.35 1.025h.73v-1.55h.015c.175.364.53.587.972.587.78 0 1.278-.616 1.278-1.612v-.003c0-1.002-.498-1.617-1.287-1.617-.445 0-.785.229-.963.6h-.015v-.535h-.73zm1.492-1.579c-.451 0-.768-.39-.768-.996v-.003c0-.61.317-1.002.768-1.002.465 0 .758.381.758 1.002v.003c0 .613-.293.996-.758.996m1.971 1.579h.73v-1.55h.014c.176.364.53.587.973.587.78 0 1.277-.616 1.277-1.612v-.003c0-1.002-.498-1.617-1.286-1.617-.445 0-.785.229-.963.6h-.015v-.535h-.73zm1.491-1.579c-.45 0-.767-.39-.767-.996v-.003c0-.61.316-1.002.767-1.002.466 0 .76.381.76 1.002v.003c0 .613-.294.996-.76.996m3.346.616c.911 0 1.503-.607 1.503-1.615v-.006c0-1.001-.6-1.61-1.506-1.61-.902 0-1.5.614-1.5 1.61v.006c0 1.005.59 1.615 1.503 1.615m.003-.59c-.466 0-.762-.371-.762-1.025v-.006c0-.644.302-1.02.756-1.02.463 0 .762.373.762 1.02v.006c0 .65-.296 1.026-.756 1.026m2.722-1.641h.483l-.032-.66.527.347.25-.381-.601-.32.6-.316-.246-.38-.53.345.032-.656h-.483l.032.656-.527-.346-.25.381.604.32-.603.319.249.38.527-.345zm3.413 2.241c.934 0 1.588-.597 1.588-1.468V30.6c0-.803-.58-1.386-1.386-1.386-.425 0-.773.167-.958.451h-.015l.118-1.274h1.992v-.618h-2.596l-.202 2.457h.66a.8.8 0 0 1 .198-.24.93.93 0 0 1 .61-.208c.495 0 .85.346.85.83v.005c0 .495-.35.841-.853.841-.446 0-.768-.272-.83-.627l-.002-.02h-.71l.004.038c.055.7.653 1.224 1.532 1.224m4.582.63c.378 0 .73-.053 1.017-.15V32.1c-.232.09-.613.146-.988.146-1.207 0-2.056-.718-2.056-2.007v-.003c0-1.192.797-2.012 1.924-2.012 1.134 0 1.881.697 1.881 1.813v.003c0 .642-.184.987-.46.987-.21 0-.348-.187-.348-.56V29.08h-.54v.363h-.023c-.114-.26-.39-.424-.712-.424-.589 0-1.01.5-1.01 1.218v.003c0 .756.41 1.257 1.01 1.257.372 0 .668-.176.815-.527h.023l.02.044a.77.77 0 0 0 .736.492c.58 0 1.002-.533 1.002-1.482v-.003c0-1.375-.973-2.247-2.367-2.247-1.45 0-2.464.999-2.464 2.46v.003c0 1.562 1.055 2.467 2.54 2.467m-.179-1.7c-.337 0-.545-.283-.545-.755v-.003c0-.466.208-.741.551-.741s.569.284.569.741v.006c0 .463-.226.753-.575.753m8.945-12.728a.5.5 0 0 1-.084-.677l.627-.865a.5.5 0 0 1 .669-.132l9.831 6.1a1.862 1.862 0 1 1-2.178 3.009z"/><path fill="#B5D9F1" d="M40.675 4.74a.75.75 0 0 0-1.481.238l.395 2.468a.75.75 0 0 0 1.481-.237zM33.36 14.845a.75.75 0 1 1-.237-1.48l2.468-.396a.75.75 0 0 1 .237 1.481zm2.152-6.759a.75.75 0 0 1-.88 1.215l-2.024-1.466a.75.75 0 0 1 .88-1.215z"/><path fill="#264887" d="M49.468 15.06a1.255 1.255 0 0 0 .772-1.256 1.22 1.22 0 0 0-.928-1.112l-2.653-.679a.5.5 0 0 1-.376-.45l-.177-2.632a1.23 1.23 0 0 0-.88-1.055 1.2 1.2 0 0 0-1.287.444l-1.357 1.747a.5.5 0 0 1-.518.179l-2.972-.77-.03-.007a1.26 1.26 0 0 0-1.364 1.8l1.48 2.689a.5.5 0 0 1-.045.546l-1.357 1.747a1.2 1.2 0 0 0-.113 1.353 1.245 1.245 0 0 0 1.268.59l2.569-.472a.5.5 0 0 1 .53.252l1.313 2.402a1.23 1.23 0 0 0 1.308.624 1.25 1.25 0 0 0 1.026-1.06l.481-3.227a.5.5 0 0 1 .301-.387z"/><path fill="#B5D9F1" d="M47.676 6.7h.748a.497.497 0 0 1 .498.502v.75a.75.75 0 0 0 .748.751.746.746 0 0 0 .747-.75v-.751a.5.5 0 0 1 .499-.501h.748a.746.746 0 0 0 .747-.751.753.753 0 0 0-.748-.751h-.747a.497.497 0 0 1-.498-.5v-.752a.753.753 0 0 0-.748-.75.746.746 0 0 0-.748.75v.751a.5.5 0 0 1-.498.5h-.748a.746.746 0 0 0-.748.752.753.753 0 0 0 .748.75"/><path stroke="#B5D9F1" stroke-linecap="round" stroke-linejoin="round" stroke-width=".765" d="m5.415 12.921-1.65 1.066 1.087 1.671 1.65-1.065z"/><path stroke="#B5D9F1" stroke-linecap="round" stroke-linejoin="round" stroke-width=".878" d="m54.992 33.765-1.689-1.523-1.517 1.682 1.688 1.523z"/><path stroke="#B5D9F1" stroke-linecap="round" stroke-linejoin="round" d="M14.398 5.582 14.265 3l-2.582.133.133 2.582z"/><path fill="#B5D9F1" d="m4.071 34.288 3.308.732z"/><path stroke="#B5D9F1" stroke-linecap="round" d="m4.071 34.288 3.308.732"/><path fill="#B5D9F1" d="m5.994 33.046-.68 3.307z"/><path stroke="#B5D9F1" stroke-linecap="round" d="m5.994 33.046-.68 3.307M46 25.242l3.308.732M47.923 24l-.68 3.308"/></svg>