<svg xmlns="http://www.w3.org/2000/svg" width="24" height="24" fill="none"><g fill="#40526D" clip-path="url(#a)"><path d="M9.025 12.915a.25.25 0 0 0 .042-.3 3.34 3.34 0 0 1 0-3.234.25.25 0 0 0-.042-.3L7.467 7.528a.25.25 0 0 0-.381.033 5.99 5.99 0 0 0 0 6.878.25.25 0 0 0 .29.092.3.3 0 0 0 .093-.058zM12 12.85a1.85 1.85 0 1 0 0-3.7 1.85 1.85 0 0 0 0 3.7m-1.915-4.825a.25.25 0 0 0 .3.042 3.34 3.34 0 0 1 3.234 0 .25.25 0 0 0 .3-.042l1.557-1.558a.25.25 0 0 0-.033-.381 5.99 5.99 0 0 0-6.878 0 .25.25 0 0 0-.033.381zm4.89 1.061a.25.25 0 0 0-.042.3 3.34 3.34 0 0 1-.011 3.253.22.22 0 0 0 .036.262l1.574 1.575a.25.25 0 0 0 .2.072.25.25 0 0 0 .183-.105 5.99 5.99 0 0 0 0-6.879.25.25 0 0 0-.183-.1.25.25 0 0 0-.2.072zm-1.061 4.889a.25.25 0 0 0-.3-.042 3.34 3.34 0 0 1-3.232 0 .25.25 0 0 0-.3.042l-1.554 1.558a.252.252 0 0 0 .034.383 5.99 5.99 0 0 0 6.876 0 .25.25 0 0 0 .1-.183.25.25 0 0 0-.072-.2z"/><path d="M21.5 0h-19A2.46 2.46 0 0 0 0 2.409v17.182a2.4 2.4 0 0 0 1.361 2.144.25.25 0 0 1 .139.224V23a1 1 0 1 0 2 0v-.75a.25.25 0 0 1 .25-.25h16.5a.25.25 0 0 1 .25.25V23a1 1 0 0 0 2 0v-1.041a.25.25 0 0 1 .139-.224A2.4 2.4 0 0 0 24 19.591V2.409A2.46 2.46 0 0 0 21.5 0M20 11a8 8 0 1 1-8-8 8.01 8.01 0 0 1 8 8"/></g><defs><clipPath id="a"><path fill="#fff" d="M0 0h24v24H0z"/></clipPath></defs></svg>