<svg xmlns="http://www.w3.org/2000/svg" width="60" height="40" fill="none"><path stroke="#D7DBE0" stroke-linecap="round" stroke-linejoin="round" d="M52.042 1h2.5v2.669h-2.5z"/><path stroke="#D7DBE0" stroke-linecap="round" stroke-linejoin="round" d="M0 0h2.5v2.5H0z" transform="matrix(.68365 -.7298 .68365 .7298 3 7.69)"/><path stroke="#D7DBE0" stroke-linecap="round" stroke-linejoin="round" d="m51.512 19.508 2.376 2.536m-.084-2.536-2.376 2.536"/><path stroke="#D7DBE0" stroke-dasharray="0.68 4.1 112.04 3.42" stroke-linecap="round" stroke-width="1.25" d="M13.832 37.877h32.794"/><path fill="#fff" fill-rule="evenodd" d="M13.832 6.45a2.733 2.733 0 0 1 2.733-2.733h25.931A2.733 2.733 0 0 1 45.23 6.45v26.058a2.733 2.733 0 0 1-2.733 2.733h-.078a2.03 2.03 0 0 1-3.765 0H21.065a2.03 2.03 0 0 1-3.765 0h-.735a2.733 2.733 0 0 1-2.733-2.733z" clip-rule="evenodd"/><path fill="#D7DBE0" d="M42.418 35.241v-.683h-.46l-.173.427zm-3.765 0 .634-.256-.173-.427h-.46zm-17.588 0v-.683h-.461l-.173.427zm-3.765 0 .633-.256-.172-.427H17.3zM14.282 3.909a.683.683 0 1 0 .913 1.016zm.828 1.098a.683.683 0 0 0-.97-.962zm-.99-.942a.683.683 0 0 0 .978.954zm.92 1.015a.683.683 0 0 0-1.016-.913zm-1.891 13.512a.683.683 0 0 0 1.366 0zm1.366.955a.683.683 0 0 0-1.366 0zm-1.366.137a.683.683 0 0 0 1.366 0zm1.366.682a.683.683 0 0 0-1.366 0zm-.491 14.425a.683.683 0 0 0 1.016-.913zm1.098-.828a.683.683 0 0 0-.963.97zm-.943.99a.683.683 0 1 0 .954-.978zm1.016-.92a.683.683 0 1 0-.913 1.016zm1.712 1.891a.683.683 0 0 0 0-1.366zm.027-1.366a.683.683 0 1 0 0 1.366zm.004 1.366a.683.683 0 1 0 0-1.366zm.02-1.366a.683.683 0 1 0 0 1.366zm.617 2.109a.683.683 0 0 0 .81-1.1zm.858-1.067a.683.683 0 1 0-.762 1.135zm-.748 1.144a.683.683 0 1 0 .755-1.139zm.79-1.116a.683.683 0 0 0-.719 1.161zm2.133 1.161a.683.683 0 0 0-.719-1.161zm-.67-1.193a.683.683 0 0 0 .77 1.13zm.783 1.12a.683.683 0 0 0-.776-1.125zm-.742-1.15a.683.683 0 0 0 .81 1.1zm9.281.358a.683.683 0 1 0 0-1.366zm.645-1.366a.683.683 0 1 0 0 1.366zm.092 1.366a.683.683 0 1 0 0-1.366zm.46-1.366a.683.683 0 1 0 0 1.366zm8.471 2.109a.683.683 0 0 0 .81-1.1zm.859-1.067a.683.683 0 0 0-.762 1.135zm-.748 1.144a.683.683 0 1 0 .755-1.139zm.79-1.116a.683.683 0 1 0-.72 1.161zm2.133 1.161a.683.683 0 0 0-.72-1.161zm-.67-1.193a.683.683 0 0 0 .769 1.13zm.783 1.12a.683.683 0 1 0-.776-1.125zm-.742-1.15a.683.683 0 1 0 .81 1.1zm1.122.358a.683.683 0 0 0 0-1.366zm.003-1.366a.683.683 0 1 0 0 1.366zm0 1.366a.683.683 0 0 0 0-1.366zm.002-1.366a.683.683 0 1 0 0 1.366zm2.32.491a.683.683 0 1 0-.914-1.016zm-.828-1.097a.683.683 0 0 0 .97.962zm.99.942a.683.683 0 0 0-.978-.955zm-.92-1.016a.683.683 0 1 0 1.015.913zm1.89-13.512a.683.683 0 0 0-1.366 0zm-1.366-.955a.683.683 0 0 0 1.366 0zm1.366-.137a.683.683 0 0 0-1.366 0zm-1.366-.682a.683.683 0 0 0 1.366 0zm.491-14.425a.683.683 0 1 0-1.016.913zm-1.097.828a.683.683 0 1 0 .962-.97zm.942-.99a.683.683 0 1 0-.954.978zm-1.016.92a.683.683 0 1 0 .913-1.016zm-13.453-1.89a.683.683 0 0 0 0 1.365zm-.95 1.365a.683.683 0 0 0 0-1.366zm-.136-1.366a.683.683 0 0 0 0 1.366zM28.648 4.4a.683.683 0 0 0 0-1.366zM16.565 3.034c-.877 0-1.679.332-2.283.875l.913 1.016a2.04 2.04 0 0 1 1.37-.525zm-2.426 1.01-.02.02.979.955.012-.012zm-.115.123a3.4 3.4 0 0 0-.875 2.283h1.366c0-.527.198-1.006.525-1.37zm-.875 2.283v12.142h1.366V6.45zm0 13.097v.137h1.366v-.137zm0 .819v12.142h1.366V20.366zm0 12.142c0 .877.331 1.679.875 2.283l1.016-.913a2.04 2.04 0 0 1-.525-1.37zm1.01 2.425.02.02.954-.978-.011-.012zm.123.116a3.4 3.4 0 0 0 2.283.875v-1.366a2.04 2.04 0 0 1-1.37-.525zm2.283.875h.342v-1.366h-.342zm.37 0h.003v-1.366h-.004zm.022 0h.343v-1.366h-.343zm-.29-.427c.19.47.506.874.908 1.17l.81-1.1a1.35 1.35 0 0 1-.452-.582zm1.004 1.238.014.009.755-1.139-.007-.005zm.085.054a2.7 2.7 0 0 0 1.426.405v-1.366c-.26 0-.502-.074-.707-.2zm1.426.405c.522 0 1.012-.148 1.426-.405l-.719-1.161c-.205.126-.446.2-.707.2zm1.525-.469.014-.01-.776-1.124-.007.005zm.083-.058c.401-.296.718-.7.908-1.17l-1.267-.512a1.35 1.35 0 0 1-.452.582zm.275-.743h8.195v-1.366h-8.195zm8.84 0h.092v-1.366h-.092zm.553 0h8.195v-1.366h-8.195zm7.562-.427c.19.47.507.874.908 1.17l.81-1.1a1.35 1.35 0 0 1-.451-.582zm1.005 1.238.014.009.755-1.139-.007-.005zm.085.054a2.7 2.7 0 0 0 1.426.405v-1.366c-.26 0-.502-.074-.707-.2zm1.426.405a2.7 2.7 0 0 0 1.426-.405l-.72-1.161a1.34 1.34 0 0 1-.706.2zm1.525-.469.014-.01-.776-1.124-.007.005zm.082-.058c.402-.296.719-.7.909-1.17l-1.267-.512a1.35 1.35 0 0 1-.452.582zm.275-.743h.037v-1.366h-.037zm.04 0v-1.366zm.002 0h.036v-1.366h-.036zm.036 0a3.4 3.4 0 0 0 2.283-.875l-.913-1.016a2.04 2.04 0 0 1-1.37.525zm2.426-1.01.02-.02-.978-.955-.012.013zm.115-.123a3.4 3.4 0 0 0 .875-2.283h-1.366a2.04 2.04 0 0 1-.525 1.37zm.875-2.283V20.366h-1.366v12.142zm0-13.097v-.137h-1.366v.137zm0-.819V6.45h-1.366v12.142zm0-12.142c0-.877-.331-1.678-.875-2.283l-1.016.913c.327.364.525.843.525 1.37zm-1.01-2.425-.02-.02-.954.978.012.012zm-.123-.116a3.4 3.4 0 0 0-2.283-.875V4.4a2.04 2.04 0 0 1 1.37.525zm-2.283-.875H30.413V4.4h12.083zm-13.033 0h-.136V4.4h.136zm-.815 0H16.565V4.4h12.083z"/><path fill="#fff" fill-rule="evenodd" stroke="#D7DBE0" stroke-linecap="round" stroke-linejoin="round" stroke-width="1.25" d="M17.265 8.225c0-.754.612-1.366 1.366-1.366h22.222c.755 0 1.367.612 1.367 1.366V30.43c0 .755-.612 1.367-1.367 1.367H18.631a1.366 1.366 0 0 1-1.366-1.367z" clip-rule="evenodd"/><path fill="#fff" fill-rule="evenodd" stroke="#D7DBE0" stroke-linecap="round" stroke-linejoin="round" stroke-width="1.25" d="M15.925 11.259a1.386 1.386 0 0 1 2.773 0v3.076a1.386 1.386 0 0 1-2.773 0zm0 14.395a1.386 1.386 0 1 1 2.773 0v3.076a1.386 1.386 0 1 1-2.773 0z" clip-rule="evenodd"/><path stroke="#D7DBE0" stroke-width="1.25" d="M29.493 24.894a5.146 5.146 0 0 0 5.148-5.144 5.146 5.146 0 0 0-5.148-5.145 5.146 5.146 0 0 0-5.148 5.145 5.146 5.146 0 0 0 5.148 5.144Z"/><path fill="#D7DBE0" fill-rule="evenodd" d="M30.22 14.52a.629.629 0 1 0-1.255 0v3.12a2.015 2.015 0 0 0-1.32 2.413l-2.74 1.925a.63.63 0 0 0-.156.878c.2.286.59.353.876.153l2.697-1.894a2 2 0 0 0 2.652-.099l2.838 1.993a.63.63 0 1 0 .72-1.032l-2.96-2.078q.03-.168.03-.345c0-.893-.58-1.65-1.381-1.914z" clip-rule="evenodd"/></svg>